<?xml version="1.0" encoding="UTF-8" standalone="no"?>
<!DOCTYPE svg PUBLIC "-//W3C//DTD SVG 1.1//EN"
 "http://www.w3.org/Graphics/SVG/1.1/DTD/svg11.dtd">
<!-- Generated by graphviz version 13.1.2 (20250808.2320)
 -->
<!-- Title: G Pages: 1 -->
<svg width="7201pt" height="5942pt"
 viewBox="0.00 0.00 7201.00 5942.00" xmlns="http://www.w3.org/2000/svg" xmlns:xlink="http://www.w3.org/1999/xlink">
<g id="graph0" class="graph" transform="scale(1 1) rotate(0) translate(36 5927.42)">
<title>G</title>
<polygon fill="white" stroke="none" points="-36,14.4 -36,-5927.42 7165.13,-5927.42 7165.13,14.4 -36,14.4"/>
<!-- 536 -->
<g id="node1" class="node">
<title>536</title>
<polygon fill="#d9fae7" stroke="#b3b3b3" stroke-width="1.5" points="823.81,-1683.32 595.56,-1683.32 595.56,-1568.07 829.81,-1568.07 829.81,-1677.32 823.81,-1683.32"/>
<polyline fill="none" stroke="#b3b3b3" stroke-width="1.5" points="823.81,-1683.32 823.81,-1677.32"/>
<polyline fill="none" stroke="#b3b3b3" stroke-width="1.5" points="829.81,-1677.32 823.81,-1677.32"/>
<text xml:space="preserve" text-anchor="middle" x="712.68" y="-1595.72" font-family="Verdana" font-size="88.00">Helix</text>
</g>
<!-- 293 -->
<g id="node2" class="node">
<title>293</title>
<polygon fill="#e1f5fe" stroke="#b3b3b3" stroke-width="1.5" points="4205.55,-2282.73 3345.8,-2282.73 3345.8,-2167.48 4211.55,-2167.48 4211.55,-2276.73 4205.55,-2282.73"/>
<polyline fill="none" stroke="#b3b3b3" stroke-width="1.5" points="4205.55,-2282.73 4205.55,-2276.73"/>
<polyline fill="none" stroke="#b3b3b3" stroke-width="1.5" points="4211.55,-2276.73 4205.55,-2276.73"/>
<text xml:space="preserve" text-anchor="middle" x="3778.68" y="-2195.13" font-family="Verdana" font-size="88.00">Graph Visualization</text>
</g>
<!-- 78 -->
<g id="node3" class="node">
<title>78</title>
<polygon fill="#fbfbda" stroke="#b3b3b3" stroke-width="1.5" points="2275.46,-189.78 1674.46,-189.78 1674.46,-74.53 2281.46,-74.53 2281.46,-183.78 2275.46,-189.78"/>
<polyline fill="none" stroke="#b3b3b3" stroke-width="1.5" points="2275.46,-189.78 2275.46,-183.78"/>
<polyline fill="none" stroke="#b3b3b3" stroke-width="1.5" points="2281.46,-183.78 2275.46,-183.78"/>
<text xml:space="preserve" text-anchor="middle" x="1977.96" y="-102.18" font-family="Verdana" font-size="88.00">Configuration</text>
</g>
<!-- 156 -->
<g id="node4" class="node">
<title>156</title>
<polygon fill="#f2fadf" stroke="#b3b3b3" stroke-width="1.5" points="1998.78,-3812.54 1239.53,-3812.54 1239.53,-3697.29 2004.78,-3697.29 2004.78,-3806.54 1998.78,-3812.54"/>
<polyline fill="none" stroke="#b3b3b3" stroke-width="1.5" points="1998.78,-3812.54 1998.78,-3806.54"/>
<polyline fill="none" stroke="#b3b3b3" stroke-width="1.5" points="2004.78,-3806.54 1998.78,-3806.54"/>
<text xml:space="preserve" text-anchor="middle" x="1622.15" y="-3724.94" font-family="Verdana" font-size="88.00">Design principles</text>
</g>
<!-- 562 -->
<g id="node5" class="node">
<title>562</title>
<polygon fill="#e9f9ef" stroke="#b3b3b3" stroke-width="1.5" points="4183.02,-1587.84 2742.02,-1587.84 2742.02,-1472.59 4189.02,-1472.59 4189.02,-1581.84 4183.02,-1587.84"/>
<polyline fill="none" stroke="#b3b3b3" stroke-width="1.5" points="4183.02,-1587.84 4183.02,-1581.84"/>
<polyline fill="none" stroke="#b3b3b3" stroke-width="1.5" points="4189.02,-1581.84 4183.02,-1581.84"/>
<text xml:space="preserve" text-anchor="middle" x="3465.52" y="-1500.24" font-family="Verdana" font-size="88.00">How to use with your text editor</text>
</g>
<!-- 748 -->
<g id="node6" class="node">
<title>748</title>
<polygon fill="#fff9de" stroke="#b3b3b3" stroke-width="1.5" points="1720.04,-2434.58 990.04,-2434.58 990.04,-2319.33 1726.04,-2319.33 1726.04,-2428.58 1720.04,-2434.58"/>
<polyline fill="none" stroke="#b3b3b3" stroke-width="1.5" points="1720.04,-2434.58 1720.04,-2428.58"/>
<polyline fill="none" stroke="#b3b3b3" stroke-width="1.5" points="1726.04,-2428.58 1720.04,-2428.58"/>
<text xml:space="preserve" text-anchor="middle" x="1358.04" y="-2346.98" font-family="Verdana" font-size="88.00">Maps of Content</text>
</g>
<!-- 710 -->
<g id="node7" class="node">
<title>710</title>
<polygon fill="#ffeee0" stroke="#b3b3b3" stroke-width="1.5" points="6237.87,-428.28 4898.87,-428.28 4898.87,-322.03 6243.87,-322.03 6243.87,-422.28 6237.87,-428.28"/>
<polyline fill="none" stroke="#b3b3b3" stroke-width="1.5" points="6237.87,-428.28 6237.87,-422.28"/>
<polyline fill="none" stroke="#b3b3b3" stroke-width="1.5" points="6243.87,-422.28 6237.87,-422.28"/>
<text xml:space="preserve" text-anchor="middle" x="5571.37" y="-348.28" font-family="Verdana" font-size="80.00">Indexing and Reference Systems</text>
</g>
<!-- 204 -->
<g id="node8" class="node">
<title>204</title>
<polygon fill="#dcf7f7" stroke="#b3b3b3" stroke-width="1.5" points="4550.65,-611.82 2733.9,-611.82 2733.9,-496.57 4556.65,-496.57 4556.65,-605.82 4550.65,-611.82"/>
<polyline fill="none" stroke="#b3b3b3" stroke-width="1.5" points="4550.65,-611.82 4550.65,-605.82"/>
<polyline fill="none" stroke="#b3b3b3" stroke-width="1.5" points="4556.65,-605.82 4550.65,-605.82"/>
<text xml:space="preserve" text-anchor="middle" x="3645.27" y="-524.22" font-family="Verdana" font-size="88.00">Text structure normalization / formatting</text>
</g>
<!-- 800 -->
<g id="node9" class="node">
<title>800</title>
<polygon fill="#dcf7f7" stroke="#b3b3b3" stroke-width="1.5" points="2768.35,-115.25 2425.35,-115.25 2425.35,0 2774.35,0 2774.35,-109.25 2768.35,-115.25"/>
<polyline fill="none" stroke="#b3b3b3" stroke-width="1.5" points="2768.35,-115.25 2768.35,-109.25"/>
<polyline fill="none" stroke="#b3b3b3" stroke-width="1.5" points="2774.35,-109.25 2768.35,-109.25"/>
<text xml:space="preserve" text-anchor="middle" x="2599.85" y="-27.65" font-family="Verdana" font-size="88.00">Neovim</text>
</g>
<!-- 287 -->
<g id="node10" class="node">
<title>287</title>
<polygon fill="#eef2f5" stroke="#b3b3b3" stroke-width="1.5" points="3599.78,-217.16 2803.78,-217.16 2803.78,-101.91 3605.78,-101.91 3605.78,-211.16 3599.78,-217.16"/>
<polyline fill="none" stroke="#b3b3b3" stroke-width="1.5" points="3599.78,-217.16 3599.78,-211.16"/>
<polyline fill="none" stroke="#b3b3b3" stroke-width="1.5" points="3605.78,-211.16 3599.78,-211.16"/>
<text xml:space="preserve" text-anchor="middle" x="3204.78" y="-129.56" font-family="Verdana" font-size="88.00">Text manipulation</text>
</g>
<!-- 991 -->
<g id="node11" class="node">
<title>991</title>
<polygon fill="#dcf7f7" stroke="#b3b3b3" stroke-width="1.5" points="6527.19,-918.59 5469.44,-918.59 5469.44,-812.34 6533.19,-812.34 6533.19,-912.59 6527.19,-918.59"/>
<polyline fill="none" stroke="#b3b3b3" stroke-width="1.5" points="6527.19,-918.59 6527.19,-912.59"/>
<polyline fill="none" stroke="#b3b3b3" stroke-width="1.5" points="6533.19,-912.59 6527.19,-912.59"/>
<text xml:space="preserve" text-anchor="middle" x="6001.32" y="-838.59" font-family="Verdana" font-size="80.00">Node Types and Structure</text>
</g>
<!-- 366 -->
<g id="node12" class="node">
<title>366</title>
<polygon fill="#ffeee0" stroke="#b3b3b3" stroke-width="1.5" points="1264.75,-2311.27 0,-2311.27 0,-2196.02 1270.75,-2196.02 1270.75,-2305.27 1264.75,-2311.27"/>
<polyline fill="none" stroke="#b3b3b3" stroke-width="1.5" points="1264.75,-2311.27 1264.75,-2305.27"/>
<polyline fill="none" stroke="#b3b3b3" stroke-width="1.5" points="1270.75,-2305.27 1264.75,-2305.27"/>
<text xml:space="preserve" text-anchor="middle" x="635.38" y="-2223.67" font-family="Verdana" font-size="88.00">How to use in command line</text>
</g>
<!-- 230 -->
<g id="node13" class="node">
<title>230</title>
<polygon fill="#eef2f5" stroke="#b3b3b3" stroke-width="1.5" points="3906.21,-2980.52 3427.46,-2980.52 3427.46,-2865.27 3912.21,-2865.27 3912.21,-2974.52 3906.21,-2980.52"/>
<polyline fill="none" stroke="#b3b3b3" stroke-width="1.5" points="3906.21,-2980.52 3906.21,-2974.52"/>
<polyline fill="none" stroke="#b3b3b3" stroke-width="1.5" points="3912.21,-2974.52 3906.21,-2974.52"/>
<text xml:space="preserve" text-anchor="middle" x="3669.83" y="-2892.92" font-family="Verdana" font-size="88.00">Navigation</text>
</g>
<!-- 677 -->
<g id="node14" class="node">
<title>677</title>
<polygon fill="#f6e5ee" stroke="#b3b3b3" stroke-width="1.5" points="2676.74,-2117.83 2470.24,-2117.83 2470.24,-1992.83 2682.74,-1992.83 2682.74,-2111.83 2676.74,-2117.83"/>
<polyline fill="none" stroke="#b3b3b3" stroke-width="1.5" points="2676.74,-2117.83 2676.74,-2111.83"/>
<polyline fill="none" stroke="#b3b3b3" stroke-width="1.5" points="2682.74,-2111.83 2676.74,-2111.83"/>
<text xml:space="preserve" text-anchor="middle" x="2576.49" y="-2022.63" font-family="Verdana" font-size="96.00">IWE</text>
</g>
<!-- 677&#45;&gt;536 -->
<g id="edge13" class="edge">
<title>677&#45;&gt;536</title>
<path fill="none" stroke="#38546c" stroke-width="1.2" stroke-opacity="0.400000" d="M2469.59,-2030.69C2148.1,-1956.58 1190.78,-1735.9 841.8,-1655.46"/>
<polygon fill="#38546c" fill-opacity="0.400000" stroke="#38546c" stroke-width="1.2" stroke-opacity="0.400000" points="842.7,-1652.07 832.17,-1653.23 841.13,-1658.89 842.7,-1652.07"/>
</g>
<!-- 677&#45;&gt;293 -->
<g id="edge19" class="edge">
<title>677&#45;&gt;293</title>
<path fill="none" stroke="#38546c" stroke-width="1.2" stroke-opacity="0.400000" d="M2683.44,-2070.43C2833.31,-2091.6 3114.38,-2131.29 3354.25,-2165.17"/>
<polygon fill="#38546c" fill-opacity="0.400000" stroke="#38546c" stroke-width="1.2" stroke-opacity="0.400000" points="3353.45,-2168.59 3363.84,-2166.52 3354.43,-2161.66 3353.45,-2168.59"/>
</g>
<!-- 677&#45;&gt;78 -->
<g id="edge20" class="edge">
<title>677&#45;&gt;78</title>
<path fill="none" stroke="#38546c" stroke-width="1.2" stroke-opacity="0.400000" d="M2562.85,-1992.2C2506.34,-1730.77 2293.6,-746.54 2293.6,-746.54 2293.6,-746.54 2095.52,-360.98 2013.19,-200.73"/>
<polygon fill="#38546c" fill-opacity="0.400000" stroke="#38546c" stroke-width="1.2" stroke-opacity="0.400000" points="2016.45,-199.42 2008.77,-192.12 2010.22,-202.62 2016.45,-199.42"/>
</g>
<!-- 677&#45;&gt;156 -->
<g id="edge10" class="edge">
<title>677&#45;&gt;156</title>
<path fill="none" stroke="#38546c" stroke-width="1.2" stroke-opacity="0.400000" d="M2553.84,-2118.3C2473.91,-2340.48 2209.89,-3074.37 2209.89,-3074.37 2209.89,-3074.37 1828.25,-3516.27 1680.03,-3687.89"/>
<polygon fill="#38546c" fill-opacity="0.400000" stroke="#38546c" stroke-width="1.2" stroke-opacity="0.400000" points="1677.59,-3685.37 1673.7,-3695.22 1682.89,-3689.94 1677.59,-3685.37"/>
</g>
<!-- 677&#45;&gt;562 -->
<g id="edge5" class="edge">
<title>677&#45;&gt;562</title>
<path fill="none" stroke="#38546c" stroke-width="1.2" stroke-opacity="0.400000" d="M2683.29,-1992.25C2853.71,-1891.59 3185.39,-1695.68 3356.93,-1594.35"/>
<polygon fill="#38546c" fill-opacity="0.400000" stroke="#38546c" stroke-width="1.2" stroke-opacity="0.400000" points="3358.6,-1597.44 3365.43,-1589.34 3355.04,-1591.41 3358.6,-1597.44"/>
</g>
<!-- 677&#45;&gt;748 -->
<g id="edge7" class="edge">
<title>677&#45;&gt;748</title>
<path fill="none" stroke="#38546c" stroke-width="1.2" stroke-opacity="0.400000" d="M2469.7,-2083.52C2274.12,-2135.14 1854.33,-2245.95 1590.25,-2315.66"/>
<polygon fill="#38546c" fill-opacity="0.400000" stroke="#38546c" stroke-width="1.2" stroke-opacity="0.400000" points="1589.5,-2312.24 1580.73,-2318.17 1591.29,-2319.01 1589.5,-2312.24"/>
</g>
<!-- 677&#45;&gt;204 -->
<g id="edge17" class="edge">
<title>677&#45;&gt;204</title>
<path fill="none" stroke="#38546c" stroke-width="1.2" stroke-opacity="0.400000" d="M2593.86,-1992.26C2635.59,-1840.74 2738.07,-1468.64 2738.07,-1468.64 2738.07,-1468.64 3370.65,-831.01 3579.36,-620.64"/>
<polygon fill="#38546c" fill-opacity="0.400000" stroke="#38546c" stroke-width="1.2" stroke-opacity="0.400000" points="3581.65,-623.29 3586.21,-613.73 3576.68,-618.36 3581.65,-623.29"/>
</g>
<!-- 677&#45;&gt;800 -->
<g id="edge11" class="edge">
<title>677&#45;&gt;800</title>
<path fill="none" stroke="#38546c" stroke-width="1.2" stroke-opacity="0.400000" d="M2571.23,-1992.39C2550.99,-1750.26 2479.26,-892.33 2479.26,-892.33 2479.26,-892.33 2479.26,-769.18 2479.26,-769.18 2479.26,-769.18 2557.62,-306.81 2588,-127.5"/>
<polygon fill="#38546c" fill-opacity="0.400000" stroke="#38546c" stroke-width="1.2" stroke-opacity="0.400000" points="2591.46,-128.09 2589.68,-117.65 2584.55,-126.92 2591.46,-128.09"/>
</g>
<!-- 677&#45;&gt;287 -->
<g id="edge4" class="edge">
<title>677&#45;&gt;287</title>
<path fill="none" stroke="#38546c" stroke-width="1.2" stroke-opacity="0.400000" d="M2571.23,-1992.39C2550.99,-1750.26 2479.26,-892.33 2479.26,-892.33 2479.26,-892.33 2479.26,-769.18 2479.26,-769.18 2479.26,-769.18 2729.95,-492.62 2729.95,-492.62 2729.95,-492.62 2974.33,-321.19 3112.45,-224.3"/>
<polygon fill="#38546c" fill-opacity="0.400000" stroke="#38546c" stroke-width="1.2" stroke-opacity="0.400000" points="3114.13,-227.4 3120.31,-218.79 3110.11,-221.67 3114.13,-227.4"/>
</g>
<!-- 677&#45;&gt;366 -->
<g id="edge25" class="edge">
<title>677&#45;&gt;366</title>
<path fill="none" stroke="#38546c" stroke-width="1.2" stroke-opacity="0.400000" d="M2469.71,-2066.24C2235.45,-2090.17 1661.92,-2148.76 1218,-2194.12"/>
<polygon fill="#38546c" fill-opacity="0.400000" stroke="#38546c" stroke-width="1.2" stroke-opacity="0.400000" points="1217.95,-2190.6 1208.36,-2195.1 1218.66,-2197.57 1217.95,-2190.6"/>
</g>
<!-- 677&#45;&gt;230 -->
<g id="edge14" class="edge">
<title>677&#45;&gt;230</title>
<path fill="none" stroke="#38546c" stroke-width="1.2" stroke-opacity="0.400000" d="M2656,-2118.42C2856.85,-2277.79 3383.09,-2695.36 3587.23,-2857.35"/>
<polygon fill="#38546c" fill-opacity="0.400000" stroke="#38546c" stroke-width="1.2" stroke-opacity="0.400000" points="3584.98,-2860.03 3594.99,-2863.5 3589.33,-2854.55 3584.98,-2860.03"/>
</g>
<!-- 1016 -->
<g id="node15" class="node">
<title>1016</title>
<polygon fill="#ffeee0" stroke="#b3b3b3" stroke-width="1.5" points="3036.49,-3372.93 2653.74,-3372.93 2653.74,-3257.68 3042.49,-3257.68 3042.49,-3366.93 3036.49,-3372.93"/>
<polyline fill="none" stroke="#b3b3b3" stroke-width="1.5" points="3036.49,-3372.93 3036.49,-3366.93"/>
<polyline fill="none" stroke="#b3b3b3" stroke-width="1.5" points="3042.49,-3366.93 3036.49,-3366.93"/>
<text xml:space="preserve" text-anchor="middle" x="2848.12" y="-3285.33" font-family="Verdana" font-size="88.00">VS Code</text>
</g>
<!-- 677&#45;&gt;1016 -->
<g id="edge15" class="edge">
<title>677&#45;&gt;1016</title>
<path fill="none" stroke="#38546c" stroke-width="1.2" stroke-opacity="0.400000" d="M2590.06,-2118.24C2635.94,-2331.1 2785.18,-3023.35 2833.13,-3245.79"/>
<polygon fill="#38546c" fill-opacity="0.400000" stroke="#38546c" stroke-width="1.2" stroke-opacity="0.400000" points="2829.7,-3246.46 2835.23,-3255.5 2836.54,-3244.99 2829.7,-3246.46"/>
</g>
<!-- 549 -->
<g id="node16" class="node">
<title>549</title>
<polygon fill="#e2f6f6" stroke="#b3b3b3" stroke-width="1.5" points="3093.96,-888.38 2483.21,-888.38 2483.21,-773.13 3099.96,-773.13 3099.96,-882.38 3093.96,-888.38"/>
<polyline fill="none" stroke="#b3b3b3" stroke-width="1.5" points="3093.96,-888.38 3093.96,-882.38"/>
<polyline fill="none" stroke="#b3b3b3" stroke-width="1.5" points="3099.96,-882.38 3093.96,-882.38"/>
<text xml:space="preserve" text-anchor="middle" x="2791.58" y="-800.78" font-family="Verdana" font-size="88.00">How to install</text>
</g>
<!-- 677&#45;&gt;549 -->
<g id="edge12" class="edge">
<title>677&#45;&gt;549</title>
<path fill="none" stroke="#38546c" stroke-width="1.2" stroke-opacity="0.400000" d="M2587.53,-1992.49C2624.08,-1784.4 2741.02,-1118.6 2779.31,-900.59"/>
<polygon fill="#38546c" fill-opacity="0.400000" stroke="#38546c" stroke-width="1.2" stroke-opacity="0.400000" points="2782.75,-901.26 2781.03,-890.81 2775.86,-900.05 2782.75,-901.26"/>
</g>
<!-- 215 -->
<g id="node19" class="node">
<title>215</title>
<polygon fill="#f6e5ee" stroke="#b3b3b3" stroke-width="1.5" points="1274.76,-2965.3 383.51,-2965.3 383.51,-2850.05 1280.76,-2850.05 1280.76,-2959.3 1274.76,-2965.3"/>
<polyline fill="none" stroke="#b3b3b3" stroke-width="1.5" points="1274.76,-2965.3 1274.76,-2959.3"/>
<polyline fill="none" stroke="#b3b3b3" stroke-width="1.5" points="1280.76,-2959.3 1274.76,-2959.3"/>
<text xml:space="preserve" text-anchor="middle" x="832.13" y="-2877.7" font-family="Verdana" font-size="88.00">Extract/Inline Notes</text>
</g>
<!-- 677&#45;&gt;215 -->
<g id="edge2" class="edge">
<title>677&#45;&gt;215</title>
<path fill="none" stroke="#38546c" stroke-width="1.2" stroke-opacity="0.400000" d="M2469.68,-2107.52C2165.13,-2256.33 1293.2,-2682.38 961.94,-2844.24"/>
<polygon fill="#38546c" fill-opacity="0.400000" stroke="#38546c" stroke-width="1.2" stroke-opacity="0.400000" points="960.43,-2841.09 952.98,-2848.62 963.5,-2847.38 960.43,-2841.09"/>
</g>
<!-- 152 -->
<g id="node20" class="node">
<title>152</title>
<polygon fill="#eef2f5" stroke="#b3b3b3" stroke-width="1.5" points="1467.73,-3449.78 907.23,-3449.78 907.23,-3334.53 1473.73,-3334.53 1473.73,-3443.78 1467.73,-3449.78"/>
<polyline fill="none" stroke="#b3b3b3" stroke-width="1.5" points="1467.73,-3449.78 1467.73,-3443.78"/>
<polyline fill="none" stroke="#b3b3b3" stroke-width="1.5" points="1473.73,-3443.78 1467.73,-3443.78"/>
<text xml:space="preserve" text-anchor="middle" x="1190.48" y="-3362.18" font-family="Verdana" font-size="88.00">Debug Mode</text>
</g>
<!-- 677&#45;&gt;152 -->
<g id="edge16" class="edge">
<title>677&#45;&gt;152</title>
<path fill="none" stroke="#38546c" stroke-width="1.2" stroke-opacity="0.400000" d="M2511.04,-2118.46C2278.9,-2342.36 1496.23,-3097.25 1259.12,-3325.94"/>
<polygon fill="#38546c" fill-opacity="0.400000" stroke="#38546c" stroke-width="1.2" stroke-opacity="0.400000" points="1257,-3323.13 1252.23,-3332.6 1261.85,-3328.17 1257,-3323.13"/>
</g>
<!-- 254 -->
<g id="node21" class="node">
<title>254</title>
<polygon fill="#dcf7f7" stroke="#b3b3b3" stroke-width="1.5" points="1844.99,-1578.25 1189.99,-1578.25 1189.99,-1463 1850.99,-1463 1850.99,-1572.25 1844.99,-1578.25"/>
<polyline fill="none" stroke="#b3b3b3" stroke-width="1.5" points="1844.99,-1578.25 1844.99,-1572.25"/>
<polyline fill="none" stroke="#b3b3b3" stroke-width="1.5" points="1850.99,-1572.25 1844.99,-1572.25"/>
<text xml:space="preserve" text-anchor="middle" x="1520.49" y="-1490.65" font-family="Verdana" font-size="88.00">Files renaming</text>
</g>
<!-- 677&#45;&gt;254 -->
<g id="edge9" class="edge">
<title>677&#45;&gt;254</title>
<path fill="none" stroke="#38546c" stroke-width="1.2" stroke-opacity="0.400000" d="M2469.92,-2001.36C2273.57,-1901.95 1855.68,-1690.35 1645.99,-1584.17"/>
<polygon fill="#38546c" fill-opacity="0.400000" stroke="#38546c" stroke-width="1.2" stroke-opacity="0.400000" points="1647.67,-1581.1 1637.17,-1579.7 1644.51,-1587.34 1647.67,-1581.1"/>
</g>
<!-- 247 -->
<g id="node22" class="node">
<title>247</title>
<polygon fill="#fff9de" stroke="#b3b3b3" stroke-width="1.5" points="1091.06,-1084.05 777.31,-1084.05 777.31,-968.8 1097.06,-968.8 1097.06,-1078.05 1091.06,-1084.05"/>
<polyline fill="none" stroke="#b3b3b3" stroke-width="1.5" points="1091.06,-1084.05 1091.06,-1078.05"/>
<polyline fill="none" stroke="#b3b3b3" stroke-width="1.5" points="1097.06,-1078.05 1091.06,-1078.05"/>
<text xml:space="preserve" text-anchor="middle" x="937.18" y="-996.45" font-family="Verdana" font-size="88.00">Search</text>
</g>
<!-- 677&#45;&gt;247 -->
<g id="edge23" class="edge">
<title>677&#45;&gt;247</title>
<path fill="none" stroke="#38546c" stroke-width="1.2" stroke-opacity="0.400000" d="M2499.96,-1992.08C2314.26,-1838.62 1854.94,-1459.05 1854.94,-1459.05 1854.94,-1459.05 1326.22,-1209.82 1071.39,-1089.69"/>
<polygon fill="#38546c" fill-opacity="0.400000" stroke="#38546c" stroke-width="1.2" stroke-opacity="0.400000" points="1073.14,-1086.65 1062.6,-1085.55 1070.15,-1092.98 1073.14,-1086.65"/>
</g>
<!-- 1 -->
<g id="node23" class="node">
<title>1</title>
<polygon fill="#eef2f5" stroke="#b3b3b3" stroke-width="1.5" points="5118.56,-2372.47 4573.06,-2372.47 4573.06,-2257.22 5124.56,-2257.22 5124.56,-2366.47 5118.56,-2372.47"/>
<polyline fill="none" stroke="#b3b3b3" stroke-width="1.5" points="5118.56,-2372.47 5118.56,-2366.47"/>
<polyline fill="none" stroke="#b3b3b3" stroke-width="1.5" points="5124.56,-2366.47 5118.56,-2366.47"/>
<text xml:space="preserve" text-anchor="middle" x="4848.81" y="-2284.87" font-family="Verdana" font-size="88.00">Architecture</text>
</g>
<!-- 677&#45;&gt;1 -->
<g id="edge6" class="edge">
<title>677&#45;&gt;1</title>
<path fill="none" stroke="#38546c" stroke-width="1.2" stroke-opacity="0.400000" d="M2683.4,-2062.39C3047.32,-2086.41 4215.5,-2163.53 4215.5,-2163.53 4215.5,-2163.53 4417.69,-2211.84 4593.59,-2253.86"/>
<polygon fill="#38546c" fill-opacity="0.400000" stroke="#38546c" stroke-width="1.2" stroke-opacity="0.400000" points="4592.56,-2257.22 4603.1,-2256.14 4594.19,-2250.41 4592.56,-2257.22"/>
</g>
<!-- 212 -->
<g id="node25" class="node">
<title>212</title>
<polygon fill="#f6e5ee" stroke="#b3b3b3" stroke-width="1.5" points="2669.22,-3891.62 2013.47,-3891.62 2013.47,-3776.37 2675.22,-3776.37 2675.22,-3885.62 2669.22,-3891.62"/>
<polyline fill="none" stroke="#b3b3b3" stroke-width="1.5" points="2669.22,-3891.62 2669.22,-3885.62"/>
<polyline fill="none" stroke="#b3b3b3" stroke-width="1.5" points="2675.22,-3885.62 2669.22,-3885.62"/>
<text xml:space="preserve" text-anchor="middle" x="2344.34" y="-3804.02" font-family="Verdana" font-size="88.00">Auto&#45;complete</text>
</g>
<!-- 677&#45;&gt;212 -->
<g id="edge3" class="edge">
<title>677&#45;&gt;212</title>
<path fill="none" stroke="#38546c" stroke-width="1.2" stroke-opacity="0.400000" d="M2568.27,-2118.37C2532.51,-2392.3 2390.77,-3478.25 2353.41,-3764.52"/>
<polygon fill="#38546c" fill-opacity="0.400000" stroke="#38546c" stroke-width="1.2" stroke-opacity="0.400000" points="2349.98,-3763.79 2352.15,-3774.16 2356.92,-3764.7 2349.98,-3763.79"/>
</g>
<!-- 257 -->
<g id="node27" class="node">
<title>257</title>
<polygon fill="#ffeee0" stroke="#b3b3b3" stroke-width="1.5" points="3748.05,-3569.95 3165.8,-3569.95 3165.8,-3454.7 3754.05,-3454.7 3754.05,-3563.95 3748.05,-3569.95"/>
<polyline fill="none" stroke="#b3b3b3" stroke-width="1.5" points="3748.05,-3569.95 3748.05,-3563.95"/>
<polyline fill="none" stroke="#b3b3b3" stroke-width="1.5" points="3754.05,-3563.95 3748.05,-3563.95"/>
<text xml:space="preserve" text-anchor="middle" x="3459.92" y="-3482.35" font-family="Verdana" font-size="88.00">Notes search</text>
</g>
<!-- 677&#45;&gt;257 -->
<g id="edge8" class="edge">
<title>677&#45;&gt;257</title>
<path fill="none" stroke="#38546c" stroke-width="1.2" stroke-opacity="0.400000" d="M2614.74,-2118.4C2758.95,-2356.25 3269.24,-3197.84 3418.58,-3444.14"/>
<polygon fill="#38546c" fill-opacity="0.400000" stroke="#38546c" stroke-width="1.2" stroke-opacity="0.400000" points="3415.46,-3445.74 3423.64,-3452.48 3421.44,-3442.11 3415.46,-3445.74"/>
</g>
<!-- 226 -->
<g id="node28" class="node">
<title>226</title>
<polygon fill="#fae1ee" stroke="#b3b3b3" stroke-width="1.5" points="2199.94,-3070.42 1723.44,-3070.42 1723.44,-2955.17 2205.94,-2955.17 2205.94,-3064.42 2199.94,-3070.42"/>
<polyline fill="none" stroke="#b3b3b3" stroke-width="1.5" points="2199.94,-3070.42 2199.94,-3064.42"/>
<polyline fill="none" stroke="#b3b3b3" stroke-width="1.5" points="2205.94,-3064.42 2199.94,-3064.42"/>
<text xml:space="preserve" text-anchor="middle" x="1964.69" y="-2982.82" font-family="Verdana" font-size="88.00">Inlay hints</text>
</g>
<!-- 677&#45;&gt;226 -->
<g id="edge1" class="edge">
<title>677&#45;&gt;226</title>
<path fill="none" stroke="#38546c" stroke-width="1.2" stroke-opacity="0.400000" d="M2536.11,-2118.52C2426.06,-2290.76 2121.48,-2767.41 2008.02,-2944.97"/>
<polygon fill="#38546c" fill-opacity="0.400000" stroke="#38546c" stroke-width="1.2" stroke-opacity="0.400000" points="2005.21,-2942.87 2002.77,-2953.18 2011.11,-2946.64 2005.21,-2942.87"/>
</g>
<!-- 265 -->
<g id="node29" class="node">
<title>265</title>
<polygon fill="#eeebfa" stroke="#b3b3b3" stroke-width="1.5" points="2283.65,-865.74 1601.65,-865.74 1601.65,-750.49 2289.65,-750.49 2289.65,-859.74 2283.65,-865.74"/>
<polyline fill="none" stroke="#b3b3b3" stroke-width="1.5" points="2283.65,-865.74 2283.65,-859.74"/>
<polyline fill="none" stroke="#b3b3b3" stroke-width="1.5" points="2289.65,-859.74 2283.65,-859.74"/>
<text xml:space="preserve" text-anchor="middle" x="1945.65" y="-778.14" font-family="Verdana" font-size="88.00">Sub&#45;directories</text>
</g>
<!-- 677&#45;&gt;265 -->
<g id="edge22" class="edge">
<title>677&#45;&gt;265</title>
<path fill="none" stroke="#38546c" stroke-width="1.2" stroke-opacity="0.400000" d="M2544.56,-1992.19C2437.43,-1780.38 2091.29,-1096.04 1980.27,-876.55"/>
<polygon fill="#38546c" fill-opacity="0.400000" stroke="#38546c" stroke-width="1.2" stroke-opacity="0.400000" points="1983.46,-875.11 1975.83,-867.76 1977.22,-878.27 1983.46,-875.11"/>
</g>
<!-- 183 -->
<g id="node30" class="node">
<title>183</title>
<polygon fill="#eef2f5" stroke="#b3b3b3" stroke-width="1.5" points="4423.52,-1212.08 3442.27,-1212.08 3442.27,-1096.83 4429.52,-1096.83 4429.52,-1206.08 4423.52,-1212.08"/>
<polyline fill="none" stroke="#b3b3b3" stroke-width="1.5" points="4423.52,-1212.08 4423.52,-1206.08"/>
<polyline fill="none" stroke="#b3b3b3" stroke-width="1.5" points="4429.52,-1206.08 4423.52,-1206.08"/>
<text xml:space="preserve" text-anchor="middle" x="3935.9" y="-1124.48" font-family="Verdana" font-size="88.00">Basic journal example</text>
</g>
<!-- 677&#45;&gt;183 -->
<g id="edge18" class="edge">
<title>677&#45;&gt;183</title>
<path fill="none" stroke="#38546c" stroke-width="1.2" stroke-opacity="0.400000" d="M2593.86,-1992.26C2635.59,-1840.74 2738.07,-1468.64 2738.07,-1468.64 2738.07,-1468.64 3353.56,-1307.2 3702.14,-1215.77"/>
<polygon fill="#38546c" fill-opacity="0.400000" stroke="#38546c" stroke-width="1.2" stroke-opacity="0.400000" points="3702.86,-1219.2 3711.65,-1213.27 3701.09,-1212.42 3702.86,-1219.2"/>
</g>
<!-- 1158 -->
<g id="node32" class="node">
<title>1158</title>
<polygon fill="#dcf7f7" stroke="#b3b3b3" stroke-width="1.5" points="3069.25,-4238.39 2490.75,-4238.39 2490.75,-4123.14 3075.25,-4123.14 3075.25,-4232.39 3069.25,-4238.39"/>
<polyline fill="none" stroke="#b3b3b3" stroke-width="1.5" points="3069.25,-4238.39 3069.25,-4232.39"/>
<polyline fill="none" stroke="#b3b3b3" stroke-width="1.5" points="3075.25,-4232.39 3069.25,-4232.39"/>
<text xml:space="preserve" text-anchor="middle" x="2783" y="-4150.79" font-family="Verdana" font-size="88.00">Why it exists</text>
</g>
<!-- 677&#45;&gt;1158 -->
<g id="edge21" class="edge">
<title>677&#45;&gt;1158</title>
<path fill="none" stroke="#38546c" stroke-width="1.2" stroke-opacity="0.400000" d="M2579.98,-2118.18C2594.55,-2380.81 2649.79,-3376.88 2649.79,-3376.88 2649.79,-3376.88 2739.08,-3915.73 2771.45,-4111.09"/>
<polygon fill="#38546c" fill-opacity="0.400000" stroke="#38546c" stroke-width="1.2" stroke-opacity="0.400000" points="2767.98,-4111.54 2773.07,-4120.84 2774.89,-4110.4 2767.98,-4111.54"/>
</g>
<!-- 236 -->
<g id="node33" class="node">
<title>236</title>
<polygon fill="#e1f5fe" stroke="#b3b3b3" stroke-width="1.5" points="1951.64,-564.1 716.14,-564.1 716.14,-448.85 1957.64,-448.85 1957.64,-558.1 1951.64,-564.1"/>
<polyline fill="none" stroke="#b3b3b3" stroke-width="1.5" points="1951.64,-564.1 1951.64,-558.1"/>
<polyline fill="none" stroke="#b3b3b3" stroke-width="1.5" points="1957.64,-558.1 1951.64,-558.1"/>
<text xml:space="preserve" text-anchor="middle" x="1336.89" y="-476.5" font-family="Verdana" font-size="88.00">Header levels normalization</text>
</g>
<!-- 677&#45;&gt;236 -->
<g id="edge24" class="edge">
<title>677&#45;&gt;236</title>
<path fill="none" stroke="#38546c" stroke-width="1.2" stroke-opacity="0.400000" d="M2524.56,-1992.42C2322.21,-1747.3 1597.7,-869.69 1597.7,-869.69 1597.7,-869.69 1461.18,-679.56 1385.68,-574.42"/>
<polygon fill="#38546c" fill-opacity="0.400000" stroke="#38546c" stroke-width="1.2" stroke-opacity="0.400000" points="1388.53,-572.39 1379.85,-566.31 1382.84,-576.47 1388.53,-572.39"/>
</g>
<!-- 498 -->
<g id="node17" class="node">
<title>498</title>
<polygon fill="#ffeaea" stroke="#b3b3b3" stroke-width="1.5" points="7123.13,-2194.17 5765.38,-2194.17 5765.38,-2087.92 7129.13,-2087.92 7129.13,-2188.17 7123.13,-2194.17"/>
<polyline fill="none" stroke="#b3b3b3" stroke-width="1.5" points="7123.13,-2194.17 7123.13,-2188.17"/>
<polyline fill="none" stroke="#b3b3b3" stroke-width="1.5" points="7129.13,-2188.17 7123.13,-2188.17"/>
<text xml:space="preserve" text-anchor="middle" x="6447.26" y="-2114.17" font-family="Verdana" font-size="80.00">Graph Operations and Algorithms</text>
</g>
<!-- 166 -->
<g id="node18" class="node">
<title>166</title>
<polygon fill="#e9f9ef" stroke="#b3b3b3" stroke-width="1.5" points="5730.62,-4388.61 4514.62,-4388.61 4514.62,-4282.36 5736.62,-4282.36 5736.62,-4382.61 5730.62,-4388.61"/>
<polyline fill="none" stroke="#b3b3b3" stroke-width="1.5" points="5730.62,-4388.61 5730.62,-4382.61"/>
<polyline fill="none" stroke="#b3b3b3" stroke-width="1.5" points="5736.62,-4382.61 5730.62,-4382.61"/>
<text xml:space="preserve" text-anchor="middle" x="5125.62" y="-4308.61" font-family="Verdana" font-size="80.00">Document Processing Pipeline</text>
</g>
<!-- 1&#45;&gt;710 -->
<g id="edge30" class="edge">
<title>1&#45;&gt;710</title>
<path fill="none" stroke="#38546c" stroke-width="1.2" stroke-opacity="0.400000" d="M4870.54,-2256.53C4976.27,-1972.69 5436.47,-737.3 5547.3,-439.78"/>
<polygon fill="#38546c" fill-opacity="0.400000" stroke="#38546c" stroke-width="1.2" stroke-opacity="0.400000" points="5550.55,-441.07 5550.76,-430.47 5543.99,-438.62 5550.55,-441.07"/>
</g>
<!-- 1&#45;&gt;991 -->
<g id="edge26" class="edge">
<title>1&#45;&gt;991</title>
<path fill="none" stroke="#38546c" stroke-width="1.2" stroke-opacity="0.400000" d="M4895.06,-2256.68C5079.44,-2024.81 5761.24,-1167.39 5951.64,-927.93"/>
<polygon fill="#38546c" fill-opacity="0.400000" stroke="#38546c" stroke-width="1.2" stroke-opacity="0.400000" points="5954.13,-930.43 5957.61,-920.43 5948.65,-926.08 5954.13,-930.43"/>
</g>
<!-- 1&#45;&gt;498 -->
<g id="edge32" class="edge">
<title>1&#45;&gt;498</title>
<path fill="none" stroke="#38546c" stroke-width="1.2" stroke-opacity="0.400000" d="M5124.96,-2284.82C5348.87,-2260.47 5670.45,-2225.51 5940.41,-2196.15"/>
<polygon fill="#38546c" fill-opacity="0.400000" stroke="#38546c" stroke-width="1.2" stroke-opacity="0.400000" points="5940.64,-2199.65 5950.2,-2195.09 5939.88,-2192.69 5940.64,-2199.65"/>
</g>
<!-- 1&#45;&gt;166 -->
<g id="edge31" class="edge">
<title>1&#45;&gt;166</title>
<path fill="none" stroke="#38546c" stroke-width="1.2" stroke-opacity="0.400000" d="M4856.8,-2373.14C4896.75,-2664.78 5074.67,-3963.58 5116.7,-4270.38"/>
<polygon fill="#38546c" fill-opacity="0.400000" stroke="#38546c" stroke-width="1.2" stroke-opacity="0.400000" points="5113.18,-4270.49 5118.01,-4279.92 5120.12,-4269.54 5113.18,-4270.49"/>
</g>
<!-- 730 -->
<g id="node26" class="node">
<title>730</title>
<polygon fill="#f2fadf" stroke="#b3b3b3" stroke-width="1.5" points="6999.81,-1513.11 5606.06,-1513.11 5606.06,-1406.86 7005.81,-1406.86 7005.81,-1507.11 6999.81,-1513.11"/>
<polyline fill="none" stroke="#b3b3b3" stroke-width="1.5" points="6999.81,-1513.11 6999.81,-1507.11"/>
<polyline fill="none" stroke="#b3b3b3" stroke-width="1.5" points="7005.81,-1507.11 6999.81,-1507.11"/>
<text xml:space="preserve" text-anchor="middle" x="6305.94" y="-1433.11" font-family="Verdana" font-size="80.00">Key System and Cross&#45;References</text>
</g>
<!-- 1&#45;&gt;730 -->
<g id="edge29" class="edge">
<title>1&#45;&gt;730</title>
<path fill="none" stroke="#38546c" stroke-width="1.2" stroke-opacity="0.400000" d="M4948.11,-2256.59C5213.34,-2100.98 5936.39,-1676.79 6204.3,-1519.61"/>
<polygon fill="#38546c" fill-opacity="0.400000" stroke="#38546c" stroke-width="1.2" stroke-opacity="0.400000" points="6205.98,-1522.68 6212.84,-1514.6 6202.44,-1516.64 6205.98,-1522.68"/>
</g>
<!-- 134 -->
<g id="node31" class="node">
<title>134</title>
<polygon fill="#e1f5fe" stroke="#b3b3b3" stroke-width="1.5" points="6437.4,-3528.4 5721.65,-3528.4 5721.65,-3422.15 6443.4,-3422.15 6443.4,-3522.4 6437.4,-3528.4"/>
<polyline fill="none" stroke="#b3b3b3" stroke-width="1.5" points="6437.4,-3528.4 6437.4,-3522.4"/>
<polyline fill="none" stroke="#b3b3b3" stroke-width="1.5" points="6443.4,-3522.4 6437.4,-3522.4"/>
<text xml:space="preserve" text-anchor="middle" x="6082.53" y="-3448.4" font-family="Verdana" font-size="80.00">Core Architecture</text>
</g>
<!-- 1&#45;&gt;134 -->
<g id="edge27" class="edge">
<title>1&#45;&gt;134</title>
<path fill="none" stroke="#38546c" stroke-width="1.2" stroke-opacity="0.400000" d="M4910.84,-2373.18C5120.59,-2570.47 5802.24,-3211.64 6017.06,-3413.7"/>
<polygon fill="#38546c" fill-opacity="0.400000" stroke="#38546c" stroke-width="1.2" stroke-opacity="0.400000" points="6014.41,-3416.01 6024.1,-3420.32 6019.21,-3410.92 6014.41,-3416.01"/>
</g>
<!-- 109 -->
<g id="node34" class="node">
<title>109</title>
<polygon fill="#d9fae7" stroke="#b3b3b3" stroke-width="1.5" points="6113.45,-4029.49 5185.45,-4029.49 5185.45,-3923.24 6119.45,-3923.24 6119.45,-4023.49 6113.45,-4029.49"/>
<polyline fill="none" stroke="#b3b3b3" stroke-width="1.5" points="6113.45,-4029.49 6113.45,-4023.49"/>
<polyline fill="none" stroke="#b3b3b3" stroke-width="1.5" points="6119.45,-4023.49 6113.45,-4023.49"/>
<text xml:space="preserve" text-anchor="middle" x="5652.45" y="-3949.49" font-family="Verdana" font-size="80.00">Data Flow Architecture</text>
</g>
<!-- 1&#45;&gt;109 -->
<g id="edge33" class="edge">
<title>1&#45;&gt;109</title>
<path fill="none" stroke="#38546c" stroke-width="1.2" stroke-opacity="0.400000" d="M4876.94,-2373C5000.31,-2628.06 5493.05,-3646.8 5621.63,-3912.64"/>
<polygon fill="#38546c" fill-opacity="0.400000" stroke="#38546c" stroke-width="1.2" stroke-opacity="0.400000" points="5618.3,-3913.78 5625.8,-3921.26 5624.6,-3910.73 5618.3,-3913.78"/>
</g>
<!-- 509 -->
<g id="node35" class="node">
<title>509</title>
<polygon fill="#ffeaea" stroke="#b3b3b3" stroke-width="1.5" points="6750,-2898.14 5976.5,-2898.14 5976.5,-2791.89 6756,-2791.89 6756,-2892.14 6750,-2898.14"/>
<polyline fill="none" stroke="#b3b3b3" stroke-width="1.5" points="6750,-2898.14 6750,-2892.14"/>
<polyline fill="none" stroke="#b3b3b3" stroke-width="1.5" points="6756,-2892.14 6750,-2892.14"/>
<text xml:space="preserve" text-anchor="middle" x="6366.25" y="-2818.14" font-family="Verdana" font-size="80.00">Advanced Features</text>
</g>
<!-- 1&#45;&gt;509 -->
<g id="edge28" class="edge">
<title>1&#45;&gt;509</title>
<path fill="none" stroke="#38546c" stroke-width="1.2" stroke-opacity="0.400000" d="M5015.55,-2373.1C5308.01,-2475.28 5910,-2685.6 6201.24,-2787.36"/>
<polygon fill="#38546c" fill-opacity="0.400000" stroke="#38546c" stroke-width="1.2" stroke-opacity="0.400000" points="6200.01,-2790.64 6210.6,-2790.63 6202.32,-2784.03 6200.01,-2790.64"/>
</g>
<!-- 12 -->
<g id="node24" class="node">
<title>12</title>
<polygon fill="#f2fadf" stroke="#b3b3b3" stroke-width="1.5" points="2538.51,-5913.02 1873.76,-5913.02 1873.76,-5806.77 2544.51,-5806.77 2544.51,-5907.02 2538.51,-5913.02"/>
<polyline fill="none" stroke="#b3b3b3" stroke-width="1.5" points="2538.51,-5913.02 2538.51,-5907.02"/>
<polyline fill="none" stroke="#b3b3b3" stroke-width="1.5" points="2544.51,-5907.02 2538.51,-5907.02"/>
<text xml:space="preserve" text-anchor="middle" x="2209.14" y="-5833.02" font-family="Verdana" font-size="80.00">Unique Features</text>
</g>
<!-- 1158&#45;&gt;12 -->
<g id="edge34" class="edge">
<title>1158&#45;&gt;12</title>
<path fill="none" stroke="#38546c" stroke-width="1.2" stroke-opacity="0.400000" d="M2763.08,-4239.05C2675.31,-4495.87 2323.38,-5525.6 2231.29,-5795.09"/>
<polygon fill="#38546c" fill-opacity="0.400000" stroke="#38546c" stroke-width="1.2" stroke-opacity="0.400000" points="2227.99,-5793.91 2228.07,-5804.51 2234.61,-5796.17 2227.99,-5793.91"/>
</g>
</g>
</svg>
