<?xml version="1.0" encoding="UTF-8" standalone="no"?>
<!DOCTYPE svg PUBLIC "-//W3C//DTD SVG 1.1//EN"
 "http://www.w3.org/Graphics/SVG/1.1/DTD/svg11.dtd">
<!-- Generated by graphviz version 14.0.0 (20250921.2048)
 -->
<!-- Title: G Pages: 1 -->
<svg width="6833pt" height="5288pt"
 viewBox="0.00 0.00 6833.00 5288.00" xmlns="http://www.w3.org/2000/svg" xmlns:xlink="http://www.w3.org/1999/xlink">
<g id="graph0" class="graph" transform="scale(1 1) rotate(0) translate(36 5273.63)">
<title>G</title>
<polygon fill="white" stroke="none" points="-36,14.4 -36,-5273.63 6796.97,-5273.63 6796.97,14.4 -36,14.4"/>
<!-- 164 -->
<g id="node1" class="node">
<title>164</title>
<polygon fill="#d9fae7" stroke="#b3b3b3" stroke-width="1.5" points="1404.15,-4305.49 476.15,-4305.49 476.15,-4199.24 1410.15,-4199.24 1410.15,-4299.49 1404.15,-4305.49"/>
<polyline fill="none" stroke="#b3b3b3" stroke-width="1.5" points="1404.15,-4305.49 1404.15,-4299.49"/>
<polyline fill="none" stroke="#b3b3b3" stroke-width="1.5" points="1410.15,-4299.49 1404.15,-4299.49"/>
<text xml:space="preserve" text-anchor="middle" x="943.15" y="-4225.49" font-family="Verdana" font-size="80.00">Data Flow Architecture</text>
</g>
<!-- 1 -->
<g id="node2" class="node">
<title>1</title>
<polygon fill="#eef2f5" stroke="#b3b3b3" stroke-width="1.5" points="2794.29,-3850.97 2248.79,-3850.97 2248.79,-3735.72 2800.29,-3735.72 2800.29,-3844.97 2794.29,-3850.97"/>
<polyline fill="none" stroke="#b3b3b3" stroke-width="1.5" points="2794.29,-3850.97 2794.29,-3844.97"/>
<polyline fill="none" stroke="#b3b3b3" stroke-width="1.5" points="2800.29,-3844.97 2794.29,-3844.97"/>
<text xml:space="preserve" text-anchor="middle" x="2524.54" y="-3763.37" font-family="Verdana" font-size="88.00">Architecture</text>
</g>
<!-- 1&#45;&gt;164 -->
<g id="edge2" class="edge">
<title>1&#45;&gt;164</title>
<path fill="none" stroke="#38546c" stroke-width="1.2" stroke-opacity="0.400000" d="M2323.45,-3851.71C2018.38,-3940.26 1442.22,-4107.51 1139.8,-4195.29"/>
<polygon fill="#38546c" fill-opacity="0.400000" stroke="#38546c" stroke-width="1.2" stroke-opacity="0.400000" points="1139.09,-4191.85 1130.46,-4198 1141.04,-4198.57 1139.09,-4191.85"/>
</g>
<!-- 1285 -->
<g id="node5" class="node">
<title>1285</title>
<polygon fill="#dcf7f7" stroke="#b3b3b3" stroke-width="1.5" points="4143.76,-5093.98 3086.01,-5093.98 3086.01,-4987.73 4149.76,-4987.73 4149.76,-5087.98 4143.76,-5093.98"/>
<polyline fill="none" stroke="#b3b3b3" stroke-width="1.5" points="4143.76,-5093.98 4143.76,-5087.98"/>
<polyline fill="none" stroke="#b3b3b3" stroke-width="1.5" points="4149.76,-5087.98 4143.76,-5087.98"/>
<text xml:space="preserve" text-anchor="middle" x="3617.89" y="-5013.98" font-family="Verdana" font-size="80.00">Node Types and Structure</text>
</g>
<!-- 1&#45;&gt;1285 -->
<g id="edge7" class="edge">
<title>1&#45;&gt;1285</title>
<path fill="none" stroke="#38546c" stroke-width="1.2" stroke-opacity="0.400000" d="M2575.44,-3851.42C2757.46,-4059.11 3375.16,-4763.9 3563.15,-4978.4"/>
<polygon fill="#38546c" fill-opacity="0.400000" stroke="#38546c" stroke-width="1.2" stroke-opacity="0.400000" points="3560.3,-4980.45 3569.52,-4985.67 3565.56,-4975.84 3560.3,-4980.45"/>
</g>
<!-- 823 -->
<g id="node17" class="node">
<title>823</title>
<polygon fill="#ffeaea" stroke="#b3b3b3" stroke-width="1.5" points="4781.83,-4809.45 3424.08,-4809.45 3424.08,-4703.2 4787.83,-4703.2 4787.83,-4803.45 4781.83,-4809.45"/>
<polyline fill="none" stroke="#b3b3b3" stroke-width="1.5" points="4781.83,-4809.45 4781.83,-4803.45"/>
<polyline fill="none" stroke="#b3b3b3" stroke-width="1.5" points="4787.83,-4803.45 4781.83,-4803.45"/>
<text xml:space="preserve" text-anchor="middle" x="4105.96" y="-4729.45" font-family="Verdana" font-size="80.00">Graph Operations and Algorithms</text>
</g>
<!-- 1&#45;&gt;823 -->
<g id="edge4" class="edge">
<title>1&#45;&gt;823</title>
<path fill="none" stroke="#38546c" stroke-width="1.2" stroke-opacity="0.400000" d="M2620.19,-3851.59C2901.47,-4022.87 3723.86,-4523.65 4008.02,-4696.69"/>
<polygon fill="#38546c" fill-opacity="0.400000" stroke="#38546c" stroke-width="1.2" stroke-opacity="0.400000" points="4005.99,-4699.55 4016.35,-4701.76 4009.63,-4693.57 4005.99,-4699.55"/>
</g>
<!-- 1059 -->
<g id="node20" class="node">
<title>1059</title>
<polygon fill="#f2fadf" stroke="#b3b3b3" stroke-width="1.5" points="2524.98,-5083.52 1131.23,-5083.52 1131.23,-4977.27 2530.98,-4977.27 2530.98,-5077.52 2524.98,-5083.52"/>
<polyline fill="none" stroke="#b3b3b3" stroke-width="1.5" points="2524.98,-5083.52 2524.98,-5077.52"/>
<polyline fill="none" stroke="#b3b3b3" stroke-width="1.5" points="2530.98,-5077.52 2524.98,-5077.52"/>
<text xml:space="preserve" text-anchor="middle" x="1831.11" y="-5003.52" font-family="Verdana" font-size="80.00">Key System and Cross&#45;References</text>
</g>
<!-- 1&#45;&gt;1059 -->
<g id="edge1" class="edge">
<title>1&#45;&gt;1059</title>
<path fill="none" stroke="#38546c" stroke-width="1.2" stroke-opacity="0.400000" d="M2492.02,-3851.35C2376.63,-4057.2 1987.27,-4751.8 1866.88,-4966.57"/>
<polygon fill="#38546c" fill-opacity="0.400000" stroke="#38546c" stroke-width="1.2" stroke-opacity="0.400000" points="1863.91,-4964.71 1862.07,-4975.15 1870.02,-4968.14 1863.91,-4964.71"/>
</g>
<!-- 1039 -->
<g id="node22" class="node">
<title>1039</title>
<polygon fill="#ffeee0" stroke="#b3b3b3" stroke-width="1.5" points="1339,-3801.22 0,-3801.22 0,-3694.97 1345,-3694.97 1345,-3795.22 1339,-3801.22"/>
<polyline fill="none" stroke="#b3b3b3" stroke-width="1.5" points="1339,-3801.22 1339,-3795.22"/>
<polyline fill="none" stroke="#b3b3b3" stroke-width="1.5" points="1345,-3795.22 1339,-3795.22"/>
<text xml:space="preserve" text-anchor="middle" x="672.5" y="-3721.22" font-family="Verdana" font-size="80.00">Indexing and Reference Systems</text>
</g>
<!-- 1&#45;&gt;1039 -->
<g id="edge3" class="edge">
<title>1&#45;&gt;1039</title>
<path fill="none" stroke="#38546c" stroke-width="1.2" stroke-opacity="0.400000" d="M2248.27,-3786.59C2013.32,-3780.85 1665.89,-3772.37 1357,-3764.82"/>
<polygon fill="#38546c" fill-opacity="0.400000" stroke="#38546c" stroke-width="1.2" stroke-opacity="0.400000" points="1357.46,-3761.33 1347.38,-3764.59 1357.29,-3768.33 1357.46,-3761.33"/>
</g>
<!-- 834 -->
<g id="node23" class="node">
<title>834</title>
<polygon fill="#ffeaea" stroke="#b3b3b3" stroke-width="1.5" points="3444.56,-5250.2 2671.06,-5250.2 2671.06,-5143.95 3450.56,-5143.95 3450.56,-5244.2 3444.56,-5250.2"/>
<polyline fill="none" stroke="#b3b3b3" stroke-width="1.5" points="3444.56,-5250.2 3444.56,-5244.2"/>
<polyline fill="none" stroke="#b3b3b3" stroke-width="1.5" points="3450.56,-5244.2 3444.56,-5244.2"/>
<text xml:space="preserve" text-anchor="middle" x="3060.81" y="-5170.2" font-family="Verdana" font-size="80.00">Advanced Features</text>
</g>
<!-- 1&#45;&gt;834 -->
<g id="edge6" class="edge">
<title>1&#45;&gt;834</title>
<path fill="none" stroke="#38546c" stroke-width="1.2" stroke-opacity="0.400000" d="M2546.73,-3851.43C2632.97,-4077.18 2945.56,-4895.42 3036.09,-5132.37"/>
<polygon fill="#38546c" fill-opacity="0.400000" stroke="#38546c" stroke-width="1.2" stroke-opacity="0.400000" points="3032.74,-5133.42 3039.58,-5141.51 3039.28,-5130.92 3032.74,-5133.42"/>
</g>
<!-- 229 -->
<g id="node28" class="node">
<title>229</title>
<polygon fill="#e9f9ef" stroke="#b3b3b3" stroke-width="1.5" points="1930.25,-4746.36 714.25,-4746.36 714.25,-4640.11 1936.25,-4640.11 1936.25,-4740.36 1930.25,-4746.36"/>
<polyline fill="none" stroke="#b3b3b3" stroke-width="1.5" points="1930.25,-4746.36 1930.25,-4740.36"/>
<polyline fill="none" stroke="#b3b3b3" stroke-width="1.5" points="1936.25,-4740.36 1930.25,-4740.36"/>
<text xml:space="preserve" text-anchor="middle" x="1325.25" y="-4666.36" font-family="Verdana" font-size="80.00">Document Processing Pipeline</text>
</g>
<!-- 1&#45;&gt;229 -->
<g id="edge8" class="edge">
<title>1&#45;&gt;229</title>
<path fill="none" stroke="#38546c" stroke-width="1.2" stroke-opacity="0.400000" d="M2446.77,-3851.69C2230.83,-4013.73 1625.35,-4468.06 1405.94,-4632.69"/>
<polygon fill="#38546c" fill-opacity="0.400000" stroke="#38546c" stroke-width="1.2" stroke-opacity="0.400000" points="1404.08,-4629.72 1398.18,-4638.52 1408.28,-4635.31 1404.08,-4629.72"/>
</g>
<!-- 189 -->
<g id="node38" class="node">
<title>189</title>
<polygon fill="#e1f5fe" stroke="#b3b3b3" stroke-width="1.5" points="2656.68,-5259.23 2183.18,-5259.23 2183.18,-5152.98 2662.68,-5152.98 2662.68,-5253.23 2656.68,-5259.23"/>
<polyline fill="none" stroke="#b3b3b3" stroke-width="1.5" points="2656.68,-5259.23 2656.68,-5253.23"/>
<polyline fill="none" stroke="#b3b3b3" stroke-width="1.5" points="2662.68,-5253.23 2656.68,-5253.23"/>
<text xml:space="preserve" text-anchor="middle" x="2422.93" y="-5179.23" font-family="Verdana" font-size="80.00">Data model</text>
</g>
<!-- 1&#45;&gt;189 -->
<g id="edge5" class="edge">
<title>1&#45;&gt;189</title>
<path fill="none" stroke="#38546c" stroke-width="1.2" stroke-opacity="0.400000" d="M2525.05,-3851.46C2527.14,-4088.95 2534.93,-4973.32 2534.93,-4973.32 2534.93,-4973.32 2534.93,-5087.47 2534.93,-5087.47 2534.93,-5087.47 2508.75,-5115.2 2481.7,-5143.85"/>
<polygon fill="#38546c" fill-opacity="0.400000" stroke="#38546c" stroke-width="1.2" stroke-opacity="0.400000" points="2479.26,-5141.35 2474.94,-5151.02 2484.35,-5146.15 2479.26,-5141.35"/>
</g>
<!-- 272 -->
<g id="node3" class="node">
<title>272</title>
<polygon fill="#ffeee0" stroke="#b3b3b3" stroke-width="1.5" points="3630.35,-115.25 2418.85,-115.25 2418.85,0 3636.35,0 3636.35,-109.25 3630.35,-115.25"/>
<polyline fill="none" stroke="#b3b3b3" stroke-width="1.5" points="3630.35,-115.25 3630.35,-109.25"/>
<polyline fill="none" stroke="#b3b3b3" stroke-width="1.5" points="3636.35,-109.25 3630.35,-109.25"/>
<text xml:space="preserve" text-anchor="middle" x="3027.6" y="-27.65" font-family="Verdana" font-size="88.00">Linking and note templates</text>
</g>
<!-- 625 -->
<g id="node4" class="node">
<title>625</title>
<polygon fill="#e1f5fe" stroke="#b3b3b3" stroke-width="1.5" points="2644.33,-2857.98 1784.58,-2857.98 1784.58,-2742.73 2650.33,-2742.73 2650.33,-2851.98 2644.33,-2857.98"/>
<polyline fill="none" stroke="#b3b3b3" stroke-width="1.5" points="2644.33,-2857.98 2644.33,-2851.98"/>
<polyline fill="none" stroke="#b3b3b3" stroke-width="1.5" points="2650.33,-2851.98 2644.33,-2851.98"/>
<text xml:space="preserve" text-anchor="middle" x="2217.46" y="-2770.38" font-family="Verdana" font-size="88.00">Graph Visualization</text>
</g>
<!-- 574 -->
<g id="node6" class="node">
<title>574</title>
<polygon fill="#e1f5fe" stroke="#b3b3b3" stroke-width="1.5" points="2326.82,-1714.16 1091.32,-1714.16 1091.32,-1598.91 2332.82,-1598.91 2332.82,-1708.16 2326.82,-1714.16"/>
<polyline fill="none" stroke="#b3b3b3" stroke-width="1.5" points="2326.82,-1714.16 2326.82,-1708.16"/>
<polyline fill="none" stroke="#b3b3b3" stroke-width="1.5" points="2332.82,-1708.16 2326.82,-1708.16"/>
<text xml:space="preserve" text-anchor="middle" x="1712.07" y="-1626.56" font-family="Verdana" font-size="88.00">Header levels normalization</text>
</g>
<!-- 568 -->
<g id="node7" class="node">
<title>568</title>
<polygon fill="#eef2f5" stroke="#b3b3b3" stroke-width="1.5" points="1836.29,-877.82 1357.54,-877.82 1357.54,-762.57 1842.29,-762.57 1842.29,-871.82 1836.29,-877.82"/>
<polyline fill="none" stroke="#b3b3b3" stroke-width="1.5" points="1836.29,-877.82 1836.29,-871.82"/>
<polyline fill="none" stroke="#b3b3b3" stroke-width="1.5" points="1842.29,-871.82 1836.29,-871.82"/>
<text xml:space="preserve" text-anchor="middle" x="1599.92" y="-790.22" font-family="Verdana" font-size="88.00">Navigation</text>
</g>
<!-- 588 -->
<g id="node8" class="node">
<title>588</title>
<polygon fill="#ffeee0" stroke="#b3b3b3" stroke-width="1.5" points="4759.4,-863.05 4177.15,-863.05 4177.15,-747.8 4765.4,-747.8 4765.4,-857.05 4759.4,-863.05"/>
<polyline fill="none" stroke="#b3b3b3" stroke-width="1.5" points="4759.4,-863.05 4759.4,-857.05"/>
<polyline fill="none" stroke="#b3b3b3" stroke-width="1.5" points="4765.4,-857.05 4759.4,-857.05"/>
<text xml:space="preserve" text-anchor="middle" x="4471.28" y="-775.45" font-family="Verdana" font-size="88.00">Notes search</text>
</g>
<!-- 90 -->
<g id="node9" class="node">
<title>90</title>
<polygon fill="#fbfbda" stroke="#b3b3b3" stroke-width="1.5" points="3006.51,-405 2405.51,-405 2405.51,-289.75 3012.51,-289.75 3012.51,-399 3006.51,-405"/>
<polyline fill="none" stroke="#b3b3b3" stroke-width="1.5" points="3006.51,-405 3006.51,-399"/>
<polyline fill="none" stroke="#b3b3b3" stroke-width="1.5" points="3012.51,-399 3006.51,-399"/>
<text xml:space="preserve" text-anchor="middle" x="2709.01" y="-317.4" font-family="Verdana" font-size="88.00">Configuration</text>
</g>
<!-- 698 -->
<g id="node10" class="node">
<title>698</title>
<polygon fill="#ffeee0" stroke="#b3b3b3" stroke-width="1.5" points="4733.4,-485.65 3468.65,-485.65 3468.65,-370.4 4739.4,-370.4 4739.4,-479.65 4733.4,-485.65"/>
<polyline fill="none" stroke="#b3b3b3" stroke-width="1.5" points="4733.4,-485.65 4733.4,-479.65"/>
<polyline fill="none" stroke="#b3b3b3" stroke-width="1.5" points="4739.4,-479.65 4733.4,-479.65"/>
<text xml:space="preserve" text-anchor="middle" x="4104.03" y="-398.05" font-family="Verdana" font-size="88.00">How to use in command line</text>
</g>
<!-- 544 -->
<g id="node11" class="node">
<title>544</title>
<polygon fill="#f2fadf" stroke="#b3b3b3" stroke-width="1.5" points="3571.82,-764.65 3030.82,-764.65 3030.82,-649.4 3577.82,-649.4 3577.82,-758.65 3571.82,-764.65"/>
<polyline fill="none" stroke="#b3b3b3" stroke-width="1.5" points="3571.82,-764.65 3571.82,-758.65"/>
<polyline fill="none" stroke="#b3b3b3" stroke-width="1.5" points="3577.82,-758.65 3571.82,-758.65"/>
<text xml:space="preserve" text-anchor="middle" x="3304.32" y="-677.05" font-family="Verdana" font-size="88.00">Inline Notes</text>
</g>
<!-- 219 -->
<g id="node12" class="node">
<title>219</title>
<polygon fill="#f2fadf" stroke="#b3b3b3" stroke-width="1.5" points="1708.11,-1367.92 948.86,-1367.92 948.86,-1252.67 1714.11,-1252.67 1714.11,-1361.92 1708.11,-1367.92"/>
<polyline fill="none" stroke="#b3b3b3" stroke-width="1.5" points="1708.11,-1367.92 1708.11,-1361.92"/>
<polyline fill="none" stroke="#b3b3b3" stroke-width="1.5" points="1714.11,-1361.92 1708.11,-1361.92"/>
<text xml:space="preserve" text-anchor="middle" x="1331.48" y="-1280.32" font-family="Verdana" font-size="88.00">Design principles</text>
</g>
<!-- 347 -->
<g id="node13" class="node">
<title>347</title>
<polygon fill="#f6e5ee" stroke="#b3b3b3" stroke-width="1.5" points="5087.51,-1777.59 4431.76,-1777.59 4431.76,-1662.34 5093.51,-1662.34 5093.51,-1771.59 5087.51,-1777.59"/>
<polyline fill="none" stroke="#b3b3b3" stroke-width="1.5" points="5087.51,-1777.59 5087.51,-1771.59"/>
<polyline fill="none" stroke="#b3b3b3" stroke-width="1.5" points="5093.51,-1771.59 5087.51,-1771.59"/>
<text xml:space="preserve" text-anchor="middle" x="4762.64" y="-1689.99" font-family="Verdana" font-size="88.00">Auto&#45;complete</text>
</g>
<!-- 1449 -->
<g id="node14" class="node">
<title>1449</title>
<polygon fill="#dcf7f7" stroke="#b3b3b3" stroke-width="1.5" points="5231.63,-2394.51 4653.13,-2394.51 4653.13,-2279.26 5237.63,-2279.26 5237.63,-2388.51 5231.63,-2394.51"/>
<polyline fill="none" stroke="#b3b3b3" stroke-width="1.5" points="5231.63,-2394.51 5231.63,-2388.51"/>
<polyline fill="none" stroke="#b3b3b3" stroke-width="1.5" points="5237.63,-2388.51 5231.63,-2388.51"/>
<text xml:space="preserve" text-anchor="middle" x="4945.38" y="-2306.91" font-family="Verdana" font-size="88.00">Why it exists</text>
</g>
<!-- 12 -->
<g id="node35" class="node">
<title>12</title>
<polygon fill="#f2fadf" stroke="#b3b3b3" stroke-width="1.5" points="6754.97,-2634.38 6090.22,-2634.38 6090.22,-2528.13 6760.97,-2528.13 6760.97,-2628.38 6754.97,-2634.38"/>
<polyline fill="none" stroke="#b3b3b3" stroke-width="1.5" points="6754.97,-2634.38 6754.97,-2628.38"/>
<polyline fill="none" stroke="#b3b3b3" stroke-width="1.5" points="6760.97,-2628.38 6754.97,-2628.38"/>
<text xml:space="preserve" text-anchor="middle" x="6425.6" y="-2554.38" font-family="Verdana" font-size="80.00">Unique Features</text>
</g>
<!-- 1449&#45;&gt;12 -->
<g id="edge9" class="edge">
<title>1449&#45;&gt;12</title>
<path fill="none" stroke="#38546c" stroke-width="1.2" stroke-opacity="0.400000" d="M5238.27,-2385.24C5482.9,-2425.62 5831.85,-2483.23 6088.16,-2525.55"/>
<polygon fill="#38546c" fill-opacity="0.400000" stroke="#38546c" stroke-width="1.2" stroke-opacity="0.400000" points="6087.3,-2528.95 6097.73,-2527.13 6088.44,-2522.05 6087.3,-2528.95"/>
</g>
<!-- 207 -->
<g id="node15" class="node">
<title>207</title>
<polygon fill="#eef2f5" stroke="#b3b3b3" stroke-width="1.5" points="3924.7,-3271.13 3364.2,-3271.13 3364.2,-3155.88 3930.7,-3155.88 3930.7,-3265.13 3924.7,-3271.13"/>
<polyline fill="none" stroke="#b3b3b3" stroke-width="1.5" points="3924.7,-3271.13 3924.7,-3265.13"/>
<polyline fill="none" stroke="#b3b3b3" stroke-width="1.5" points="3930.7,-3265.13 3924.7,-3265.13"/>
<text xml:space="preserve" text-anchor="middle" x="3647.45" y="-3183.53" font-family="Verdana" font-size="88.00">Debug Mode</text>
</g>
<!-- 267 -->
<g id="node16" class="node">
<title>267</title>
<polygon fill="#f6e5ee" stroke="#b3b3b3" stroke-width="1.5" points="4349.98,-1103.5 3367.23,-1103.5 3367.23,-988.25 4355.98,-988.25 4355.98,-1097.5 4349.98,-1103.5"/>
<polyline fill="none" stroke="#b3b3b3" stroke-width="1.5" points="4349.98,-1103.5 4349.98,-1097.5"/>
<polyline fill="none" stroke="#b3b3b3" stroke-width="1.5" points="4355.98,-1097.5 4349.98,-1097.5"/>
<text xml:space="preserve" text-anchor="middle" x="3861.61" y="-1015.9" font-family="Verdana" font-size="88.00">Custom AI commands</text>
</g>
<!-- 350 -->
<g id="node18" class="node">
<title>350</title>
<polygon fill="#eef2f5" stroke="#b3b3b3" stroke-width="1.5" points="1929.8,-2533.51 1332.55,-2533.51 1332.55,-2418.26 1935.8,-2418.26 1935.8,-2527.51 1929.8,-2533.51"/>
<polyline fill="none" stroke="#b3b3b3" stroke-width="1.5" points="1929.8,-2533.51 1929.8,-2527.51"/>
<polyline fill="none" stroke="#b3b3b3" stroke-width="1.5" points="1935.8,-2527.51 1929.8,-2527.51"/>
<text xml:space="preserve" text-anchor="middle" x="1634.17" y="-2445.91" font-family="Verdana" font-size="88.00">Delete Action</text>
</g>
<!-- 1310 -->
<g id="node19" class="node">
<title>1310</title>
<polygon fill="#ffeee0" stroke="#b3b3b3" stroke-width="1.5" points="1508.5,-2044.27 1125.75,-2044.27 1125.75,-1929.02 1514.5,-1929.02 1514.5,-2038.27 1508.5,-2044.27"/>
<polyline fill="none" stroke="#b3b3b3" stroke-width="1.5" points="1508.5,-2044.27 1508.5,-2038.27"/>
<polyline fill="none" stroke="#b3b3b3" stroke-width="1.5" points="1514.5,-2038.27 1508.5,-2038.27"/>
<text xml:space="preserve" text-anchor="middle" x="1320.13" y="-1956.67" font-family="Verdana" font-size="88.00">VS Code</text>
</g>
<!-- 874 -->
<g id="node21" class="node">
<title>874</title>
<polygon fill="#e2f6f6" stroke="#b3b3b3" stroke-width="1.5" points="2533.58,-1329.96 1922.83,-1329.96 1922.83,-1214.71 2539.58,-1214.71 2539.58,-1323.96 2533.58,-1329.96"/>
<polyline fill="none" stroke="#b3b3b3" stroke-width="1.5" points="2533.58,-1329.96 2533.58,-1323.96"/>
<polyline fill="none" stroke="#b3b3b3" stroke-width="1.5" points="2539.58,-1323.96 2533.58,-1323.96"/>
<text xml:space="preserve" text-anchor="middle" x="2231.2" y="-1242.36" font-family="Verdana" font-size="88.00">How to install</text>
</g>
<!-- 596 -->
<g id="node24" class="node">
<title>596</title>
<polygon fill="#eeebfa" stroke="#b3b3b3" stroke-width="1.5" points="4743.22,-3013.58 4061.22,-3013.58 4061.22,-2898.33 4749.22,-2898.33 4749.22,-3007.58 4743.22,-3013.58"/>
<polyline fill="none" stroke="#b3b3b3" stroke-width="1.5" points="4743.22,-3013.58 4743.22,-3007.58"/>
<polyline fill="none" stroke="#b3b3b3" stroke-width="1.5" points="4749.22,-3007.58 4743.22,-3007.58"/>
<text xml:space="preserve" text-anchor="middle" x="4405.22" y="-2925.98" font-family="Verdana" font-size="88.00">Sub&#45;directories</text>
</g>
<!-- 1148 -->
<g id="node25" class="node">
<title>1148</title>
<polygon fill="#dcf7f7" stroke="#b3b3b3" stroke-width="1.5" points="3070.65,-3073.07 2727.65,-3073.07 2727.65,-2957.82 3076.65,-2957.82 3076.65,-3067.07 3070.65,-3073.07"/>
<polyline fill="none" stroke="#b3b3b3" stroke-width="1.5" points="3070.65,-3073.07 3070.65,-3067.07"/>
<polyline fill="none" stroke="#b3b3b3" stroke-width="1.5" points="3076.65,-3067.07 3070.65,-3067.07"/>
<text xml:space="preserve" text-anchor="middle" x="2902.15" y="-2985.47" font-family="Verdana" font-size="88.00">Neovim</text>
</g>
<!-- 585 -->
<g id="node26" class="node">
<title>585</title>
<polygon fill="#dcf7f7" stroke="#b3b3b3" stroke-width="1.5" points="3944.77,-242.31 3289.77,-242.31 3289.77,-127.06 3950.77,-127.06 3950.77,-236.31 3944.77,-242.31"/>
<polyline fill="none" stroke="#b3b3b3" stroke-width="1.5" points="3944.77,-242.31 3944.77,-236.31"/>
<polyline fill="none" stroke="#b3b3b3" stroke-width="1.5" points="3950.77,-236.31 3944.77,-236.31"/>
<text xml:space="preserve" text-anchor="middle" x="3620.27" y="-154.71" font-family="Verdana" font-size="88.00">Files renaming</text>
</g>
<!-- 861 -->
<g id="node27" class="node">
<title>861</title>
<polygon fill="#d9fae7" stroke="#b3b3b3" stroke-width="1.5" points="4509.05,-2392.02 4280.8,-2392.02 4280.8,-2276.77 4515.05,-2276.77 4515.05,-2386.02 4509.05,-2392.02"/>
<polyline fill="none" stroke="#b3b3b3" stroke-width="1.5" points="4509.05,-2392.02 4509.05,-2386.02"/>
<polyline fill="none" stroke="#b3b3b3" stroke-width="1.5" points="4515.05,-2386.02 4509.05,-2386.02"/>
<text xml:space="preserve" text-anchor="middle" x="4397.92" y="-2304.42" font-family="Verdana" font-size="88.00">Helix</text>
</g>
<!-- 246 -->
<g id="node29" class="node">
<title>246</title>
<polygon fill="#eef2f5" stroke="#b3b3b3" stroke-width="1.5" points="2832.25,-774.37 1851,-774.37 1851,-659.12 2838.25,-659.12 2838.25,-768.37 2832.25,-774.37"/>
<polyline fill="none" stroke="#b3b3b3" stroke-width="1.5" points="2832.25,-774.37 2832.25,-768.37"/>
<polyline fill="none" stroke="#b3b3b3" stroke-width="1.5" points="2838.25,-768.37 2832.25,-768.37"/>
<text xml:space="preserve" text-anchor="middle" x="2344.62" y="-686.77" font-family="Verdana" font-size="88.00">Basic journal example</text>
</g>
<!-- 618 -->
<g id="node30" class="node">
<title>618</title>
<polygon fill="#eef2f5" stroke="#b3b3b3" stroke-width="1.5" points="5098.88,-1289.33 4302.88,-1289.33 4302.88,-1174.08 5104.88,-1174.08 5104.88,-1283.33 5098.88,-1289.33"/>
<polyline fill="none" stroke="#b3b3b3" stroke-width="1.5" points="5098.88,-1289.33 5098.88,-1283.33"/>
<polyline fill="none" stroke="#b3b3b3" stroke-width="1.5" points="5104.88,-1283.33 5098.88,-1283.33"/>
<text xml:space="preserve" text-anchor="middle" x="4703.88" y="-1201.73" font-family="Verdana" font-size="88.00">Text manipulation</text>
</g>
<!-- 887 -->
<g id="node31" class="node">
<title>887</title>
<polygon fill="#e9f9ef" stroke="#b3b3b3" stroke-width="1.5" points="4660.31,-2857.59 3219.31,-2857.59 3219.31,-2742.34 4666.31,-2742.34 4666.31,-2851.59 4660.31,-2857.59"/>
<polyline fill="none" stroke="#b3b3b3" stroke-width="1.5" points="4660.31,-2857.59 4660.31,-2851.59"/>
<polyline fill="none" stroke="#b3b3b3" stroke-width="1.5" points="4666.31,-2851.59 4660.31,-2851.59"/>
<text xml:space="preserve" text-anchor="middle" x="3942.81" y="-2769.99" font-family="Verdana" font-size="88.00">How to use with your text editor</text>
</g>
<!-- 540 -->
<g id="node32" class="node">
<title>540</title>
<polygon fill="#fae1ee" stroke="#b3b3b3" stroke-width="1.5" points="4327.51,-1791.59 3851.01,-1791.59 3851.01,-1676.34 4333.51,-1676.34 4333.51,-1785.59 4327.51,-1791.59"/>
<polyline fill="none" stroke="#b3b3b3" stroke-width="1.5" points="4327.51,-1791.59 4327.51,-1785.59"/>
<polyline fill="none" stroke="#b3b3b3" stroke-width="1.5" points="4333.51,-1785.59 4327.51,-1785.59"/>
<text xml:space="preserve" text-anchor="middle" x="4092.26" y="-1703.99" font-family="Verdana" font-size="88.00">Inlay hints</text>
</g>
<!-- 375 -->
<g id="node33" class="node">
<title>375</title>
<polygon fill="#fae1ee" stroke="#b3b3b3" stroke-width="1.5" points="2391.44,-384.43 1721.44,-384.43 1721.44,-269.18 2397.44,-269.18 2397.44,-378.43 2391.44,-384.43"/>
<polyline fill="none" stroke="#b3b3b3" stroke-width="1.5" points="2391.44,-384.43 2391.44,-378.43"/>
<polyline fill="none" stroke="#b3b3b3" stroke-width="1.5" points="2397.44,-378.43 2391.44,-378.43"/>
<text xml:space="preserve" text-anchor="middle" x="2059.44" y="-296.83" font-family="Verdana" font-size="88.00">Extract Actions</text>
</g>
<!-- 1077 -->
<g id="node34" class="node">
<title>1077</title>
<polygon fill="#fff9de" stroke="#b3b3b3" stroke-width="1.5" points="2542.94,-2272.85 1812.94,-2272.85 1812.94,-2157.6 2548.94,-2157.6 2548.94,-2266.85 2542.94,-2272.85"/>
<polyline fill="none" stroke="#b3b3b3" stroke-width="1.5" points="2542.94,-2272.85 2542.94,-2266.85"/>
<polyline fill="none" stroke="#b3b3b3" stroke-width="1.5" points="2548.94,-2266.85 2542.94,-2266.85"/>
<text xml:space="preserve" text-anchor="middle" x="2180.94" y="-2185.25" font-family="Verdana" font-size="88.00">Maps of Content</text>
</g>
<!-- 1002 -->
<g id="node36" class="node">
<title>1002</title>
<polygon fill="#f6e5ee" stroke="#b3b3b3" stroke-width="1.5" points="3196.32,-1878.88 2989.82,-1878.88 2989.82,-1753.88 3202.32,-1753.88 3202.32,-1872.88 3196.32,-1878.88"/>
<polyline fill="none" stroke="#b3b3b3" stroke-width="1.5" points="3196.32,-1878.88 3196.32,-1872.88"/>
<polyline fill="none" stroke="#b3b3b3" stroke-width="1.5" points="3202.32,-1872.88 3196.32,-1872.88"/>
<text xml:space="preserve" text-anchor="middle" x="3096.07" y="-1783.68" font-family="Verdana" font-size="96.00">IWE</text>
</g>
<!-- 1002&#45;&gt;1 -->
<g id="edge27" class="edge">
<title>1002&#45;&gt;1</title>
<path fill="none" stroke="#38546c" stroke-width="1.2" stroke-opacity="0.400000" d="M3027.58,-1879.39C2839.38,-2052.55 2328.16,-2522.88 2328.16,-2522.88 2328.16,-2522.88 2328.16,-2646.03 2328.16,-2646.03 2328.16,-2646.03 2654.28,-2738.78 2654.28,-2738.78 2654.28,-2738.78 2654.28,-2861.93 2654.28,-2861.93 2654.28,-2861.93 2564.4,-3507.21 2534.25,-3723.58"/>
<polygon fill="#38546c" fill-opacity="0.400000" stroke="#38546c" stroke-width="1.2" stroke-opacity="0.400000" points="2530.82,-3722.89 2532.9,-3733.28 2537.75,-3723.86 2530.82,-3722.89"/>
</g>
<!-- 1002&#45;&gt;272 -->
<g id="edge34" class="edge">
<title>1002&#45;&gt;272</title>
<path fill="none" stroke="#38546c" stroke-width="1.2" stroke-opacity="0.400000" d="M3091.9,-1753.2C3076.93,-1526.66 3026.87,-768.6 3026.87,-768.6 3026.87,-768.6 3026.87,-645.45 3026.87,-645.45 3026.87,-645.45 3027.32,-283.46 3027.51,-127.62"/>
<polygon fill="#38546c" fill-opacity="0.400000" stroke="#38546c" stroke-width="1.2" stroke-opacity="0.400000" points="3031.01,-127.69 3027.53,-117.68 3024.01,-127.68 3031.01,-127.69"/>
</g>
<!-- 1002&#45;&gt;625 -->
<g id="edge35" class="edge">
<title>1002&#45;&gt;625</title>
<path fill="none" stroke="#38546c" stroke-width="1.2" stroke-opacity="0.400000" d="M3027.58,-1879.39C2839.38,-2052.55 2328.16,-2522.88 2328.16,-2522.88 2328.16,-2522.88 2277.76,-2649.22 2244.97,-2731.4"/>
<polygon fill="#38546c" fill-opacity="0.400000" stroke="#38546c" stroke-width="1.2" stroke-opacity="0.400000" points="2241.79,-2729.91 2241.34,-2740.5 2248.3,-2732.51 2241.79,-2729.91"/>
</g>
<!-- 1002&#45;&gt;574 -->
<g id="edge18" class="edge">
<title>1002&#45;&gt;574</title>
<path fill="none" stroke="#38546c" stroke-width="1.2" stroke-opacity="0.400000" d="M2989.19,-1804.04C2826.91,-1785.29 2507.72,-1748.43 2229.05,-1716.24"/>
<polygon fill="#38546c" fill-opacity="0.400000" stroke="#38546c" stroke-width="1.2" stroke-opacity="0.400000" points="2229.62,-1712.78 2219.29,-1715.11 2228.82,-1719.74 2229.62,-1712.78"/>
</g>
<!-- 1002&#45;&gt;568 -->
<g id="edge12" class="edge">
<title>1002&#45;&gt;568</title>
<path fill="none" stroke="#38546c" stroke-width="1.2" stroke-opacity="0.400000" d="M3038.5,-1753.28C2896.98,-1598.17 2543.53,-1210.76 2543.53,-1210.76 2543.53,-1210.76 2018.2,-993.33 1751.48,-882.93"/>
<polygon fill="#38546c" fill-opacity="0.400000" stroke="#38546c" stroke-width="1.2" stroke-opacity="0.400000" points="1753.19,-879.85 1742.61,-879.26 1750.51,-886.32 1753.19,-879.85"/>
</g>
<!-- 1002&#45;&gt;588 -->
<g id="edge29" class="edge">
<title>1002&#45;&gt;588</title>
<path fill="none" stroke="#38546c" stroke-width="1.2" stroke-opacity="0.400000" d="M3203.01,-1756.39C3507.94,-1585.35 4359.93,-1107.45 4359.93,-1107.45 4359.93,-1107.45 4412.94,-963.67 4445.81,-874.52"/>
<polygon fill="#38546c" fill-opacity="0.400000" stroke="#38546c" stroke-width="1.2" stroke-opacity="0.400000" points="4449,-875.96 4449.18,-865.36 4442.44,-873.54 4449,-875.96"/>
</g>
<!-- 1002&#45;&gt;90 -->
<g id="edge32" class="edge">
<title>1002&#45;&gt;90</title>
<path fill="none" stroke="#38546c" stroke-width="1.2" stroke-opacity="0.400000" d="M3082.33,-1753.54C3029.48,-1511.78 2842.2,-655.17 2842.2,-655.17 2842.2,-655.17 2778.14,-507.14 2738.88,-416.4"/>
<polygon fill="#38546c" fill-opacity="0.400000" stroke="#38546c" stroke-width="1.2" stroke-opacity="0.400000" points="2742.12,-415.08 2734.94,-407.3 2735.7,-417.86 2742.12,-415.08"/>
</g>
<!-- 1002&#45;&gt;698 -->
<g id="edge19" class="edge">
<title>1002&#45;&gt;698</title>
<path fill="none" stroke="#38546c" stroke-width="1.2" stroke-opacity="0.400000" d="M3116.37,-1753.16C3178.73,-1558.98 3363.28,-984.3 3363.28,-984.3 3363.28,-984.3 3821.42,-640.25 4017.1,-493.3"/>
<polygon fill="#38546c" fill-opacity="0.400000" stroke="#38546c" stroke-width="1.2" stroke-opacity="0.400000" points="4019.16,-496.14 4025.05,-487.34 4014.95,-490.54 4019.16,-496.14"/>
</g>
<!-- 1002&#45;&gt;544 -->
<g id="edge14" class="edge">
<title>1002&#45;&gt;544</title>
<path fill="none" stroke="#38546c" stroke-width="1.2" stroke-opacity="0.400000" d="M3107.94,-1753.15C3144.19,-1560.04 3253.3,-978.82 3291.19,-776.98"/>
<polygon fill="#38546c" fill-opacity="0.400000" stroke="#38546c" stroke-width="1.2" stroke-opacity="0.400000" points="3294.62,-777.64 3293.03,-767.16 3287.74,-776.35 3294.62,-777.64"/>
</g>
<!-- 1002&#45;&gt;219 -->
<g id="edge36" class="edge">
<title>1002&#45;&gt;219</title>
<path fill="none" stroke="#38546c" stroke-width="1.2" stroke-opacity="0.400000" d="M2989.29,-1785.24C2780.15,-1724.25 2336.77,-1594.96 2336.77,-1594.96 2336.77,-1594.96 1844.2,-1455.48 1548.64,-1371.78"/>
<polygon fill="#38546c" fill-opacity="0.400000" stroke="#38546c" stroke-width="1.2" stroke-opacity="0.400000" points="1549.66,-1368.44 1539.09,-1369.08 1547.76,-1375.17 1549.66,-1368.44"/>
</g>
<!-- 1002&#45;&gt;347 -->
<g id="edge21" class="edge">
<title>1002&#45;&gt;347</title>
<path fill="none" stroke="#38546c" stroke-width="1.2" stroke-opacity="0.400000" d="M3202.98,-1814.58C3504.1,-1809.53 4337.46,-1795.54 4337.46,-1795.54 4337.46,-1795.54 4372.68,-1789.28 4422.84,-1780.36"/>
<polygon fill="#38546c" fill-opacity="0.400000" stroke="#38546c" stroke-width="1.2" stroke-opacity="0.400000" points="4423.45,-1783.81 4432.69,-1778.61 4422.23,-1776.92 4423.45,-1783.81"/>
</g>
<!-- 1002&#45;&gt;1449 -->
<g id="edge20" class="edge">
<title>1002&#45;&gt;1449</title>
<path fill="none" stroke="#38546c" stroke-width="1.2" stroke-opacity="0.400000" d="M3202.81,-1846.42C3497.75,-1929.44 4328.26,-2163.19 4726.74,-2275.34"/>
<polygon fill="#38546c" fill-opacity="0.400000" stroke="#38546c" stroke-width="1.2" stroke-opacity="0.400000" points="4725.79,-2278.71 4736.36,-2278.05 4727.68,-2271.97 4725.79,-2278.71"/>
</g>
<!-- 1002&#45;&gt;207 -->
<g id="edge13" class="edge">
<title>1002&#45;&gt;207</title>
<path fill="none" stroke="#38546c" stroke-width="1.2" stroke-opacity="0.400000" d="M3027.58,-1879.39C2839.38,-2052.55 2328.16,-2522.88 2328.16,-2522.88 2328.16,-2522.88 2328.16,-2646.03 2328.16,-2646.03 2328.16,-2646.03 2654.28,-2738.78 2654.28,-2738.78 2654.28,-2738.78 3245.17,-3021.22 3515.4,-3150.39"/>
<polygon fill="#38546c" fill-opacity="0.400000" stroke="#38546c" stroke-width="1.2" stroke-opacity="0.400000" points="3513.5,-3153.36 3524.03,-3154.51 3516.52,-3147.04 3513.5,-3153.36"/>
</g>
<!-- 1002&#45;&gt;267 -->
<g id="edge16" class="edge">
<title>1002&#45;&gt;267</title>
<path fill="none" stroke="#38546c" stroke-width="1.2" stroke-opacity="0.400000" d="M3158.72,-1753.33C3301.44,-1609.67 3649.68,-1259.17 3795.59,-1112.32"/>
<polygon fill="#38546c" fill-opacity="0.400000" stroke="#38546c" stroke-width="1.2" stroke-opacity="0.400000" points="3797.8,-1115.06 3802.36,-1105.5 3792.83,-1110.13 3797.8,-1115.06"/>
</g>
<!-- 1002&#45;&gt;350 -->
<g id="edge37" class="edge">
<title>1002&#45;&gt;350</title>
<path fill="none" stroke="#38546c" stroke-width="1.2" stroke-opacity="0.400000" d="M3021.68,-1879.43C2872.92,-2005.53 2552.89,-2276.8 2552.89,-2276.8 2552.89,-2276.8 2184.69,-2356.59 1914.48,-2415.14"/>
<polygon fill="#38546c" fill-opacity="0.400000" stroke="#38546c" stroke-width="1.2" stroke-opacity="0.400000" points="1914.11,-2411.64 1905.08,-2417.18 1915.59,-2418.48 1914.11,-2411.64"/>
</g>
<!-- 1002&#45;&gt;1310 -->
<g id="edge25" class="edge">
<title>1002&#45;&gt;1310</title>
<path fill="none" stroke="#38546c" stroke-width="1.2" stroke-opacity="0.400000" d="M2989.31,-1826.62C2701.53,-1854.21 1905.96,-1930.48 1526.57,-1966.85"/>
<polygon fill="#38546c" fill-opacity="0.400000" stroke="#38546c" stroke-width="1.2" stroke-opacity="0.400000" points="1526.34,-1963.36 1516.72,-1967.8 1527.01,-1970.33 1526.34,-1963.36"/>
</g>
<!-- 1002&#45;&gt;874 -->
<g id="edge30" class="edge">
<title>1002&#45;&gt;874</title>
<path fill="none" stroke="#38546c" stroke-width="1.2" stroke-opacity="0.400000" d="M2995.59,-1753.17C2829.75,-1648.85 2500.5,-1441.74 2333.48,-1336.67"/>
<polygon fill="#38546c" fill-opacity="0.400000" stroke="#38546c" stroke-width="1.2" stroke-opacity="0.400000" points="2335.56,-1333.85 2325.23,-1331.48 2331.83,-1339.77 2335.56,-1333.85"/>
</g>
<!-- 1002&#45;&gt;596 -->
<g id="edge24" class="edge">
<title>1002&#45;&gt;596</title>
<path fill="none" stroke="#38546c" stroke-width="1.2" stroke-opacity="0.400000" d="M3203.03,-1879.03C3557.34,-2086.55 4670.26,-2738.39 4670.26,-2738.39 4670.26,-2738.39 4670.26,-2861.54 4670.26,-2861.54 4670.26,-2861.54 4629.51,-2876.06 4579.96,-2893.71"/>
<polygon fill="#38546c" fill-opacity="0.400000" stroke="#38546c" stroke-width="1.2" stroke-opacity="0.400000" points="4578.89,-2890.38 4570.64,-2897.03 4581.23,-2896.97 4578.89,-2890.38"/>
</g>
<!-- 1002&#45;&gt;1148 -->
<g id="edge28" class="edge">
<title>1002&#45;&gt;1148</title>
<path fill="none" stroke="#38546c" stroke-width="1.2" stroke-opacity="0.400000" d="M3027.58,-1879.39C2839.38,-2052.55 2328.16,-2522.88 2328.16,-2522.88 2328.16,-2522.88 2328.16,-2646.03 2328.16,-2646.03 2328.16,-2646.03 2654.28,-2738.78 2654.28,-2738.78 2654.28,-2738.78 2768.67,-2866.46 2842.03,-2948.35"/>
<polygon fill="#38546c" fill-opacity="0.400000" stroke="#38546c" stroke-width="1.2" stroke-opacity="0.400000" points="2839.39,-2950.64 2848.67,-2955.76 2844.61,-2945.97 2839.39,-2950.64"/>
</g>
<!-- 1002&#45;&gt;585 -->
<g id="edge11" class="edge">
<title>1002&#45;&gt;585</title>
<path fill="none" stroke="#38546c" stroke-width="1.2" stroke-opacity="0.400000" d="M3116.37,-1753.16C3178.73,-1558.98 3363.28,-984.3 3363.28,-984.3 3363.28,-984.3 3581.77,-768.6 3581.77,-768.6 3581.77,-768.6 3581.77,-645.45 3581.77,-645.45 3581.77,-645.45 3464.7,-489.6 3464.7,-489.6 3464.7,-489.6 3464.7,-366.45 3464.7,-366.45 3464.7,-366.45 3518.5,-303.6 3562.82,-251.81"/>
<polygon fill="#38546c" fill-opacity="0.400000" stroke="#38546c" stroke-width="1.2" stroke-opacity="0.400000" points="3565.38,-254.2 3569.23,-244.33 3560.07,-249.65 3565.38,-254.2"/>
</g>
<!-- 1002&#45;&gt;861 -->
<g id="edge17" class="edge">
<title>1002&#45;&gt;861</title>
<path fill="none" stroke="#38546c" stroke-width="1.2" stroke-opacity="0.400000" d="M3202.88,-1858.88C3440.59,-1953.47 4012.53,-2181.05 4269.31,-2283.22"/>
<polygon fill="#38546c" fill-opacity="0.400000" stroke="#38546c" stroke-width="1.2" stroke-opacity="0.400000" points="4267.91,-2286.43 4278.49,-2286.88 4270.5,-2279.93 4267.91,-2286.43"/>
</g>
<!-- 1002&#45;&gt;246 -->
<g id="edge22" class="edge">
<title>1002&#45;&gt;246</title>
<path fill="none" stroke="#38546c" stroke-width="1.2" stroke-opacity="0.400000" d="M3052.97,-1753.31C2921.56,-1561 2526.65,-983.11 2390.98,-784.59"/>
<polygon fill="#38546c" fill-opacity="0.400000" stroke="#38546c" stroke-width="1.2" stroke-opacity="0.400000" points="2393.89,-782.64 2385.36,-776.36 2388.11,-786.59 2393.89,-782.64"/>
</g>
<!-- 1002&#45;&gt;618 -->
<g id="edge15" class="edge">
<title>1002&#45;&gt;618</title>
<path fill="none" stroke="#38546c" stroke-width="1.2" stroke-opacity="0.400000" d="M3202.81,-1777.56C3475.66,-1678.34 4200.48,-1414.76 4532.92,-1293.87"/>
<polygon fill="#38546c" fill-opacity="0.400000" stroke="#38546c" stroke-width="1.2" stroke-opacity="0.400000" points="4533.7,-1297.31 4541.9,-1290.61 4531.31,-1290.73 4533.7,-1297.31"/>
</g>
<!-- 1002&#45;&gt;887 -->
<g id="edge10" class="edge">
<title>1002&#45;&gt;887</title>
<path fill="none" stroke="#38546c" stroke-width="1.2" stroke-opacity="0.400000" d="M3190.85,-1879.39C3451.32,-2052.55 4158.81,-2522.88 4158.81,-2522.88 4158.81,-2522.88 4158.81,-2646.03 4158.81,-2646.03 4158.81,-2646.03 4092.88,-2693.01 4033.88,-2735.07"/>
<polygon fill="#38546c" fill-opacity="0.400000" stroke="#38546c" stroke-width="1.2" stroke-opacity="0.400000" points="4032.07,-2732.06 4025.95,-2740.71 4036.13,-2737.76 4032.07,-2732.06"/>
</g>
<!-- 1002&#45;&gt;540 -->
<g id="edge26" class="edge">
<title>1002&#45;&gt;540</title>
<path fill="none" stroke="#38546c" stroke-width="1.2" stroke-opacity="0.400000" d="M3202.68,-1807.56C3353.36,-1795.09 3633.17,-1771.95 3838.88,-1754.93"/>
<polygon fill="#38546c" fill-opacity="0.400000" stroke="#38546c" stroke-width="1.2" stroke-opacity="0.400000" points="3838.97,-1758.43 3848.65,-1754.12 3838.4,-1751.45 3838.97,-1758.43"/>
</g>
<!-- 1002&#45;&gt;375 -->
<g id="edge23" class="edge">
<title>1002&#45;&gt;375</title>
<path fill="none" stroke="#38546c" stroke-width="1.2" stroke-opacity="0.400000" d="M3082.33,-1753.54C3029.48,-1511.78 2842.2,-655.17 2842.2,-655.17 2842.2,-655.17 2436.4,-484.94 2209.16,-389.61"/>
<polygon fill="#38546c" fill-opacity="0.400000" stroke="#38546c" stroke-width="1.2" stroke-opacity="0.400000" points="2210.73,-386.47 2200.15,-385.83 2208.02,-392.93 2210.73,-386.47"/>
</g>
<!-- 1002&#45;&gt;1077 -->
<g id="edge33" class="edge">
<title>1002&#45;&gt;1077</title>
<path fill="none" stroke="#38546c" stroke-width="1.2" stroke-opacity="0.400000" d="M2989.3,-1862.91C2825,-1934.52 2509.87,-2071.86 2325.35,-2152.29"/>
<polygon fill="#38546c" fill-opacity="0.400000" stroke="#38546c" stroke-width="1.2" stroke-opacity="0.400000" points="2324.18,-2148.97 2316.42,-2156.18 2326.98,-2155.39 2324.18,-2148.97"/>
</g>
<!-- 339 -->
<g id="node37" class="node">
<title>339</title>
<polygon fill="#dcf7f7" stroke="#b3b3b3" stroke-width="1.5" points="4148.86,-2642.08 2332.11,-2642.08 2332.11,-2526.83 4154.86,-2526.83 4154.86,-2636.08 4148.86,-2642.08"/>
<polyline fill="none" stroke="#b3b3b3" stroke-width="1.5" points="4148.86,-2642.08 4148.86,-2636.08"/>
<polyline fill="none" stroke="#b3b3b3" stroke-width="1.5" points="4154.86,-2636.08 4148.86,-2636.08"/>
<text xml:space="preserve" text-anchor="middle" x="3243.49" y="-2554.48" font-family="Verdana" font-size="88.00">Text structure normalization / formatting</text>
</g>
<!-- 1002&#45;&gt;339 -->
<g id="edge31" class="edge">
<title>1002&#45;&gt;339</title>
<path fill="none" stroke="#38546c" stroke-width="1.2" stroke-opacity="0.400000" d="M3108.2,-1879.56C3135.52,-2021.9 3201.71,-2366.78 3230.15,-2514.93"/>
<polygon fill="#38546c" fill-opacity="0.400000" stroke="#38546c" stroke-width="1.2" stroke-opacity="0.400000" points="3226.63,-2515.16 3231.95,-2524.32 3233.5,-2513.84 3226.63,-2515.16"/>
</g>
</g>
</svg>
