<?xml version="1.0" encoding="UTF-8" standalone="no"?>
<!DOCTYPE svg PUBLIC "-//W3C//DTD SVG 1.1//EN"
 "http://www.w3.org/Graphics/SVG/1.1/DTD/svg11.dtd">
<!-- Generated by graphviz version 13.1.2 (20250808.2320)
 -->
<!-- Title: G Pages: 1 -->
<svg width="7474pt" height="7422pt"
 viewBox="0.00 0.00 7474.00 7422.00" xmlns="http://www.w3.org/2000/svg" xmlns:xlink="http://www.w3.org/1999/xlink">
<g id="graph0" class="graph" transform="scale(1 1) rotate(0) translate(36 7407.94)">
<title>G</title>
<polygon fill="white" stroke="none" points="-36,14.4 -36,-7407.94 7438.32,-7407.94 7438.32,14.4 -36,14.4"/>
<!-- 156 -->
<g id="node1" class="node">
<title>156</title>
<polygon fill="#f2fadf" stroke="#b3b3b3" stroke-width="1.5" points="1038.16,-3740.53 278.91,-3740.53 278.91,-3625.28 1044.16,-3625.28 1044.16,-3734.53 1038.16,-3740.53"/>
<polyline fill="none" stroke="#b3b3b3" stroke-width="1.5" points="1038.16,-3740.53 1038.16,-3734.53"/>
<polyline fill="none" stroke="#b3b3b3" stroke-width="1.5" points="1044.16,-3734.53 1038.16,-3734.53"/>
<text xml:space="preserve" text-anchor="middle" x="661.53" y="-3652.93" font-family="Verdana" font-size="88.00">Design principles</text>
</g>
<!-- 293 -->
<g id="node2" class="node">
<title>293</title>
<polygon fill="#e1f5fe" stroke="#b3b3b3" stroke-width="1.5" points="4622.74,-3401.75 3762.99,-3401.75 3762.99,-3286.5 4628.74,-3286.5 4628.74,-3395.75 4622.74,-3401.75"/>
<polyline fill="none" stroke="#b3b3b3" stroke-width="1.5" points="4622.74,-3401.75 4622.74,-3395.75"/>
<polyline fill="none" stroke="#b3b3b3" stroke-width="1.5" points="4628.74,-3395.75 4622.74,-3395.75"/>
<text xml:space="preserve" text-anchor="middle" x="4195.87" y="-3314.15" font-family="Verdana" font-size="88.00">Graph Visualization</text>
</g>
<!-- 12 -->
<g id="node3" class="node">
<title>12</title>
<polygon fill="#f2fadf" stroke="#b3b3b3" stroke-width="1.5" points="4146.87,-106.25 3482.12,-106.25 3482.12,0 4152.87,0 4152.87,-100.25 4146.87,-106.25"/>
<polyline fill="none" stroke="#b3b3b3" stroke-width="1.5" points="4146.87,-106.25 4146.87,-100.25"/>
<polyline fill="none" stroke="#b3b3b3" stroke-width="1.5" points="4152.87,-100.25 4146.87,-100.25"/>
<text xml:space="preserve" text-anchor="middle" x="3817.5" y="-26.25" font-family="Verdana" font-size="80.00">Unique Features</text>
</g>
<!-- 212 -->
<g id="node4" class="node">
<title>212</title>
<polygon fill="#f6e5ee" stroke="#b3b3b3" stroke-width="1.5" points="1749.57,-5770.97 1093.82,-5770.97 1093.82,-5655.72 1755.57,-5655.72 1755.57,-5764.97 1749.57,-5770.97"/>
<polyline fill="none" stroke="#b3b3b3" stroke-width="1.5" points="1749.57,-5770.97 1749.57,-5764.97"/>
<polyline fill="none" stroke="#b3b3b3" stroke-width="1.5" points="1755.57,-5764.97 1749.57,-5764.97"/>
<text xml:space="preserve" text-anchor="middle" x="1424.69" y="-5683.37" font-family="Verdana" font-size="88.00">Auto&#45;complete</text>
</g>
<!-- 109 -->
<g id="node5" class="node">
<title>109</title>
<polygon fill="#d9fae7" stroke="#b3b3b3" stroke-width="1.5" points="7146.34,-5608.13 6218.34,-5608.13 6218.34,-5501.88 7152.34,-5501.88 7152.34,-5602.13 7146.34,-5608.13"/>
<polyline fill="none" stroke="#b3b3b3" stroke-width="1.5" points="7146.34,-5608.13 7146.34,-5602.13"/>
<polyline fill="none" stroke="#b3b3b3" stroke-width="1.5" points="7152.34,-5602.13 7146.34,-5602.13"/>
<text xml:space="preserve" text-anchor="middle" x="6685.34" y="-5528.13" font-family="Verdana" font-size="80.00">Data Flow Architecture</text>
</g>
<!-- 800 -->
<g id="node6" class="node">
<title>800</title>
<polygon fill="#dcf7f7" stroke="#b3b3b3" stroke-width="1.5" points="1404.61,-4424.28 1061.61,-4424.28 1061.61,-4309.03 1410.61,-4309.03 1410.61,-4418.28 1404.61,-4424.28"/>
<polyline fill="none" stroke="#b3b3b3" stroke-width="1.5" points="1404.61,-4424.28 1404.61,-4418.28"/>
<polyline fill="none" stroke="#b3b3b3" stroke-width="1.5" points="1410.61,-4418.28 1404.61,-4418.28"/>
<text xml:space="preserve" text-anchor="middle" x="1236.11" y="-4336.68" font-family="Verdana" font-size="88.00">Neovim</text>
</g>
<!-- 226 -->
<g id="node7" class="node">
<title>226</title>
<polygon fill="#fae1ee" stroke="#b3b3b3" stroke-width="1.5" points="1313.43,-2835.51 836.93,-2835.51 836.93,-2720.26 1319.43,-2720.26 1319.43,-2829.51 1313.43,-2835.51"/>
<polyline fill="none" stroke="#b3b3b3" stroke-width="1.5" points="1313.43,-2835.51 1313.43,-2829.51"/>
<polyline fill="none" stroke="#b3b3b3" stroke-width="1.5" points="1319.43,-2829.51 1313.43,-2829.51"/>
<text xml:space="preserve" text-anchor="middle" x="1078.18" y="-2747.91" font-family="Verdana" font-size="88.00">Inlay hints</text>
</g>
<!-- 1158 -->
<g id="node8" class="node">
<title>1158</title>
<polygon fill="#dcf7f7" stroke="#b3b3b3" stroke-width="1.5" points="4011.39,-1973.11 3432.89,-1973.11 3432.89,-1857.86 4017.39,-1857.86 4017.39,-1967.11 4011.39,-1973.11"/>
<polyline fill="none" stroke="#b3b3b3" stroke-width="1.5" points="4011.39,-1973.11 4011.39,-1967.11"/>
<polyline fill="none" stroke="#b3b3b3" stroke-width="1.5" points="4017.39,-1967.11 4011.39,-1967.11"/>
<text xml:space="preserve" text-anchor="middle" x="3725.14" y="-1885.51" font-family="Verdana" font-size="88.00">Why it exists</text>
</g>
<!-- 1158&#45;&gt;12 -->
<g id="edge26" class="edge">
<title>1158&#45;&gt;12</title>
<path fill="none" stroke="#38546c" stroke-width="1.2" stroke-opacity="0.400000" d="M3728.04,-1857.19C3741.72,-1581.3 3799.9,-408.03 3814.28,-118.11"/>
<polygon fill="#38546c" fill-opacity="0.400000" stroke="#38546c" stroke-width="1.2" stroke-opacity="0.400000" points="3817.76,-118.54 3814.76,-108.38 3810.77,-118.19 3817.76,-118.54"/>
</g>
<!-- 215 -->
<g id="node9" class="node">
<title>215</title>
<polygon fill="#f6e5ee" stroke="#b3b3b3" stroke-width="1.5" points="3006.47,-2044.73 2115.22,-2044.73 2115.22,-1929.48 3012.47,-1929.48 3012.47,-2038.73 3006.47,-2044.73"/>
<polyline fill="none" stroke="#b3b3b3" stroke-width="1.5" points="3006.47,-2044.73 3006.47,-2038.73"/>
<polyline fill="none" stroke="#b3b3b3" stroke-width="1.5" points="3012.47,-2038.73 3006.47,-2038.73"/>
<text xml:space="preserve" text-anchor="middle" x="2563.84" y="-1957.13" font-family="Verdana" font-size="88.00">Extract/Inline Notes</text>
</g>
<!-- 287 -->
<g id="node10" class="node">
<title>287</title>
<polygon fill="#eef2f5" stroke="#b3b3b3" stroke-width="1.5" points="4040.85,-2859.54 3244.85,-2859.54 3244.85,-2744.29 4046.85,-2744.29 4046.85,-2853.54 4040.85,-2859.54"/>
<polyline fill="none" stroke="#b3b3b3" stroke-width="1.5" points="4040.85,-2859.54 4040.85,-2853.54"/>
<polyline fill="none" stroke="#b3b3b3" stroke-width="1.5" points="4046.85,-2853.54 4040.85,-2853.54"/>
<text xml:space="preserve" text-anchor="middle" x="3645.85" y="-2771.94" font-family="Verdana" font-size="88.00">Text manipulation</text>
</g>
<!-- 1 -->
<g id="node11" class="node">
<title>1</title>
<polygon fill="#eef2f5" stroke="#b3b3b3" stroke-width="1.5" points="5285.31,-5203.95 4739.81,-5203.95 4739.81,-5088.7 5291.31,-5088.7 5291.31,-5197.95 5285.31,-5203.95"/>
<polyline fill="none" stroke="#b3b3b3" stroke-width="1.5" points="5285.31,-5203.95 5285.31,-5197.95"/>
<polyline fill="none" stroke="#b3b3b3" stroke-width="1.5" points="5291.31,-5197.95 5285.31,-5197.95"/>
<text xml:space="preserve" text-anchor="middle" x="5015.56" y="-5116.35" font-family="Verdana" font-size="88.00">Architecture</text>
</g>
<!-- 1&#45;&gt;109 -->
<g id="edge32" class="edge">
<title>1&#45;&gt;109</title>
<path fill="none" stroke="#38546c" stroke-width="1.2" stroke-opacity="0.400000" d="M5253.91,-5204.66C5573.72,-5282.93 6137.98,-5421.04 6454.11,-5498.41"/>
<polygon fill="#38546c" fill-opacity="0.400000" stroke="#38546c" stroke-width="1.2" stroke-opacity="0.400000" points="6452.94,-5501.73 6463.48,-5500.71 6454.6,-5494.93 6452.94,-5501.73"/>
</g>
<!-- 134 -->
<g id="node13" class="node">
<title>134</title>
<polygon fill="#e1f5fe" stroke="#b3b3b3" stroke-width="1.5" points="7160.61,-4863.05 6444.86,-4863.05 6444.86,-4756.8 7166.61,-4756.8 7166.61,-4857.05 7160.61,-4863.05"/>
<polyline fill="none" stroke="#b3b3b3" stroke-width="1.5" points="7160.61,-4863.05 7160.61,-4857.05"/>
<polyline fill="none" stroke="#b3b3b3" stroke-width="1.5" points="7166.61,-4857.05 7160.61,-4857.05"/>
<text xml:space="preserve" text-anchor="middle" x="6805.74" y="-4783.05" font-family="Verdana" font-size="80.00">Core Architecture</text>
</g>
<!-- 1&#45;&gt;134 -->
<g id="edge31" class="edge">
<title>1&#45;&gt;134</title>
<path fill="none" stroke="#38546c" stroke-width="1.2" stroke-opacity="0.400000" d="M5291.84,-5094.4C5621.06,-5032.54 6169.03,-4929.57 6507.6,-4865.95"/>
<polygon fill="#38546c" fill-opacity="0.400000" stroke="#38546c" stroke-width="1.2" stroke-opacity="0.400000" points="6508.09,-4869.42 6517.27,-4864.13 6506.79,-4862.54 6508.09,-4869.42"/>
</g>
<!-- 991 -->
<g id="node16" class="node">
<title>991</title>
<polygon fill="#dcf7f7" stroke="#b3b3b3" stroke-width="1.5" points="6967.12,-3501.97 5909.37,-3501.97 5909.37,-3395.72 6973.12,-3395.72 6973.12,-3495.97 6967.12,-3501.97"/>
<polyline fill="none" stroke="#b3b3b3" stroke-width="1.5" points="6967.12,-3501.97 6967.12,-3495.97"/>
<polyline fill="none" stroke="#b3b3b3" stroke-width="1.5" points="6973.12,-3495.97 6967.12,-3495.97"/>
<text xml:space="preserve" text-anchor="middle" x="6441.25" y="-3421.97" font-family="Verdana" font-size="80.00">Node Types and Structure</text>
</g>
<!-- 1&#45;&gt;991 -->
<g id="edge33" class="edge">
<title>1&#45;&gt;991</title>
<path fill="none" stroke="#38546c" stroke-width="1.2" stroke-opacity="0.400000" d="M5064.22,-5088.38C5281.73,-4829.41 6163.99,-3778.95 6388.88,-3511.2"/>
<polygon fill="#38546c" fill-opacity="0.400000" stroke="#38546c" stroke-width="1.2" stroke-opacity="0.400000" points="6391.37,-3513.68 6395.12,-3503.77 6386.01,-3509.17 6391.37,-3513.68"/>
</g>
<!-- 730 -->
<g id="node17" class="node">
<title>730</title>
<polygon fill="#f2fadf" stroke="#b3b3b3" stroke-width="1.5" points="7396.32,-4148.88 6002.57,-4148.88 6002.57,-4042.63 7402.32,-4042.63 7402.32,-4142.88 7396.32,-4148.88"/>
<polyline fill="none" stroke="#b3b3b3" stroke-width="1.5" points="7396.32,-4148.88 7396.32,-4142.88"/>
<polyline fill="none" stroke="#b3b3b3" stroke-width="1.5" points="7402.32,-4142.88 7396.32,-4142.88"/>
<text xml:space="preserve" text-anchor="middle" x="6702.45" y="-4068.88" font-family="Verdana" font-size="80.00">Key System and Cross&#45;References</text>
</g>
<!-- 1&#45;&gt;730 -->
<g id="edge34" class="edge">
<title>1&#45;&gt;730</title>
<path fill="none" stroke="#38546c" stroke-width="1.2" stroke-opacity="0.400000" d="M5109.26,-5087.97C5403.77,-4904.55 6308.78,-4340.93 6606.44,-4155.55"/>
<polygon fill="#38546c" fill-opacity="0.400000" stroke="#38546c" stroke-width="1.2" stroke-opacity="0.400000" points="6608.17,-4158.6 6614.81,-4150.34 6604.47,-4152.66 6608.17,-4158.6"/>
</g>
<!-- 166 -->
<g id="node19" class="node">
<title>166</title>
<polygon fill="#e9f9ef" stroke="#b3b3b3" stroke-width="1.5" points="5114.38,-7393.54 3898.38,-7393.54 3898.38,-7287.29 5120.38,-7287.29 5120.38,-7387.54 5114.38,-7393.54"/>
<polyline fill="none" stroke="#b3b3b3" stroke-width="1.5" points="5114.38,-7393.54 5114.38,-7387.54"/>
<polyline fill="none" stroke="#b3b3b3" stroke-width="1.5" points="5120.38,-7387.54 5114.38,-7387.54"/>
<text xml:space="preserve" text-anchor="middle" x="4509.38" y="-7313.54" font-family="Verdana" font-size="80.00">Document Processing Pipeline</text>
</g>
<!-- 1&#45;&gt;166 -->
<g id="edge27" class="edge">
<title>1&#45;&gt;166</title>
<path fill="none" stroke="#38546c" stroke-width="1.2" stroke-opacity="0.400000" d="M5000.29,-5204.52C4915.41,-5528.08 4505.41,-7090.96 4505.41,-7090.96 4505.41,-7090.96 4505.41,-7205.11 4505.41,-7205.11 4505.41,-7205.11 4506.44,-7240.39 4507.46,-7274.92"/>
<polygon fill="#38546c" fill-opacity="0.400000" stroke="#38546c" stroke-width="1.2" stroke-opacity="0.400000" points="4503.95,-7274.84 4507.74,-7284.74 4510.95,-7274.64 4503.95,-7274.84"/>
</g>
<!-- 509 -->
<g id="node31" class="node">
<title>509</title>
<polygon fill="#ffeaea" stroke="#b3b3b3" stroke-width="1.5" points="6197.06,-6842.01 5423.56,-6842.01 5423.56,-6735.76 6203.06,-6735.76 6203.06,-6836.01 6197.06,-6842.01"/>
<polyline fill="none" stroke="#b3b3b3" stroke-width="1.5" points="6197.06,-6842.01 6197.06,-6836.01"/>
<polyline fill="none" stroke="#b3b3b3" stroke-width="1.5" points="6203.06,-6836.01 6197.06,-6836.01"/>
<text xml:space="preserve" text-anchor="middle" x="5813.31" y="-6762.01" font-family="Verdana" font-size="80.00">Advanced Features</text>
</g>
<!-- 1&#45;&gt;509 -->
<g id="edge30" class="edge">
<title>1&#45;&gt;509</title>
<path fill="none" stroke="#38546c" stroke-width="1.2" stroke-opacity="0.400000" d="M5043.71,-5204.3C5166.38,-5456.86 5653.67,-6460.19 5782.13,-6724.69"/>
<polygon fill="#38546c" fill-opacity="0.400000" stroke="#38546c" stroke-width="1.2" stroke-opacity="0.400000" points="5778.95,-6726.16 5786.47,-6733.63 5785.25,-6723.11 5778.95,-6726.16"/>
</g>
<!-- 710 -->
<g id="node34" class="node">
<title>710</title>
<polygon fill="#ffeee0" stroke="#b3b3b3" stroke-width="1.5" points="5848.36,-7201.16 4509.36,-7201.16 4509.36,-7094.91 5854.36,-7094.91 5854.36,-7195.16 5848.36,-7201.16"/>
<polyline fill="none" stroke="#b3b3b3" stroke-width="1.5" points="5848.36,-7201.16 5848.36,-7195.16"/>
<polyline fill="none" stroke="#b3b3b3" stroke-width="1.5" points="5854.36,-7195.16 5848.36,-7195.16"/>
<text xml:space="preserve" text-anchor="middle" x="5181.86" y="-7121.16" font-family="Verdana" font-size="80.00">Indexing and Reference Systems</text>
</g>
<!-- 1&#45;&gt;710 -->
<g id="edge28" class="edge">
<title>1&#45;&gt;710</title>
<path fill="none" stroke="#38546c" stroke-width="1.2" stroke-opacity="0.400000" d="M5020.4,-5204.61C5044.47,-5494.29 5151.06,-6777.32 5176.43,-7082.66"/>
<polygon fill="#38546c" fill-opacity="0.400000" stroke="#38546c" stroke-width="1.2" stroke-opacity="0.400000" points="5172.93,-7082.88 5177.25,-7092.56 5179.91,-7082.3 5172.93,-7082.88"/>
</g>
<!-- 498 -->
<g id="node35" class="node">
<title>498</title>
<polygon fill="#ffeaea" stroke="#b3b3b3" stroke-width="1.5" points="7022.47,-6302.71 5664.72,-6302.71 5664.72,-6196.46 7028.47,-6196.46 7028.47,-6296.71 7022.47,-6302.71"/>
<polyline fill="none" stroke="#b3b3b3" stroke-width="1.5" points="7022.47,-6302.71 7022.47,-6296.71"/>
<polyline fill="none" stroke="#b3b3b3" stroke-width="1.5" points="7028.47,-6296.71 7022.47,-6296.71"/>
<text xml:space="preserve" text-anchor="middle" x="6346.59" y="-6222.71" font-family="Verdana" font-size="80.00">Graph Operations and Algorithms</text>
</g>
<!-- 1&#45;&gt;498 -->
<g id="edge29" class="edge">
<title>1&#45;&gt;498</title>
<path fill="none" stroke="#38546c" stroke-width="1.2" stroke-opacity="0.400000" d="M5085.71,-5204.47C5314.66,-5394.25 6038.74,-5994.42 6272.82,-6188.44"/>
<polygon fill="#38546c" fill-opacity="0.400000" stroke="#38546c" stroke-width="1.2" stroke-opacity="0.400000" points="6270.28,-6190.88 6280.21,-6194.56 6274.74,-6185.49 6270.28,-6190.88"/>
</g>
<!-- 366 -->
<g id="node12" class="node">
<title>366</title>
<polygon fill="#ffeee0" stroke="#b3b3b3" stroke-width="1.5" points="1264.75,-4571.57 0,-4571.57 0,-4456.32 1270.75,-4456.32 1270.75,-4565.57 1264.75,-4571.57"/>
<polyline fill="none" stroke="#b3b3b3" stroke-width="1.5" points="1264.75,-4571.57 1264.75,-4565.57"/>
<polyline fill="none" stroke="#b3b3b3" stroke-width="1.5" points="1270.75,-4565.57 1264.75,-4565.57"/>
<text xml:space="preserve" text-anchor="middle" x="635.38" y="-4483.97" font-family="Verdana" font-size="88.00">How to use in command line</text>
</g>
<!-- 549 -->
<g id="node14" class="node">
<title>549</title>
<polygon fill="#e2f6f6" stroke="#b3b3b3" stroke-width="1.5" points="4670.83,-4021.11 4060.08,-4021.11 4060.08,-3905.86 4676.83,-3905.86 4676.83,-4015.11 4670.83,-4021.11"/>
<polyline fill="none" stroke="#b3b3b3" stroke-width="1.5" points="4670.83,-4021.11 4670.83,-4015.11"/>
<polyline fill="none" stroke="#b3b3b3" stroke-width="1.5" points="4676.83,-4015.11 4670.83,-4015.11"/>
<text xml:space="preserve" text-anchor="middle" x="4368.45" y="-3933.51" font-family="Verdana" font-size="88.00">How to install</text>
</g>
<!-- 247 -->
<g id="node15" class="node">
<title>247</title>
<polygon fill="#fff9de" stroke="#b3b3b3" stroke-width="1.5" points="2638.56,-6171.09 2324.81,-6171.09 2324.81,-6055.84 2644.56,-6055.84 2644.56,-6165.09 2638.56,-6171.09"/>
<polyline fill="none" stroke="#b3b3b3" stroke-width="1.5" points="2638.56,-6171.09 2638.56,-6165.09"/>
<polyline fill="none" stroke="#b3b3b3" stroke-width="1.5" points="2644.56,-6165.09 2638.56,-6165.09"/>
<text xml:space="preserve" text-anchor="middle" x="2484.68" y="-6083.49" font-family="Verdana" font-size="88.00">Search</text>
</g>
<!-- 677 -->
<g id="node18" class="node">
<title>677</title>
<polygon fill="#f6e5ee" stroke="#b3b3b3" stroke-width="1.5" points="2847.02,-4119.6 2640.52,-4119.6 2640.52,-3994.6 2853.02,-3994.6 2853.02,-4113.6 2847.02,-4119.6"/>
<polyline fill="none" stroke="#b3b3b3" stroke-width="1.5" points="2847.02,-4119.6 2847.02,-4113.6"/>
<polyline fill="none" stroke="#b3b3b3" stroke-width="1.5" points="2853.02,-4113.6 2847.02,-4113.6"/>
<text xml:space="preserve" text-anchor="middle" x="2746.77" y="-4024.4" font-family="Verdana" font-size="96.00">IWE</text>
</g>
<!-- 677&#45;&gt;156 -->
<g id="edge14" class="edge">
<title>677&#45;&gt;156</title>
<path fill="none" stroke="#38546c" stroke-width="1.2" stroke-opacity="0.400000" d="M2639.77,-4037.9C2339.41,-3984 1479.01,-3829.6 997.74,-3743.23"/>
<polygon fill="#38546c" fill-opacity="0.400000" stroke="#38546c" stroke-width="1.2" stroke-opacity="0.400000" points="998.69,-3739.85 988.23,-3741.53 997.45,-3746.74 998.69,-3739.85"/>
</g>
<!-- 677&#45;&gt;293 -->
<g id="edge12" class="edge">
<title>677&#45;&gt;293</title>
<path fill="none" stroke="#38546c" stroke-width="1.2" stroke-opacity="0.400000" d="M2853.62,-4004.53C3114.77,-3876.04 3784.63,-3546.46 4067.13,-3407.46"/>
<polygon fill="#38546c" fill-opacity="0.400000" stroke="#38546c" stroke-width="1.2" stroke-opacity="0.400000" points="4068.37,-3410.75 4075.8,-3403.2 4065.28,-3404.47 4068.37,-3410.75"/>
</g>
<!-- 677&#45;&gt;212 -->
<g id="edge1" class="edge">
<title>677&#45;&gt;212</title>
<path fill="none" stroke="#38546c" stroke-width="1.2" stroke-opacity="0.400000" d="M2696.36,-4120.26C2487.69,-4381.67 1692.51,-5377.83 1478.18,-5646.34"/>
<polygon fill="#38546c" fill-opacity="0.400000" stroke="#38546c" stroke-width="1.2" stroke-opacity="0.400000" points="1475.74,-5643.78 1472.24,-5653.78 1481.21,-5648.15 1475.74,-5643.78"/>
</g>
<!-- 677&#45;&gt;800 -->
<g id="edge7" class="edge">
<title>677&#45;&gt;800</title>
<path fill="none" stroke="#38546c" stroke-width="1.2" stroke-opacity="0.400000" d="M2639.94,-4078.99C2385.77,-4131.07 1742.43,-4262.9 1422.57,-4328.45"/>
<polygon fill="#38546c" fill-opacity="0.400000" stroke="#38546c" stroke-width="1.2" stroke-opacity="0.400000" points="1422.21,-4324.95 1413.11,-4330.38 1423.61,-4331.81 1422.21,-4324.95"/>
</g>
<!-- 677&#45;&gt;226 -->
<g id="edge16" class="edge">
<title>677&#45;&gt;226</title>
<path fill="none" stroke="#38546c" stroke-width="1.2" stroke-opacity="0.400000" d="M2654.66,-3993.94C2400.65,-3819.76 1708.87,-3345.38 1708.87,-3345.38 1708.87,-3345.38 1413.81,-3291.86 1413.81,-3291.86 1413.81,-3291.86 1213.53,-2985.16 1122.4,-2845.6"/>
<polygon fill="#38546c" fill-opacity="0.400000" stroke="#38546c" stroke-width="1.2" stroke-opacity="0.400000" points="1125.42,-2843.82 1117.02,-2837.36 1119.56,-2847.65 1125.42,-2843.82"/>
</g>
<!-- 677&#45;&gt;1158 -->
<g id="edge9" class="edge">
<title>677&#45;&gt;1158</title>
<path fill="none" stroke="#38546c" stroke-width="1.2" stroke-opacity="0.400000" d="M2770.44,-3994.03C2868.89,-3731.68 3240.9,-2740.34 3240.9,-2740.34 3240.9,-2740.34 3568.97,-2181.52 3685.04,-1983.8"/>
<polygon fill="#38546c" fill-opacity="0.400000" stroke="#38546c" stroke-width="1.2" stroke-opacity="0.400000" points="3687.94,-1985.78 3689.98,-1975.39 3681.9,-1982.24 3687.94,-1985.78"/>
</g>
<!-- 677&#45;&gt;215 -->
<g id="edge22" class="edge">
<title>677&#45;&gt;215</title>
<path fill="none" stroke="#38546c" stroke-width="1.2" stroke-opacity="0.400000" d="M2756.8,-3994.15C2785.97,-3811.1 2868.71,-3291.86 2868.71,-3291.86 2868.71,-3291.86 2868.71,-3168.71 2868.71,-3168.71 2868.71,-3168.71 2647.09,-2309.73 2581.76,-2056.54"/>
<polygon fill="#38546c" fill-opacity="0.400000" stroke="#38546c" stroke-width="1.2" stroke-opacity="0.400000" points="2585.2,-2055.86 2579.31,-2047.06 2578.42,-2057.61 2585.2,-2055.86"/>
</g>
<!-- 677&#45;&gt;287 -->
<g id="edge23" class="edge">
<title>677&#45;&gt;287</title>
<path fill="none" stroke="#38546c" stroke-width="1.2" stroke-opacity="0.400000" d="M2791.97,-3993.99C2944.6,-3780.91 3440.11,-3089.14 3597.44,-2869.49"/>
<polygon fill="#38546c" fill-opacity="0.400000" stroke="#38546c" stroke-width="1.2" stroke-opacity="0.400000" points="3600.2,-2871.66 3603.17,-2861.49 3594.5,-2867.58 3600.2,-2871.66"/>
</g>
<!-- 677&#45;&gt;1 -->
<g id="edge19" class="edge">
<title>677&#45;&gt;1</title>
<path fill="none" stroke="#38546c" stroke-width="1.2" stroke-opacity="0.400000" d="M2853.64,-4116.09C3059.27,-4229.6 3489.88,-4467.3 3489.88,-4467.3 3489.88,-4467.3 4495.27,-4914.76 4873.75,-5083.21"/>
<polygon fill="#38546c" fill-opacity="0.400000" stroke="#38546c" stroke-width="1.2" stroke-opacity="0.400000" points="4872.27,-5086.38 4882.83,-5087.25 4875.12,-5079.99 4872.27,-5086.38"/>
</g>
<!-- 677&#45;&gt;366 -->
<g id="edge6" class="edge">
<title>677&#45;&gt;366</title>
<path fill="none" stroke="#38546c" stroke-width="1.2" stroke-opacity="0.400000" d="M2640,-4086.84C2323.88,-4174.91 1414.56,-4428.23 1414.56,-4428.23 1414.56,-4428.23 1310.03,-4439.73 1177.54,-4454.3"/>
<polygon fill="#38546c" fill-opacity="0.400000" stroke="#38546c" stroke-width="1.2" stroke-opacity="0.400000" points="1177.24,-4450.82 1167.69,-4455.39 1178.01,-4457.77 1177.24,-4450.82"/>
</g>
<!-- 677&#45;&gt;549 -->
<g id="edge3" class="edge">
<title>677&#45;&gt;549</title>
<path fill="none" stroke="#38546c" stroke-width="1.2" stroke-opacity="0.400000" d="M2853.49,-4050.94C3092.53,-4037.14 3678.89,-4003.29 4048.03,-3981.99"/>
<polygon fill="#38546c" fill-opacity="0.400000" stroke="#38546c" stroke-width="1.2" stroke-opacity="0.400000" points="4048.11,-3985.49 4057.9,-3981.42 4047.71,-3978.5 4048.11,-3985.49"/>
</g>
<!-- 677&#45;&gt;247 -->
<g id="edge21" class="edge">
<title>677&#45;&gt;247</title>
<path fill="none" stroke="#38546c" stroke-width="1.2" stroke-opacity="0.400000" d="M2697.62,-4119.96C2502.81,-4369.11 1795.39,-5273.85 1795.39,-5273.85 1795.39,-5273.85 1795.39,-5397 1795.39,-5397 1795.39,-5397 2249.22,-5868.72 2420.39,-6046.64"/>
<polygon fill="#38546c" fill-opacity="0.400000" stroke="#38546c" stroke-width="1.2" stroke-opacity="0.400000" points="2417.85,-6049.05 2427.31,-6053.83 2422.9,-6044.2 2417.85,-6049.05"/>
</g>
<!-- 230 -->
<g id="node20" class="node">
<title>230</title>
<polygon fill="#eef2f5" stroke="#b3b3b3" stroke-width="1.5" points="1208.18,-5306.74 729.43,-5306.74 729.43,-5191.49 1214.18,-5191.49 1214.18,-5300.74 1208.18,-5306.74"/>
<polyline fill="none" stroke="#b3b3b3" stroke-width="1.5" points="1208.18,-5306.74 1208.18,-5300.74"/>
<polyline fill="none" stroke="#b3b3b3" stroke-width="1.5" points="1214.18,-5300.74 1208.18,-5300.74"/>
<text xml:space="preserve" text-anchor="middle" x="971.8" y="-5219.14" font-family="Verdana" font-size="88.00">Navigation</text>
</g>
<!-- 677&#45;&gt;230 -->
<g id="edge2" class="edge">
<title>677&#45;&gt;230</title>
<path fill="none" stroke="#38546c" stroke-width="1.2" stroke-opacity="0.400000" d="M2652.59,-4120.35C2345.89,-4326.32 1377.68,-4976.54 1068.04,-5184.49"/>
<polygon fill="#38546c" fill-opacity="0.400000" stroke="#38546c" stroke-width="1.2" stroke-opacity="0.400000" points="1066.49,-5181.31 1060.14,-5189.79 1070.39,-5187.12 1066.49,-5181.31"/>
</g>
<!-- 562 -->
<g id="node21" class="node">
<title>562</title>
<polygon fill="#e9f9ef" stroke="#b3b3b3" stroke-width="1.5" points="2858.76,-3287.91 1417.76,-3287.91 1417.76,-3172.66 2864.76,-3172.66 2864.76,-3281.91 2858.76,-3287.91"/>
<polyline fill="none" stroke="#b3b3b3" stroke-width="1.5" points="2858.76,-3287.91 2858.76,-3281.91"/>
<polyline fill="none" stroke="#b3b3b3" stroke-width="1.5" points="2864.76,-3281.91 2858.76,-3281.91"/>
<text xml:space="preserve" text-anchor="middle" x="2141.26" y="-3200.31" font-family="Verdana" font-size="88.00">How to use with your text editor</text>
</g>
<!-- 677&#45;&gt;562 -->
<g id="edge25" class="edge">
<title>677&#45;&gt;562</title>
<path fill="none" stroke="#38546c" stroke-width="1.2" stroke-opacity="0.400000" d="M2700.51,-3993.94C2588.84,-3841.44 2305.26,-3454.22 2190.55,-3297.58"/>
<polygon fill="#38546c" fill-opacity="0.400000" stroke="#38546c" stroke-width="1.2" stroke-opacity="0.400000" points="2193.7,-3295.97 2184.97,-3289.97 2188.05,-3300.1 2193.7,-3295.97"/>
</g>
<!-- 183 -->
<g id="node22" class="node">
<title>183</title>
<polygon fill="#eef2f5" stroke="#b3b3b3" stroke-width="1.5" points="1698.92,-3464.58 717.67,-3464.58 717.67,-3349.33 1704.92,-3349.33 1704.92,-3458.58 1698.92,-3464.58"/>
<polyline fill="none" stroke="#b3b3b3" stroke-width="1.5" points="1698.92,-3464.58 1698.92,-3458.58"/>
<polyline fill="none" stroke="#b3b3b3" stroke-width="1.5" points="1704.92,-3458.58 1698.92,-3458.58"/>
<text xml:space="preserve" text-anchor="middle" x="1211.29" y="-3376.98" font-family="Verdana" font-size="88.00">Basic journal example</text>
</g>
<!-- 677&#45;&gt;183 -->
<g id="edge8" class="edge">
<title>677&#45;&gt;183</title>
<path fill="none" stroke="#38546c" stroke-width="1.2" stroke-opacity="0.400000" d="M2640.02,-4011.9C2371.67,-3898.28 1668.41,-3600.51 1359.94,-3469.89"/>
<polygon fill="#38546c" fill-opacity="0.400000" stroke="#38546c" stroke-width="1.2" stroke-opacity="0.400000" points="1361.38,-3466.7 1350.8,-3466.03 1358.65,-3473.15 1361.38,-3466.7"/>
</g>
<!-- 204 -->
<g id="node23" class="node">
<title>204</title>
<polygon fill="#dcf7f7" stroke="#b3b3b3" stroke-width="1.5" points="3616.09,-5393.05 1799.34,-5393.05 1799.34,-5277.8 3622.09,-5277.8 3622.09,-5387.05 3616.09,-5393.05"/>
<polyline fill="none" stroke="#b3b3b3" stroke-width="1.5" points="3616.09,-5393.05 3616.09,-5387.05"/>
<polyline fill="none" stroke="#b3b3b3" stroke-width="1.5" points="3622.09,-5387.05 3616.09,-5387.05"/>
<text xml:space="preserve" text-anchor="middle" x="2710.72" y="-5305.45" font-family="Verdana" font-size="88.00">Text structure normalization / formatting</text>
</g>
<!-- 677&#45;&gt;204 -->
<g id="edge5" class="edge">
<title>677&#45;&gt;204</title>
<path fill="none" stroke="#38546c" stroke-width="1.2" stroke-opacity="0.400000" d="M2745,-4120.06C2738.93,-4335.18 2719.04,-5040.22 2712.69,-5265.53"/>
<polygon fill="#38546c" fill-opacity="0.400000" stroke="#38546c" stroke-width="1.2" stroke-opacity="0.400000" points="2709.2,-5265.25 2712.41,-5275.34 2716.19,-5265.45 2709.2,-5265.25"/>
</g>
<!-- 152 -->
<g id="node24" class="node">
<title>152</title>
<polygon fill="#eef2f5" stroke="#b3b3b3" stroke-width="1.5" points="3466.86,-5989.44 2906.36,-5989.44 2906.36,-5874.19 3472.86,-5874.19 3472.86,-5983.44 3466.86,-5989.44"/>
<polyline fill="none" stroke="#b3b3b3" stroke-width="1.5" points="3466.86,-5989.44 3466.86,-5983.44"/>
<polyline fill="none" stroke="#b3b3b3" stroke-width="1.5" points="3472.86,-5983.44 3466.86,-5983.44"/>
<text xml:space="preserve" text-anchor="middle" x="3189.61" y="-5901.84" font-family="Verdana" font-size="88.00">Debug Mode</text>
</g>
<!-- 677&#45;&gt;152 -->
<g id="edge24" class="edge">
<title>677&#45;&gt;152</title>
<path fill="none" stroke="#38546c" stroke-width="1.2" stroke-opacity="0.400000" d="M2769.52,-4119.95C2859.67,-4369.06 3187.06,-5273.64 3187.06,-5273.64 3187.06,-5273.64 3626.04,-5273.85 3626.04,-5273.85 3626.04,-5273.85 3626.04,-5397 3626.04,-5397 3626.04,-5397 3361.45,-5721.23 3244.3,-5864.79"/>
<polygon fill="#38546c" fill-opacity="0.400000" stroke="#38546c" stroke-width="1.2" stroke-opacity="0.400000" points="3241.9,-5862.2 3238.29,-5872.16 3247.33,-5866.62 3241.9,-5862.2"/>
</g>
<!-- 254 -->
<g id="node25" class="node">
<title>254</title>
<polygon fill="#dcf7f7" stroke="#b3b3b3" stroke-width="1.5" points="2236.13,-6105.52 1581.13,-6105.52 1581.13,-5990.27 2242.13,-5990.27 2242.13,-6099.52 2236.13,-6105.52"/>
<polyline fill="none" stroke="#b3b3b3" stroke-width="1.5" points="2236.13,-6105.52 2236.13,-6099.52"/>
<polyline fill="none" stroke="#b3b3b3" stroke-width="1.5" points="2242.13,-6099.52 2236.13,-6099.52"/>
<text xml:space="preserve" text-anchor="middle" x="1911.63" y="-6017.92" font-family="Verdana" font-size="88.00">Files renaming</text>
</g>
<!-- 677&#45;&gt;254 -->
<g id="edge17" class="edge">
<title>677&#45;&gt;254</title>
<path fill="none" stroke="#38546c" stroke-width="1.2" stroke-opacity="0.400000" d="M2697.62,-4119.96C2502.81,-4369.11 1795.39,-5273.85 1795.39,-5273.85 1795.39,-5273.85 1795.39,-5397 1795.39,-5397 1795.39,-5397 1869.17,-5810.16 1899.17,-5978.14"/>
<polygon fill="#38546c" fill-opacity="0.400000" stroke="#38546c" stroke-width="1.2" stroke-opacity="0.400000" points="1895.69,-5978.54 1900.89,-5987.77 1902.58,-5977.31 1895.69,-5978.54"/>
</g>
<!-- 1016 -->
<g id="node26" class="node">
<title>1016</title>
<polygon fill="#ffeee0" stroke="#b3b3b3" stroke-width="1.5" points="3338.95,-2336.64 2956.2,-2336.64 2956.2,-2221.39 3344.95,-2221.39 3344.95,-2330.64 3338.95,-2336.64"/>
<polyline fill="none" stroke="#b3b3b3" stroke-width="1.5" points="3338.95,-2336.64 3338.95,-2330.64"/>
<polyline fill="none" stroke="#b3b3b3" stroke-width="1.5" points="3344.95,-2330.64 3338.95,-2330.64"/>
<text xml:space="preserve" text-anchor="middle" x="3150.58" y="-2249.04" font-family="Verdana" font-size="88.00">VS Code</text>
</g>
<!-- 677&#45;&gt;1016 -->
<g id="edge13" class="edge">
<title>677&#45;&gt;1016</title>
<path fill="none" stroke="#38546c" stroke-width="1.2" stroke-opacity="0.400000" d="M2761.08,-3994.08C2823.27,-3720.24 3069.81,-2634.64 3134.81,-2348.47"/>
<polygon fill="#38546c" fill-opacity="0.400000" stroke="#38546c" stroke-width="1.2" stroke-opacity="0.400000" points="3138.2,-2349.33 3137,-2338.8 3131.37,-2347.78 3138.2,-2349.33"/>
</g>
<!-- 236 -->
<g id="node27" class="node">
<title>236</title>
<polygon fill="#e1f5fe" stroke="#b3b3b3" stroke-width="1.5" points="4426.51,-5269.69 3191.01,-5269.69 3191.01,-5154.44 4432.51,-5154.44 4432.51,-5263.69 4426.51,-5269.69"/>
<polyline fill="none" stroke="#b3b3b3" stroke-width="1.5" points="4426.51,-5269.69 4426.51,-5263.69"/>
<polyline fill="none" stroke="#b3b3b3" stroke-width="1.5" points="4432.51,-5263.69 4426.51,-5263.69"/>
<text xml:space="preserve" text-anchor="middle" x="3811.76" y="-5182.09" font-family="Verdana" font-size="88.00">Header levels normalization</text>
</g>
<!-- 677&#45;&gt;236 -->
<g id="edge20" class="edge">
<title>677&#45;&gt;236</title>
<path fill="none" stroke="#38546c" stroke-width="1.2" stroke-opacity="0.400000" d="M2804.79,-4120.02C2989.22,-4320.03 3561.03,-4940.16 3750.25,-5145.37"/>
<polygon fill="#38546c" fill-opacity="0.400000" stroke="#38546c" stroke-width="1.2" stroke-opacity="0.400000" points="3747.59,-5147.64 3756.94,-5152.62 3752.73,-5142.89 3747.59,-5147.64"/>
</g>
<!-- 536 -->
<g id="node28" class="node">
<title>536</title>
<polygon fill="#d9fae7" stroke="#b3b3b3" stroke-width="1.5" points="1939.56,-4989.68 1711.31,-4989.68 1711.31,-4874.43 1945.56,-4874.43 1945.56,-4983.68 1939.56,-4989.68"/>
<polyline fill="none" stroke="#b3b3b3" stroke-width="1.5" points="1939.56,-4989.68 1939.56,-4983.68"/>
<polyline fill="none" stroke="#b3b3b3" stroke-width="1.5" points="1945.56,-4983.68 1939.56,-4983.68"/>
<text xml:space="preserve" text-anchor="middle" x="1828.43" y="-4902.08" font-family="Verdana" font-size="88.00">Helix</text>
</g>
<!-- 677&#45;&gt;536 -->
<g id="edge15" class="edge">
<title>677&#45;&gt;536</title>
<path fill="none" stroke="#38546c" stroke-width="1.2" stroke-opacity="0.400000" d="M2680.73,-4120.02C2512.68,-4280.13 2070.04,-4701.86 1898.11,-4865.67"/>
<polygon fill="#38546c" fill-opacity="0.400000" stroke="#38546c" stroke-width="1.2" stroke-opacity="0.400000" points="1895.78,-4863.06 1890.95,-4872.49 1900.61,-4868.12 1895.78,-4863.06"/>
</g>
<!-- 257 -->
<g id="node29" class="node">
<title>257</title>
<polygon fill="#ffeee0" stroke="#b3b3b3" stroke-width="1.5" points="2446.87,-2545.36 1864.62,-2545.36 1864.62,-2430.11 2452.87,-2430.11 2452.87,-2539.36 2446.87,-2545.36"/>
<polyline fill="none" stroke="#b3b3b3" stroke-width="1.5" points="2446.87,-2545.36 2446.87,-2539.36"/>
<polyline fill="none" stroke="#b3b3b3" stroke-width="1.5" points="2452.87,-2539.36 2446.87,-2539.36"/>
<text xml:space="preserve" text-anchor="middle" x="2158.75" y="-2457.76" font-family="Verdana" font-size="88.00">Notes search</text>
</g>
<!-- 677&#45;&gt;257 -->
<g id="edge10" class="edge">
<title>677&#45;&gt;257</title>
<path fill="none" stroke="#38546c" stroke-width="1.2" stroke-opacity="0.400000" d="M2756.8,-3994.15C2785.97,-3811.1 2868.71,-3291.86 2868.71,-3291.86 2868.71,-3291.86 2868.71,-3168.71 2868.71,-3168.71 2868.71,-3168.71 2406.33,-2725.21 2227.87,-2554.03"/>
<polygon fill="#38546c" fill-opacity="0.400000" stroke="#38546c" stroke-width="1.2" stroke-opacity="0.400000" points="2230.54,-2551.74 2220.9,-2547.35 2225.69,-2556.79 2230.54,-2551.74"/>
</g>
<!-- 748 -->
<g id="node30" class="node">
<title>748</title>
<polygon fill="#fff9de" stroke="#b3b3b3" stroke-width="1.5" points="4785.5,-2821.38 4055.5,-2821.38 4055.5,-2706.13 4791.5,-2706.13 4791.5,-2815.38 4785.5,-2821.38"/>
<polyline fill="none" stroke="#b3b3b3" stroke-width="1.5" points="4785.5,-2821.38 4785.5,-2815.38"/>
<polyline fill="none" stroke="#b3b3b3" stroke-width="1.5" points="4791.5,-2815.38 4785.5,-2815.38"/>
<text xml:space="preserve" text-anchor="middle" x="4423.5" y="-2733.78" font-family="Verdana" font-size="88.00">Maps of Content</text>
</g>
<!-- 677&#45;&gt;748 -->
<g id="edge11" class="edge">
<title>677&#45;&gt;748</title>
<path fill="none" stroke="#38546c" stroke-width="1.2" stroke-opacity="0.400000" d="M2828.49,-3994.06C3111.89,-3775.47 4050.75,-3051.27 4338.75,-2829.12"/>
<polygon fill="#38546c" fill-opacity="0.400000" stroke="#38546c" stroke-width="1.2" stroke-opacity="0.400000" points="4340.68,-2832.05 4346.46,-2823.18 4336.41,-2826.51 4340.68,-2832.05"/>
</g>
<!-- 78 -->
<g id="node32" class="node">
<title>78</title>
<polygon fill="#fbfbda" stroke="#b3b3b3" stroke-width="1.5" points="4094.83,-4463.35 3493.83,-4463.35 3493.83,-4348.1 4100.83,-4348.1 4100.83,-4457.35 4094.83,-4463.35"/>
<polyline fill="none" stroke="#b3b3b3" stroke-width="1.5" points="4094.83,-4463.35 4094.83,-4457.35"/>
<polyline fill="none" stroke="#b3b3b3" stroke-width="1.5" points="4100.83,-4457.35 4094.83,-4457.35"/>
<text xml:space="preserve" text-anchor="middle" x="3797.33" y="-4375.75" font-family="Verdana" font-size="88.00">Configuration</text>
</g>
<!-- 677&#45;&gt;78 -->
<g id="edge4" class="edge">
<title>677&#45;&gt;78</title>
<path fill="none" stroke="#38546c" stroke-width="1.2" stroke-opacity="0.400000" d="M2853.29,-4092.45C3031.03,-4151.43 3390.33,-4270.66 3610.79,-4343.82"/>
<polygon fill="#38546c" fill-opacity="0.400000" stroke="#38546c" stroke-width="1.2" stroke-opacity="0.400000" points="3609.52,-4347.09 3620.11,-4346.92 3611.72,-4340.45 3609.52,-4347.09"/>
</g>
<!-- 265 -->
<g id="node33" class="node">
<title>265</title>
<polygon fill="#eeebfa" stroke="#b3b3b3" stroke-width="1.5" points="1948.43,-2288.39 1266.43,-2288.39 1266.43,-2173.14 1954.43,-2173.14 1954.43,-2282.39 1948.43,-2288.39"/>
<polyline fill="none" stroke="#b3b3b3" stroke-width="1.5" points="1948.43,-2288.39 1948.43,-2282.39"/>
<polyline fill="none" stroke="#b3b3b3" stroke-width="1.5" points="1954.43,-2282.39 1948.43,-2282.39"/>
<text xml:space="preserve" text-anchor="middle" x="1610.43" y="-2200.79" font-family="Verdana" font-size="88.00">Sub&#45;directories</text>
</g>
<!-- 677&#45;&gt;265 -->
<g id="edge18" class="edge">
<title>677&#45;&gt;265</title>
<path fill="none" stroke="#38546c" stroke-width="1.2" stroke-opacity="0.400000" d="M2756.8,-3994.15C2785.97,-3811.1 2868.71,-3291.86 2868.71,-3291.86 2868.71,-3291.86 2868.71,-3168.71 2868.71,-3168.71 2868.71,-3168.71 1860.67,-2549.31 1860.67,-2549.31 1860.67,-2549.31 1736.62,-2391.39 1663.2,-2297.94"/>
<polygon fill="#38546c" fill-opacity="0.400000" stroke="#38546c" stroke-width="1.2" stroke-opacity="0.400000" points="1666.09,-2295.95 1657.16,-2290.25 1660.59,-2300.28 1666.09,-2295.95"/>
</g>
</g>
</svg>
