<?xml version="1.0" encoding="UTF-8" standalone="no"?>
<!DOCTYPE svg PUBLIC "-//W3C//DTD SVG 1.1//EN"
 "http://www.w3.org/Graphics/SVG/1.1/DTD/svg11.dtd">
<!-- Generated by graphviz version 13.1.2 (20250808.2320)
 -->
<!-- Title: G Pages: 1 -->
<svg width="6850pt" height="5850pt"
 viewBox="0.00 0.00 6850.00 5850.00" xmlns="http://www.w3.org/2000/svg" xmlns:xlink="http://www.w3.org/1999/xlink">
<g id="graph0" class="graph" transform="scale(1 1) rotate(0) translate(36 5836.01)">
<title>G</title>
<polygon fill="white" stroke="none" points="-36,14.4 -36,-5836.01 6814.2,-5836.01 6814.2,14.4 -36,14.4"/>
<!-- 677 -->
<g id="node1" class="node">
<title>677</title>
<polygon fill="#f6e5ee" stroke="#b3b3b3" stroke-width="1.5" points="4550.44,-2100.48 4343.94,-2100.48 4343.94,-1975.48 4556.44,-1975.48 4556.44,-2094.48 4550.44,-2100.48"/>
<polyline fill="none" stroke="#b3b3b3" stroke-width="1.5" points="4550.44,-2100.48 4550.44,-2094.48"/>
<polyline fill="none" stroke="#b3b3b3" stroke-width="1.5" points="4556.44,-2094.48 4550.44,-2094.48"/>
<text xml:space="preserve" text-anchor="middle" x="4450.19" y="-2005.28" font-family="Verdana" font-size="96.00">IWE</text>
</g>
<!-- 230 -->
<g id="node2" class="node">
<title>230</title>
<polygon fill="#eef2f5" stroke="#b3b3b3" stroke-width="1.5" points="6477.9,-1589.91 5999.15,-1589.91 5999.15,-1474.66 6483.9,-1474.66 6483.9,-1583.91 6477.9,-1589.91"/>
<polyline fill="none" stroke="#b3b3b3" stroke-width="1.5" points="6477.9,-1589.91 6477.9,-1583.91"/>
<polyline fill="none" stroke="#b3b3b3" stroke-width="1.5" points="6483.9,-1583.91 6477.9,-1583.91"/>
<text xml:space="preserve" text-anchor="middle" x="6241.52" y="-1502.31" font-family="Verdana" font-size="88.00">Navigation</text>
</g>
<!-- 677&#45;&gt;230 -->
<g id="edge11" class="edge">
<title>677&#45;&gt;230</title>
<path fill="none" stroke="#38546c" stroke-width="1.2" stroke-opacity="0.400000" d="M4556.88,-2007.86C4843.84,-1926.85 5636.56,-1703.06 6023.44,-1593.85"/>
<polygon fill="#38546c" fill-opacity="0.400000" stroke="#38546c" stroke-width="1.2" stroke-opacity="0.400000" points="6024.35,-1597.23 6033.02,-1591.14 6022.45,-1590.49 6024.35,-1597.23"/>
</g>
<!-- 293 -->
<g id="node5" class="node">
<title>293</title>
<polygon fill="#e1f5fe" stroke="#b3b3b3" stroke-width="1.5" points="5996.55,-1968.44 5136.8,-1968.44 5136.8,-1853.19 6002.55,-1853.19 6002.55,-1962.44 5996.55,-1968.44"/>
<polyline fill="none" stroke="#b3b3b3" stroke-width="1.5" points="5996.55,-1968.44 5996.55,-1962.44"/>
<polyline fill="none" stroke="#b3b3b3" stroke-width="1.5" points="6002.55,-1962.44 5996.55,-1962.44"/>
<text xml:space="preserve" text-anchor="middle" x="5569.67" y="-1880.84" font-family="Verdana" font-size="88.00">Graph Visualization</text>
</g>
<!-- 677&#45;&gt;293 -->
<g id="edge7" class="edge">
<title>677&#45;&gt;293</title>
<path fill="none" stroke="#38546c" stroke-width="1.2" stroke-opacity="0.400000" d="M4557.02,-2025.84C4687.63,-2011.01 4916.93,-1984.96 5124.34,-1961.4"/>
<polygon fill="#38546c" fill-opacity="0.400000" stroke="#38546c" stroke-width="1.2" stroke-opacity="0.400000" points="5124.74,-1964.88 5134.28,-1960.27 5123.95,-1957.93 5124.74,-1964.88"/>
</g>
<!-- 78 -->
<g id="node6" class="node">
<title>78</title>
<polygon fill="#fbfbda" stroke="#b3b3b3" stroke-width="1.5" points="3668.79,-2320.64 3067.79,-2320.64 3067.79,-2205.39 3674.79,-2205.39 3674.79,-2314.64 3668.79,-2320.64"/>
<polyline fill="none" stroke="#b3b3b3" stroke-width="1.5" points="3668.79,-2320.64 3668.79,-2314.64"/>
<polyline fill="none" stroke="#b3b3b3" stroke-width="1.5" points="3674.79,-2314.64 3668.79,-2314.64"/>
<text xml:space="preserve" text-anchor="middle" x="3371.29" y="-2233.04" font-family="Verdana" font-size="88.00">Configuration</text>
</g>
<!-- 677&#45;&gt;78 -->
<g id="edge16" class="edge">
<title>677&#45;&gt;78</title>
<path fill="none" stroke="#38546c" stroke-width="1.2" stroke-opacity="0.400000" d="M4343.29,-2060.27C4186.25,-2093.03 3887.46,-2155.35 3662.42,-2202.29"/>
<polygon fill="#38546c" fill-opacity="0.400000" stroke="#38546c" stroke-width="1.2" stroke-opacity="0.400000" points="3661.94,-2198.81 3652.87,-2204.28 3663.37,-2205.67 3661.94,-2198.81"/>
</g>
<!-- 1016 -->
<g id="node8" class="node">
<title>1016</title>
<polygon fill="#ffeee0" stroke="#b3b3b3" stroke-width="1.5" points="6188.56,-1084.2 5805.81,-1084.2 5805.81,-968.95 6194.56,-968.95 6194.56,-1078.2 6188.56,-1084.2"/>
<polyline fill="none" stroke="#b3b3b3" stroke-width="1.5" points="6188.56,-1084.2 6188.56,-1078.2"/>
<polyline fill="none" stroke="#b3b3b3" stroke-width="1.5" points="6194.56,-1078.2 6188.56,-1078.2"/>
<text xml:space="preserve" text-anchor="middle" x="6000.19" y="-996.6" font-family="Verdana" font-size="88.00">VS Code</text>
</g>
<!-- 677&#45;&gt;1016 -->
<g id="edge17" class="edge">
<title>677&#45;&gt;1016</title>
<path fill="none" stroke="#38546c" stroke-width="1.2" stroke-opacity="0.400000" d="M4546.85,-1974.9C4824.28,-1793.87 5621.07,-1273.96 5901.28,-1091.11"/>
<polygon fill="#38546c" fill-opacity="0.400000" stroke="#38546c" stroke-width="1.2" stroke-opacity="0.400000" points="5903.04,-1094.14 5909.5,-1085.75 5899.22,-1088.28 5903.04,-1094.14"/>
</g>
<!-- 562 -->
<g id="node9" class="node">
<title>562</title>
<polygon fill="#e9f9ef" stroke="#b3b3b3" stroke-width="1.5" points="4609.68,-249.71 3168.68,-249.71 3168.68,-134.46 4615.68,-134.46 4615.68,-243.71 4609.68,-249.71"/>
<polyline fill="none" stroke="#b3b3b3" stroke-width="1.5" points="4609.68,-249.71 4609.68,-243.71"/>
<polyline fill="none" stroke="#b3b3b3" stroke-width="1.5" points="4615.68,-243.71 4609.68,-243.71"/>
<text xml:space="preserve" text-anchor="middle" x="3892.18" y="-162.11" font-family="Verdana" font-size="88.00">How to use with your text editor</text>
</g>
<!-- 677&#45;&gt;562 -->
<g id="edge15" class="edge">
<title>677&#45;&gt;562</title>
<path fill="none" stroke="#38546c" stroke-width="1.2" stroke-opacity="0.400000" d="M4431.14,-1974.97C4346.14,-1693.78 4001.72,-554.44 3913.07,-261.19"/>
<polygon fill="#38546c" fill-opacity="0.400000" stroke="#38546c" stroke-width="1.2" stroke-opacity="0.400000" points="3916.55,-260.6 3910.31,-252.04 3909.85,-262.62 3916.55,-260.6"/>
</g>
<!-- 549 -->
<g id="node10" class="node">
<title>549</title>
<polygon fill="#e2f6f6" stroke="#b3b3b3" stroke-width="1.5" points="5457.84,-305.26 4847.09,-305.26 4847.09,-190.01 5463.84,-190.01 5463.84,-299.26 5457.84,-305.26"/>
<polyline fill="none" stroke="#b3b3b3" stroke-width="1.5" points="5457.84,-305.26 5457.84,-299.26"/>
<polyline fill="none" stroke="#b3b3b3" stroke-width="1.5" points="5463.84,-299.26 5457.84,-299.26"/>
<text xml:space="preserve" text-anchor="middle" x="5155.46" y="-217.66" font-family="Verdana" font-size="88.00">How to install</text>
</g>
<!-- 677&#45;&gt;549 -->
<g id="edge1" class="edge">
<title>677&#45;&gt;549</title>
<path fill="none" stroke="#38546c" stroke-width="1.2" stroke-opacity="0.400000" d="M4475.08,-1974.78C4583.69,-1699.08 5015.66,-602.52 5128.42,-316.27"/>
<polygon fill="#38546c" fill-opacity="0.400000" stroke="#38546c" stroke-width="1.2" stroke-opacity="0.400000" points="5131.54,-317.91 5131.95,-307.32 5125.02,-315.35 5131.54,-317.91"/>
</g>
<!-- 247 -->
<g id="node11" class="node">
<title>247</title>
<polygon fill="#fff9de" stroke="#b3b3b3" stroke-width="1.5" points="4557.82,-740.15 4244.07,-740.15 4244.07,-624.9 4563.82,-624.9 4563.82,-734.15 4557.82,-740.15"/>
<polyline fill="none" stroke="#b3b3b3" stroke-width="1.5" points="4557.82,-740.15 4557.82,-734.15"/>
<polyline fill="none" stroke="#b3b3b3" stroke-width="1.5" points="4563.82,-734.15 4557.82,-734.15"/>
<text xml:space="preserve" text-anchor="middle" x="4403.94" y="-652.55" font-family="Verdana" font-size="88.00">Search</text>
</g>
<!-- 677&#45;&gt;247 -->
<g id="edge8" class="edge">
<title>677&#45;&gt;247</title>
<path fill="none" stroke="#38546c" stroke-width="1.2" stroke-opacity="0.400000" d="M4448.03,-1974.87C4440.36,-1749.87 4414.36,-987.88 4406.33,-752.43"/>
<polygon fill="#38546c" fill-opacity="0.400000" stroke="#38546c" stroke-width="1.2" stroke-opacity="0.400000" points="4409.83,-752.32 4405.99,-742.44 4402.83,-752.56 4409.83,-752.32"/>
</g>
<!-- 215 -->
<g id="node12" class="node">
<title>215</title>
<polygon fill="#f6e5ee" stroke="#b3b3b3" stroke-width="1.5" points="3657.04,-1570.49 2765.79,-1570.49 2765.79,-1455.24 3663.04,-1455.24 3663.04,-1564.49 3657.04,-1570.49"/>
<polyline fill="none" stroke="#b3b3b3" stroke-width="1.5" points="3657.04,-1570.49 3657.04,-1564.49"/>
<polyline fill="none" stroke="#b3b3b3" stroke-width="1.5" points="3663.04,-1564.49 3657.04,-1564.49"/>
<text xml:space="preserve" text-anchor="middle" x="3214.42" y="-1482.89" font-family="Verdana" font-size="88.00">Extract/Inline Notes</text>
</g>
<!-- 677&#45;&gt;215 -->
<g id="edge24" class="edge">
<title>677&#45;&gt;215</title>
<path fill="none" stroke="#38546c" stroke-width="1.2" stroke-opacity="0.400000" d="M4343.22,-1992.52C4122.12,-1898.57 3614.41,-1682.83 3362.19,-1575.66"/>
<polygon fill="#38546c" fill-opacity="0.400000" stroke="#38546c" stroke-width="1.2" stroke-opacity="0.400000" points="3363.73,-1572.51 3353.16,-1571.82 3360.99,-1578.95 3363.73,-1572.51"/>
</g>
<!-- 800 -->
<g id="node13" class="node">
<title>800</title>
<polygon fill="#dcf7f7" stroke="#b3b3b3" stroke-width="1.5" points="6493.17,-2183.58 6150.17,-2183.58 6150.17,-2068.33 6499.17,-2068.33 6499.17,-2177.58 6493.17,-2183.58"/>
<polyline fill="none" stroke="#b3b3b3" stroke-width="1.5" points="6493.17,-2183.58 6493.17,-2177.58"/>
<polyline fill="none" stroke="#b3b3b3" stroke-width="1.5" points="6499.17,-2177.58 6493.17,-2177.58"/>
<text xml:space="preserve" text-anchor="middle" x="6324.67" y="-2095.98" font-family="Verdana" font-size="88.00">Neovim</text>
</g>
<!-- 677&#45;&gt;800 -->
<g id="edge21" class="edge">
<title>677&#45;&gt;800</title>
<path fill="none" stroke="#38546c" stroke-width="1.2" stroke-opacity="0.400000" d="M4557.02,-2042.99C4863.63,-2057.38 5749.26,-2098.95 6137.99,-2117.2"/>
<polygon fill="#38546c" fill-opacity="0.400000" stroke="#38546c" stroke-width="1.2" stroke-opacity="0.400000" points="6137.66,-2120.68 6147.82,-2117.66 6137.99,-2113.69 6137.66,-2120.68"/>
</g>
<!-- 236 -->
<g id="node14" class="node">
<title>236</title>
<polygon fill="#e1f5fe" stroke="#b3b3b3" stroke-width="1.5" points="6772.2,-2713.49 5536.7,-2713.49 5536.7,-2598.24 6778.2,-2598.24 6778.2,-2707.49 6772.2,-2713.49"/>
<polyline fill="none" stroke="#b3b3b3" stroke-width="1.5" points="6772.2,-2713.49 6772.2,-2707.49"/>
<polyline fill="none" stroke="#b3b3b3" stroke-width="1.5" points="6778.2,-2707.49 6772.2,-2707.49"/>
<text xml:space="preserve" text-anchor="middle" x="6157.45" y="-2625.89" font-family="Verdana" font-size="88.00">Header levels normalization</text>
</g>
<!-- 677&#45;&gt;236 -->
<g id="edge13" class="edge">
<title>677&#45;&gt;236</title>
<path fill="none" stroke="#38546c" stroke-width="1.2" stroke-opacity="0.400000" d="M4556.98,-2076.63C4844.02,-2180.51 5634.11,-2466.46 5985.3,-2593.56"/>
<polygon fill="#38546c" fill-opacity="0.400000" stroke="#38546c" stroke-width="1.2" stroke-opacity="0.400000" points="5984.03,-2596.82 5994.62,-2596.93 5986.41,-2590.24 5984.03,-2596.82"/>
</g>
<!-- 226 -->
<g id="node16" class="node">
<title>226</title>
<polygon fill="#fae1ee" stroke="#b3b3b3" stroke-width="1.5" points="5356.16,-1154.01 4879.66,-1154.01 4879.66,-1038.76 5362.16,-1038.76 5362.16,-1148.01 5356.16,-1154.01"/>
<polyline fill="none" stroke="#b3b3b3" stroke-width="1.5" points="5356.16,-1154.01 5356.16,-1148.01"/>
<polyline fill="none" stroke="#b3b3b3" stroke-width="1.5" points="5362.16,-1148.01 5356.16,-1148.01"/>
<text xml:space="preserve" text-anchor="middle" x="5120.91" y="-1066.41" font-family="Verdana" font-size="88.00">Inlay hints</text>
</g>
<!-- 677&#45;&gt;226 -->
<g id="edge10" class="edge">
<title>677&#45;&gt;226</title>
<path fill="none" stroke="#38546c" stroke-width="1.2" stroke-opacity="0.400000" d="M4495.24,-1974.74C4616.31,-1804.77 4947.98,-1339.16 5072.67,-1164.11"/>
<polygon fill="#38546c" fill-opacity="0.400000" stroke="#38546c" stroke-width="1.2" stroke-opacity="0.400000" points="5075.51,-1166.16 5078.46,-1155.98 5069.81,-1162.09 5075.51,-1166.16"/>
</g>
<!-- 152 -->
<g id="node17" class="node">
<title>152</title>
<polygon fill="#eef2f5" stroke="#b3b3b3" stroke-width="1.5" points="5939.2,-620.5 5378.7,-620.5 5378.7,-505.25 5945.2,-505.25 5945.2,-614.5 5939.2,-620.5"/>
<polyline fill="none" stroke="#b3b3b3" stroke-width="1.5" points="5939.2,-620.5 5939.2,-614.5"/>
<polyline fill="none" stroke="#b3b3b3" stroke-width="1.5" points="5945.2,-614.5 5939.2,-614.5"/>
<text xml:space="preserve" text-anchor="middle" x="5661.95" y="-532.9" font-family="Verdana" font-size="88.00">Debug Mode</text>
</g>
<!-- 677&#45;&gt;152 -->
<g id="edge14" class="edge">
<title>677&#45;&gt;152</title>
<path fill="none" stroke="#38546c" stroke-width="1.2" stroke-opacity="0.400000" d="M4515.69,-1975.04C4725.32,-1773.63 5366.11,-1157.96 5366.11,-1157.96 5366.11,-1157.96 5550.05,-787.96 5627.85,-631.46"/>
<polygon fill="#38546c" fill-opacity="0.400000" stroke="#38546c" stroke-width="1.2" stroke-opacity="0.400000" points="5630.92,-633.16 5632.23,-622.64 5624.65,-630.04 5630.92,-633.16"/>
</g>
<!-- 204 -->
<g id="node19" class="node">
<title>204</title>
<polygon fill="#dcf7f7" stroke="#b3b3b3" stroke-width="1.5" points="4156.98,-2977.66 2340.23,-2977.66 2340.23,-2862.41 4162.98,-2862.41 4162.98,-2971.66 4156.98,-2977.66"/>
<polyline fill="none" stroke="#b3b3b3" stroke-width="1.5" points="4156.98,-2977.66 4156.98,-2971.66"/>
<polyline fill="none" stroke="#b3b3b3" stroke-width="1.5" points="4162.98,-2971.66 4156.98,-2971.66"/>
<text xml:space="preserve" text-anchor="middle" x="3251.61" y="-2890.06" font-family="Verdana" font-size="88.00">Text structure normalization / formatting</text>
</g>
<!-- 677&#45;&gt;204 -->
<g id="edge9" class="edge">
<title>677&#45;&gt;204</title>
<path fill="none" stroke="#38546c" stroke-width="1.2" stroke-opacity="0.400000" d="M4364.47,-2101.06C4144.73,-2262.77 3563.01,-2690.87 3340.18,-2854.86"/>
<polygon fill="#38546c" fill-opacity="0.400000" stroke="#38546c" stroke-width="1.2" stroke-opacity="0.400000" points="3338.24,-2851.93 3332.26,-2860.68 3342.39,-2857.57 3338.24,-2851.93"/>
</g>
<!-- 287 -->
<g id="node20" class="node">
<title>287</title>
<polygon fill="#eef2f5" stroke="#b3b3b3" stroke-width="1.5" points="3947.8,-3396.38 3151.8,-3396.38 3151.8,-3281.13 3953.8,-3281.13 3953.8,-3390.38 3947.8,-3396.38"/>
<polyline fill="none" stroke="#b3b3b3" stroke-width="1.5" points="3947.8,-3396.38 3947.8,-3390.38"/>
<polyline fill="none" stroke="#b3b3b3" stroke-width="1.5" points="3953.8,-3390.38 3947.8,-3390.38"/>
<text xml:space="preserve" text-anchor="middle" x="3552.8" y="-3308.78" font-family="Verdana" font-size="88.00">Text manipulation</text>
</g>
<!-- 677&#45;&gt;287 -->
<g id="edge20" class="edge">
<title>677&#45;&gt;287</title>
<path fill="none" stroke="#38546c" stroke-width="1.2" stroke-opacity="0.400000" d="M4431.27,-2100.99C4367.88,-2312.16 4166.93,-2981.61 4166.93,-2981.61 4166.93,-2981.61 3982.07,-3052.56 3982.07,-3052.56 3982.07,-3052.56 3776.54,-3189.58 3649.92,-3274.01"/>
<polygon fill="#38546c" fill-opacity="0.400000" stroke="#38546c" stroke-width="1.2" stroke-opacity="0.400000" points="3648.08,-3271.03 3641.7,-3279.49 3651.96,-3276.85 3648.08,-3271.03"/>
</g>
<!-- 366 -->
<g id="node23" class="node">
<title>366</title>
<polygon fill="#ffeee0" stroke="#b3b3b3" stroke-width="1.5" points="5831.62,-3893.38 4566.87,-3893.38 4566.87,-3778.13 5837.62,-3778.13 5837.62,-3887.38 5831.62,-3893.38"/>
<polyline fill="none" stroke="#b3b3b3" stroke-width="1.5" points="5831.62,-3893.38 5831.62,-3887.38"/>
<polyline fill="none" stroke="#b3b3b3" stroke-width="1.5" points="5837.62,-3887.38 5831.62,-3887.38"/>
<text xml:space="preserve" text-anchor="middle" x="5202.25" y="-3805.78" font-family="Verdana" font-size="88.00">How to use in command line</text>
</g>
<!-- 677&#45;&gt;366 -->
<g id="edge6" class="edge">
<title>677&#45;&gt;366</title>
<path fill="none" stroke="#38546c" stroke-width="1.2" stroke-opacity="0.400000" d="M4476.62,-2101.17C4592.25,-2377.58 5053.1,-3479.21 5173.4,-3766.79"/>
<polygon fill="#38546c" fill-opacity="0.400000" stroke="#38546c" stroke-width="1.2" stroke-opacity="0.400000" points="5170.08,-3767.93 5177.17,-3775.8 5176.54,-3765.23 5170.08,-3767.93"/>
</g>
<!-- 265 -->
<g id="node25" class="node">
<title>265</title>
<polygon fill="#eeebfa" stroke="#b3b3b3" stroke-width="1.5" points="4552.8,-3781.69 3870.8,-3781.69 3870.8,-3666.44 4558.8,-3666.44 4558.8,-3775.69 4552.8,-3781.69"/>
<polyline fill="none" stroke="#b3b3b3" stroke-width="1.5" points="4552.8,-3781.69 4552.8,-3775.69"/>
<polyline fill="none" stroke="#b3b3b3" stroke-width="1.5" points="4558.8,-3775.69 4552.8,-3775.69"/>
<text xml:space="preserve" text-anchor="middle" x="4214.8" y="-3694.09" font-family="Verdana" font-size="88.00">Sub&#45;directories</text>
</g>
<!-- 677&#45;&gt;265 -->
<g id="edge25" class="edge">
<title>677&#45;&gt;265</title>
<path fill="none" stroke="#38546c" stroke-width="1.2" stroke-opacity="0.400000" d="M4431.27,-2100.99C4367.88,-2312.16 4166.93,-2981.61 4166.93,-2981.61 4166.93,-2981.61 3982.07,-3052.56 3982.07,-3052.56 3982.07,-3052.56 3982.07,-3175.71 3982.07,-3175.71 3982.07,-3175.71 4123.07,-3507.94 4185.57,-3655.2"/>
<polygon fill="#38546c" fill-opacity="0.400000" stroke="#38546c" stroke-width="1.2" stroke-opacity="0.400000" points="4182.28,-3656.39 4189.4,-3664.23 4188.72,-3653.66 4182.28,-3656.39"/>
</g>
<!-- 257 -->
<g id="node26" class="node">
<title>257</title>
<polygon fill="#ffeee0" stroke="#b3b3b3" stroke-width="1.5" points="4848.27,-115.25 4266.02,-115.25 4266.02,0 4854.27,0 4854.27,-109.25 4848.27,-115.25"/>
<polyline fill="none" stroke="#b3b3b3" stroke-width="1.5" points="4848.27,-115.25 4848.27,-109.25"/>
<polyline fill="none" stroke="#b3b3b3" stroke-width="1.5" points="4854.27,-109.25 4848.27,-109.25"/>
<text xml:space="preserve" text-anchor="middle" x="4560.14" y="-27.65" font-family="Verdana" font-size="88.00">Notes search</text>
</g>
<!-- 677&#45;&gt;257 -->
<g id="edge2" class="edge">
<title>677&#45;&gt;257</title>
<path fill="none" stroke="#38546c" stroke-width="1.2" stroke-opacity="0.400000" d="M4456.19,-1974.74C4486.33,-1657.39 4619.63,-253.66 4619.63,-253.66 4619.63,-253.66 4619.63,-130.51 4619.63,-130.51 4619.63,-130.51 4617.88,-128.37 4614.98,-124.81"/>
<polygon fill="#38546c" fill-opacity="0.400000" stroke="#38546c" stroke-width="1.2" stroke-opacity="0.400000" points="4617.78,-122.7 4608.74,-117.17 4612.35,-127.13 4617.78,-122.7"/>
</g>
<!-- 254 -->
<g id="node27" class="node">
<title>254</title>
<polygon fill="#dcf7f7" stroke="#b3b3b3" stroke-width="1.5" points="6291.03,-3234.23 5636.03,-3234.23 5636.03,-3118.98 6297.03,-3118.98 6297.03,-3228.23 6291.03,-3234.23"/>
<polyline fill="none" stroke="#b3b3b3" stroke-width="1.5" points="6291.03,-3234.23 6291.03,-3228.23"/>
<polyline fill="none" stroke="#b3b3b3" stroke-width="1.5" points="6297.03,-3228.23 6291.03,-3228.23"/>
<text xml:space="preserve" text-anchor="middle" x="5966.53" y="-3146.63" font-family="Verdana" font-size="88.00">Files renaming</text>
</g>
<!-- 677&#45;&gt;254 -->
<g id="edge19" class="edge">
<title>677&#45;&gt;254</title>
<path fill="none" stroke="#38546c" stroke-width="1.2" stroke-opacity="0.400000" d="M4550.57,-2100.99C4818.95,-2269.43 5532.75,-2717.44 5532.75,-2717.44 5532.75,-2717.44 5608.42,-2758.39 5608.42,-2758.39 5608.42,-2758.39 5808.21,-2991.72 5909.34,-3109.81"/>
<polygon fill="#38546c" fill-opacity="0.400000" stroke="#38546c" stroke-width="1.2" stroke-opacity="0.400000" points="5906.39,-3111.75 5915.56,-3117.07 5911.71,-3107.2 5906.39,-3111.75"/>
</g>
<!-- 1 -->
<g id="node28" class="node">
<title>1</title>
<polygon fill="#eef2f5" stroke="#b3b3b3" stroke-width="1.5" points="2500.08,-2094.14 1954.58,-2094.14 1954.58,-1978.89 2506.08,-1978.89 2506.08,-2088.14 2500.08,-2094.14"/>
<polyline fill="none" stroke="#b3b3b3" stroke-width="1.5" points="2500.08,-2094.14 2500.08,-2088.14"/>
<polyline fill="none" stroke="#b3b3b3" stroke-width="1.5" points="2506.08,-2088.14 2500.08,-2088.14"/>
<text xml:space="preserve" text-anchor="middle" x="2230.33" y="-2006.54" font-family="Verdana" font-size="88.00">Architecture</text>
</g>
<!-- 677&#45;&gt;1 -->
<g id="edge5" class="edge">
<title>677&#45;&gt;1</title>
<path fill="none" stroke="#38546c" stroke-width="1.2" stroke-opacity="0.400000" d="M4343.49,-2037.91C4015.77,-2037.69 3015.85,-2037.03 2518.09,-2036.7"/>
<polygon fill="#38546c" fill-opacity="0.400000" stroke="#38546c" stroke-width="1.2" stroke-opacity="0.400000" points="2518.25,-2033.2 2508.25,-2036.7 2518.24,-2040.2 2518.25,-2033.2"/>
</g>
<!-- 156 -->
<g id="node29" class="node">
<title>156</title>
<polygon fill="#f2fadf" stroke="#b3b3b3" stroke-width="1.5" points="4128.18,-1208.68 3368.93,-1208.68 3368.93,-1093.43 4134.18,-1093.43 4134.18,-1202.68 4128.18,-1208.68"/>
<polyline fill="none" stroke="#b3b3b3" stroke-width="1.5" points="4128.18,-1208.68 4128.18,-1202.68"/>
<polyline fill="none" stroke="#b3b3b3" stroke-width="1.5" points="4134.18,-1202.68 4128.18,-1202.68"/>
<text xml:space="preserve" text-anchor="middle" x="3751.55" y="-1121.08" font-family="Verdana" font-size="88.00">Design principles</text>
</g>
<!-- 677&#45;&gt;156 -->
<g id="edge4" class="edge">
<title>677&#45;&gt;156</title>
<path fill="none" stroke="#38546c" stroke-width="1.2" stroke-opacity="0.400000" d="M4400.5,-1974.9C4273.07,-1813.13 3935.47,-1384.54 3804.51,-1218.29"/>
<polygon fill="#38546c" fill-opacity="0.400000" stroke="#38546c" stroke-width="1.2" stroke-opacity="0.400000" points="3807.37,-1216.26 3798.43,-1210.57 3801.87,-1220.59 3807.37,-1216.26"/>
</g>
<!-- 748 -->
<g id="node31" class="node">
<title>748</title>
<polygon fill="#fff9de" stroke="#b3b3b3" stroke-width="1.5" points="4716.02,-3171.76 3986.02,-3171.76 3986.02,-3056.51 4722.02,-3056.51 4722.02,-3165.76 4716.02,-3171.76"/>
<polyline fill="none" stroke="#b3b3b3" stroke-width="1.5" points="4716.02,-3171.76 4716.02,-3165.76"/>
<polyline fill="none" stroke="#b3b3b3" stroke-width="1.5" points="4722.02,-3165.76 4716.02,-3165.76"/>
<text xml:space="preserve" text-anchor="middle" x="4354.02" y="-3084.16" font-family="Verdana" font-size="88.00">Maps of Content</text>
</g>
<!-- 677&#45;&gt;748 -->
<g id="edge18" class="edge">
<title>677&#45;&gt;748</title>
<path fill="none" stroke="#38546c" stroke-width="1.2" stroke-opacity="0.400000" d="M4444.56,-2100.88C4427.74,-2289.12 4377.88,-2847.1 4360.27,-3044.21"/>
<polygon fill="#38546c" fill-opacity="0.400000" stroke="#38546c" stroke-width="1.2" stroke-opacity="0.400000" points="4356.79,-3043.75 4359.39,-3054.02 4363.76,-3044.37 4356.79,-3043.75"/>
</g>
<!-- 212 -->
<g id="node32" class="node">
<title>212</title>
<polygon fill="#f6e5ee" stroke="#b3b3b3" stroke-width="1.5" points="5598.47,-2877.59 4942.72,-2877.59 4942.72,-2762.34 5604.47,-2762.34 5604.47,-2871.59 5598.47,-2877.59"/>
<polyline fill="none" stroke="#b3b3b3" stroke-width="1.5" points="5598.47,-2877.59 5598.47,-2871.59"/>
<polyline fill="none" stroke="#b3b3b3" stroke-width="1.5" points="5604.47,-2871.59 5598.47,-2871.59"/>
<text xml:space="preserve" text-anchor="middle" x="5273.59" y="-2789.99" font-family="Verdana" font-size="88.00">Auto&#45;complete</text>
</g>
<!-- 677&#45;&gt;212 -->
<g id="edge12" class="edge">
<title>677&#45;&gt;212</title>
<path fill="none" stroke="#38546c" stroke-width="1.2" stroke-opacity="0.400000" d="M4516.52,-2100.98C4669.83,-2246.58 5047.51,-2605.26 5203.97,-2753.85"/>
<polygon fill="#38546c" fill-opacity="0.400000" stroke="#38546c" stroke-width="1.2" stroke-opacity="0.400000" points="5201.18,-2756.02 5210.84,-2760.37 5206,-2750.95 5201.18,-2756.02"/>
</g>
<!-- 183 -->
<g id="node33" class="node">
<title>183</title>
<polygon fill="#eef2f5" stroke="#b3b3b3" stroke-width="1.5" points="3885.59,-689.41 2904.34,-689.41 2904.34,-574.16 3891.59,-574.16 3891.59,-683.41 3885.59,-689.41"/>
<polyline fill="none" stroke="#b3b3b3" stroke-width="1.5" points="3885.59,-689.41 3885.59,-683.41"/>
<polyline fill="none" stroke="#b3b3b3" stroke-width="1.5" points="3891.59,-683.41 3885.59,-683.41"/>
<text xml:space="preserve" text-anchor="middle" x="3397.97" y="-601.81" font-family="Verdana" font-size="88.00">Basic journal example</text>
</g>
<!-- 677&#45;&gt;183 -->
<g id="edge22" class="edge">
<title>677&#45;&gt;183</title>
<path fill="none" stroke="#38546c" stroke-width="1.2" stroke-opacity="0.400000" d="M4429.47,-1975.01C4359.77,-1763.17 4138.13,-1089.48 4138.13,-1089.48 4138.13,-1089.48 3705.72,-822.09 3501.91,-696.06"/>
<polygon fill="#38546c" fill-opacity="0.400000" stroke="#38546c" stroke-width="1.2" stroke-opacity="0.400000" points="3503.98,-693.22 3493.63,-690.94 3500.29,-699.18 3503.98,-693.22"/>
</g>
<!-- 1158 -->
<g id="node34" class="node">
<title>1158</title>
<polygon fill="#dcf7f7" stroke="#b3b3b3" stroke-width="1.5" points="4188.43,-4129.02 3609.93,-4129.02 3609.93,-4013.77 4194.43,-4013.77 4194.43,-4123.02 4188.43,-4129.02"/>
<polyline fill="none" stroke="#b3b3b3" stroke-width="1.5" points="4188.43,-4129.02 4188.43,-4123.02"/>
<polyline fill="none" stroke="#b3b3b3" stroke-width="1.5" points="4194.43,-4123.02 4188.43,-4123.02"/>
<text xml:space="preserve" text-anchor="middle" x="3902.18" y="-4041.42" font-family="Verdana" font-size="88.00">Why it exists</text>
</g>
<!-- 677&#45;&gt;1158 -->
<g id="edge23" class="edge">
<title>677&#45;&gt;1158</title>
<path fill="none" stroke="#38546c" stroke-width="1.2" stroke-opacity="0.400000" d="M4431.27,-2100.99C4367.88,-2312.16 4166.93,-2981.61 4166.93,-2981.61 4166.93,-2981.61 3982.07,-3052.56 3982.07,-3052.56 3982.07,-3052.56 3957.75,-3400.33 3957.75,-3400.33 3957.75,-3400.33 3866.85,-3662.49 3866.85,-3662.49 3866.85,-3662.49 3866.85,-3785.64 3866.85,-3785.64 3866.85,-3785.64 3883.09,-3917.02 3893.55,-4001.62"/>
<polygon fill="#38546c" fill-opacity="0.400000" stroke="#38546c" stroke-width="1.2" stroke-opacity="0.400000" points="3890.06,-4001.92 3894.76,-4011.42 3897.01,-4001.07 3890.06,-4001.92"/>
</g>
<!-- 536 -->
<g id="node35" class="node">
<title>536</title>
<polygon fill="#d9fae7" stroke="#b3b3b3" stroke-width="1.5" points="5721.91,-3630.6 5493.66,-3630.6 5493.66,-3515.35 5727.91,-3515.35 5727.91,-3624.6 5721.91,-3630.6"/>
<polyline fill="none" stroke="#b3b3b3" stroke-width="1.5" points="5721.91,-3630.6 5721.91,-3624.6"/>
<polyline fill="none" stroke="#b3b3b3" stroke-width="1.5" points="5727.91,-3624.6 5721.91,-3624.6"/>
<text xml:space="preserve" text-anchor="middle" x="5610.79" y="-3543" font-family="Verdana" font-size="88.00">Helix</text>
</g>
<!-- 677&#45;&gt;536 -->
<g id="edge3" class="edge">
<title>677&#45;&gt;536</title>
<path fill="none" stroke="#38546c" stroke-width="1.2" stroke-opacity="0.400000" d="M4486.71,-2101.04C4600.14,-2296.88 4938.77,-2881.54 4938.77,-2881.54 4938.77,-2881.54 5377.56,-3333.02 5546.01,-3506.33"/>
<polygon fill="#38546c" fill-opacity="0.400000" stroke="#38546c" stroke-width="1.2" stroke-opacity="0.400000" points="5543.32,-3508.59 5552.8,-3513.32 5548.34,-3503.71 5543.32,-3508.59"/>
</g>
<!-- 509 -->
<g id="node3" class="node">
<title>509</title>
<polygon fill="#ffeaea" stroke="#b3b3b3" stroke-width="1.5" points="2132.26,-126.63 1358.76,-126.63 1358.76,-20.38 2138.26,-20.38 2138.26,-120.63 2132.26,-126.63"/>
<polyline fill="none" stroke="#b3b3b3" stroke-width="1.5" points="2132.26,-126.63 2132.26,-120.63"/>
<polyline fill="none" stroke="#b3b3b3" stroke-width="1.5" points="2138.26,-120.63 2132.26,-120.63"/>
<text xml:space="preserve" text-anchor="middle" x="1748.51" y="-46.63" font-family="Verdana" font-size="80.00">Advanced Features</text>
</g>
<!-- 134 -->
<g id="node4" class="node">
<title>134</title>
<polygon fill="#e1f5fe" stroke="#b3b3b3" stroke-width="1.5" points="1259.57,-3067.97 543.82,-3067.97 543.82,-2961.72 1265.57,-2961.72 1265.57,-3061.97 1259.57,-3067.97"/>
<polyline fill="none" stroke="#b3b3b3" stroke-width="1.5" points="1259.57,-3067.97 1259.57,-3061.97"/>
<polyline fill="none" stroke="#b3b3b3" stroke-width="1.5" points="1265.57,-3061.97 1259.57,-3061.97"/>
<text xml:space="preserve" text-anchor="middle" x="904.69" y="-2987.97" font-family="Verdana" font-size="80.00">Core Architecture</text>
</g>
<!-- 991 -->
<g id="node7" class="node">
<title>991</title>
<polygon fill="#dcf7f7" stroke="#b3b3b3" stroke-width="1.5" points="1429.34,-1084.72 371.59,-1084.72 371.59,-978.47 1435.34,-978.47 1435.34,-1078.72 1429.34,-1084.72"/>
<polyline fill="none" stroke="#b3b3b3" stroke-width="1.5" points="1429.34,-1084.72 1429.34,-1078.72"/>
<polyline fill="none" stroke="#b3b3b3" stroke-width="1.5" points="1435.34,-1078.72 1429.34,-1078.72"/>
<text xml:space="preserve" text-anchor="middle" x="903.46" y="-1004.72" font-family="Verdana" font-size="80.00">Node Types and Structure</text>
</g>
<!-- 710 -->
<g id="node15" class="node">
<title>710</title>
<polygon fill="#ffeee0" stroke="#b3b3b3" stroke-width="1.5" points="1929.27,-3602.22 590.27,-3602.22 590.27,-3495.97 1935.27,-3495.97 1935.27,-3596.22 1929.27,-3602.22"/>
<polyline fill="none" stroke="#b3b3b3" stroke-width="1.5" points="1929.27,-3602.22 1929.27,-3596.22"/>
<polyline fill="none" stroke="#b3b3b3" stroke-width="1.5" points="1935.27,-3596.22 1929.27,-3596.22"/>
<text xml:space="preserve" text-anchor="middle" x="1262.77" y="-3522.22" font-family="Verdana" font-size="80.00">Indexing and Reference Systems</text>
</g>
<!-- 12 -->
<g id="node18" class="node">
<title>12</title>
<polygon fill="#f2fadf" stroke="#b3b3b3" stroke-width="1.5" points="4791.95,-5821.61 4127.2,-5821.61 4127.2,-5715.36 4797.95,-5715.36 4797.95,-5815.61 4791.95,-5821.61"/>
<polyline fill="none" stroke="#b3b3b3" stroke-width="1.5" points="4791.95,-5821.61 4791.95,-5815.61"/>
<polyline fill="none" stroke="#b3b3b3" stroke-width="1.5" points="4797.95,-5815.61 4791.95,-5815.61"/>
<text xml:space="preserve" text-anchor="middle" x="4462.58" y="-5741.61" font-family="Verdana" font-size="80.00">Unique Features</text>
</g>
<!-- 109 -->
<g id="node21" class="node">
<title>109</title>
<polygon fill="#d9fae7" stroke="#b3b3b3" stroke-width="1.5" points="1175.44,-1737.7 247.44,-1737.7 247.44,-1631.45 1181.44,-1631.45 1181.44,-1731.7 1175.44,-1737.7"/>
<polyline fill="none" stroke="#b3b3b3" stroke-width="1.5" points="1175.44,-1737.7 1175.44,-1731.7"/>
<polyline fill="none" stroke="#b3b3b3" stroke-width="1.5" points="1181.44,-1731.7 1175.44,-1731.7"/>
<text xml:space="preserve" text-anchor="middle" x="714.44" y="-1657.7" font-family="Verdana" font-size="80.00">Data Flow Architecture</text>
</g>
<!-- 730 -->
<g id="node22" class="node">
<title>730</title>
<polygon fill="#f2fadf" stroke="#b3b3b3" stroke-width="1.5" points="1393.75,-2426.17 0,-2426.17 0,-2319.92 1399.75,-2319.92 1399.75,-2420.17 1393.75,-2426.17"/>
<polyline fill="none" stroke="#b3b3b3" stroke-width="1.5" points="1393.75,-2426.17 1393.75,-2420.17"/>
<polyline fill="none" stroke="#b3b3b3" stroke-width="1.5" points="1399.75,-2420.17 1393.75,-2420.17"/>
<text xml:space="preserve" text-anchor="middle" x="699.88" y="-2346.17" font-family="Verdana" font-size="80.00">Key System and Cross&#45;References</text>
</g>
<!-- 166 -->
<g id="node24" class="node">
<title>166</title>
<polygon fill="#e9f9ef" stroke="#b3b3b3" stroke-width="1.5" points="2335.88,-4010.57 1119.88,-4010.57 1119.88,-3904.32 2341.88,-3904.32 2341.88,-4004.57 2335.88,-4010.57"/>
<polyline fill="none" stroke="#b3b3b3" stroke-width="1.5" points="2335.88,-4010.57 2335.88,-4004.57"/>
<polyline fill="none" stroke="#b3b3b3" stroke-width="1.5" points="2341.88,-4004.57 2335.88,-4004.57"/>
<text xml:space="preserve" text-anchor="middle" x="1730.88" y="-3930.57" font-family="Verdana" font-size="80.00">Document Processing Pipeline</text>
</g>
<!-- 1&#45;&gt;509 -->
<g id="edge28" class="edge">
<title>1&#45;&gt;509</title>
<path fill="none" stroke="#38546c" stroke-width="1.2" stroke-opacity="0.400000" d="M2221.31,-1978.49C2177.02,-1693.85 1984.88,-458.81 1984.88,-458.81 1984.88,-458.81 1854.58,-246.42 1787.47,-137.01"/>
<polygon fill="#38546c" fill-opacity="0.400000" stroke="#38546c" stroke-width="1.2" stroke-opacity="0.400000" points="1790.53,-135.32 1782.32,-128.63 1784.57,-138.98 1790.53,-135.32"/>
</g>
<!-- 1&#45;&gt;134 -->
<g id="edge29" class="edge">
<title>1&#45;&gt;134</title>
<path fill="none" stroke="#38546c" stroke-width="1.2" stroke-opacity="0.400000" d="M2151.38,-2094.78C1916.78,-2267.91 1225.46,-2778.12 986.81,-2954.25"/>
<polygon fill="#38546c" fill-opacity="0.400000" stroke="#38546c" stroke-width="1.2" stroke-opacity="0.400000" points="984.92,-2951.29 978.95,-2960.05 989.08,-2956.92 984.92,-2951.29"/>
</g>
<!-- 1&#45;&gt;991 -->
<g id="edge31" class="edge">
<title>1&#45;&gt;991</title>
<path fill="none" stroke="#38546c" stroke-width="1.2" stroke-opacity="0.400000" d="M2153.26,-1978.14C1919.65,-1801.22 1220.99,-1272.07 983.5,-1092.21"/>
<polygon fill="#38546c" fill-opacity="0.400000" stroke="#38546c" stroke-width="1.2" stroke-opacity="0.400000" points="985.76,-1089.53 975.68,-1086.28 981.54,-1095.11 985.76,-1089.53"/>
</g>
<!-- 1&#45;&gt;710 -->
<g id="edge32" class="edge">
<title>1&#45;&gt;710</title>
<path fill="none" stroke="#38546c" stroke-width="1.2" stroke-opacity="0.400000" d="M2193,-2094.88C2040.06,-2333.97 1462.06,-3237.55 1303.32,-3485.71"/>
<polygon fill="#38546c" fill-opacity="0.400000" stroke="#38546c" stroke-width="1.2" stroke-opacity="0.400000" points="1300.6,-3483.46 1298.16,-3493.77 1306.5,-3487.23 1300.6,-3483.46"/>
</g>
<!-- 1&#45;&gt;109 -->
<g id="edge27" class="edge">
<title>1&#45;&gt;109</title>
<path fill="none" stroke="#38546c" stroke-width="1.2" stroke-opacity="0.400000" d="M1979.16,-1978.2C1695.71,-1912.39 1237.75,-1806.07 957.63,-1741.04"/>
<polygon fill="#38546c" fill-opacity="0.400000" stroke="#38546c" stroke-width="1.2" stroke-opacity="0.400000" points="958.8,-1737.72 948.27,-1738.86 957.22,-1744.53 958.8,-1737.72"/>
</g>
<!-- 1&#45;&gt;730 -->
<g id="edge30" class="edge">
<title>1&#45;&gt;730</title>
<path fill="none" stroke="#38546c" stroke-width="1.2" stroke-opacity="0.400000" d="M1965.06,-2094.84C1681.77,-2157.14 1235.92,-2255.18 956.13,-2316.7"/>
<polygon fill="#38546c" fill-opacity="0.400000" stroke="#38546c" stroke-width="1.2" stroke-opacity="0.400000" points="955.39,-2313.28 946.37,-2318.84 956.89,-2320.11 955.39,-2313.28"/>
</g>
<!-- 1&#45;&gt;166 -->
<g id="edge26" class="edge">
<title>1&#45;&gt;166</title>
<path fill="none" stroke="#38546c" stroke-width="1.2" stroke-opacity="0.400000" d="M2219.54,-2094.71C2166.85,-2378.78 1939.22,-3606.17 1939.22,-3606.17 1939.22,-3606.17 1828.82,-3792.3 1768.75,-3893.59"/>
<polygon fill="#38546c" fill-opacity="0.400000" stroke="#38546c" stroke-width="1.2" stroke-opacity="0.400000" points="1765.76,-3891.76 1763.67,-3902.15 1771.78,-3895.33 1765.76,-3891.76"/>
</g>
<!-- 498 -->
<g id="node30" class="node">
<title>498</title>
<polygon fill="#ffeaea" stroke="#b3b3b3" stroke-width="1.5" points="1974.93,-569.01 617.18,-569.01 617.18,-462.76 1980.93,-462.76 1980.93,-563.01 1974.93,-569.01"/>
<polyline fill="none" stroke="#b3b3b3" stroke-width="1.5" points="1974.93,-569.01 1974.93,-563.01"/>
<polyline fill="none" stroke="#b3b3b3" stroke-width="1.5" points="1980.93,-563.01 1974.93,-563.01"/>
<text xml:space="preserve" text-anchor="middle" x="1299.06" y="-489.01" font-family="Verdana" font-size="80.00">Graph Operations and Algorithms</text>
</g>
<!-- 1&#45;&gt;498 -->
<g id="edge33" class="edge">
<title>1&#45;&gt;498</title>
<path fill="none" stroke="#38546c" stroke-width="1.2" stroke-opacity="0.400000" d="M2194.68,-1978.3C2047.92,-1738.65 1491,-829.3 1338.1,-579.63"/>
<polygon fill="#38546c" fill-opacity="0.400000" stroke="#38546c" stroke-width="1.2" stroke-opacity="0.400000" points="1341.13,-577.88 1332.92,-571.18 1335.16,-581.54 1341.13,-577.88"/>
</g>
<!-- 1158&#45;&gt;12 -->
<g id="edge34" class="edge">
<title>1158&#45;&gt;12</title>
<path fill="none" stroke="#38546c" stroke-width="1.2" stroke-opacity="0.400000" d="M3921.3,-4129.32C4006.55,-4387.46 4351.55,-5432.24 4441.2,-5703.75"/>
<polygon fill="#38546c" fill-opacity="0.400000" stroke="#38546c" stroke-width="1.2" stroke-opacity="0.400000" points="4437.88,-5704.85 4444.34,-5713.24 4444.53,-5702.65 4437.88,-5704.85"/>
</g>
</g>
</svg>
