<?xml version="1.0" encoding="UTF-8" standalone="no"?>
<!DOCTYPE svg PUBLIC "-//W3C//DTD SVG 1.1//EN"
 "http://www.w3.org/Graphics/SVG/1.1/DTD/svg11.dtd">
<!-- Generated by graphviz version 13.1.2 (20250808.2320)
 -->
<!-- Title: G Pages: 1 -->
<svg width="6093pt" height="7565pt"
 viewBox="0.00 0.00 6093.00 7565.00" xmlns="http://www.w3.org/2000/svg" xmlns:xlink="http://www.w3.org/1999/xlink">
<g id="graph0" class="graph" transform="scale(1 1) rotate(0) translate(36 7550.42)">
<title>G</title>
<polygon fill="white" stroke="none" points="-36,14.4 -36,-7550.42 6056.97,-7550.42 6056.97,14.4 -36,14.4"/>
<!-- 549 -->
<g id="node1" class="node">
<title>549</title>
<polygon fill="#e2f6f6" stroke="#b3b3b3" stroke-width="1.5" points="1930.2,-3837.79 1319.45,-3837.79 1319.45,-3722.54 1936.2,-3722.54 1936.2,-3831.79 1930.2,-3837.79"/>
<polyline fill="none" stroke="#b3b3b3" stroke-width="1.5" points="1930.2,-3837.79 1930.2,-3831.79"/>
<polyline fill="none" stroke="#b3b3b3" stroke-width="1.5" points="1936.2,-3831.79 1930.2,-3831.79"/>
<text xml:space="preserve" text-anchor="middle" x="1627.82" y="-3750.19" font-family="Verdana" font-size="88.00">How to install</text>
</g>
<!-- 152 -->
<g id="node2" class="node">
<title>152</title>
<polygon fill="#eef2f5" stroke="#b3b3b3" stroke-width="1.5" points="5576.52,-4053.83 5016.02,-4053.83 5016.02,-3938.58 5582.52,-3938.58 5582.52,-4047.83 5576.52,-4053.83"/>
<polyline fill="none" stroke="#b3b3b3" stroke-width="1.5" points="5576.52,-4053.83 5576.52,-4047.83"/>
<polyline fill="none" stroke="#b3b3b3" stroke-width="1.5" points="5582.52,-4047.83 5576.52,-4047.83"/>
<text xml:space="preserve" text-anchor="middle" x="5299.27" y="-3966.23" font-family="Verdana" font-size="88.00">Debug Mode</text>
</g>
<!-- 215 -->
<g id="node3" class="node">
<title>215</title>
<polygon fill="#f6e5ee" stroke="#b3b3b3" stroke-width="1.5" points="4161.88,-2509.98 3270.63,-2509.98 3270.63,-2394.73 4167.88,-2394.73 4167.88,-2503.98 4161.88,-2509.98"/>
<polyline fill="none" stroke="#b3b3b3" stroke-width="1.5" points="4161.88,-2509.98 4161.88,-2503.98"/>
<polyline fill="none" stroke="#b3b3b3" stroke-width="1.5" points="4167.88,-2503.98 4161.88,-2503.98"/>
<text xml:space="preserve" text-anchor="middle" x="3719.25" y="-2422.38" font-family="Verdana" font-size="88.00">Extract/Inline Notes</text>
</g>
<!-- 366 -->
<g id="node4" class="node">
<title>366</title>
<polygon fill="#ffeee0" stroke="#b3b3b3" stroke-width="1.5" points="2987.37,-5627.04 1722.62,-5627.04 1722.62,-5511.79 2993.37,-5511.79 2993.37,-5621.04 2987.37,-5627.04"/>
<polyline fill="none" stroke="#b3b3b3" stroke-width="1.5" points="2987.37,-5627.04 2987.37,-5621.04"/>
<polyline fill="none" stroke="#b3b3b3" stroke-width="1.5" points="2993.37,-5621.04 2987.37,-5621.04"/>
<text xml:space="preserve" text-anchor="middle" x="2358" y="-5539.44" font-family="Verdana" font-size="88.00">How to use in command line</text>
</g>
<!-- 710 -->
<g id="node5" class="node">
<title>710</title>
<polygon fill="#ffeee0" stroke="#b3b3b3" stroke-width="1.5" points="4285.56,-106.25 2946.56,-106.25 2946.56,0 4291.56,0 4291.56,-100.25 4285.56,-106.25"/>
<polyline fill="none" stroke="#b3b3b3" stroke-width="1.5" points="4285.56,-106.25 4285.56,-100.25"/>
<polyline fill="none" stroke="#b3b3b3" stroke-width="1.5" points="4291.56,-100.25 4285.56,-100.25"/>
<text xml:space="preserve" text-anchor="middle" x="3619.06" y="-26.25" font-family="Verdana" font-size="80.00">Indexing and Reference Systems</text>
</g>
<!-- 1158 -->
<g id="node6" class="node">
<title>1158</title>
<polygon fill="#dcf7f7" stroke="#b3b3b3" stroke-width="1.5" points="4600.07,-5986.89 4021.57,-5986.89 4021.57,-5871.64 4606.07,-5871.64 4606.07,-5980.89 4600.07,-5986.89"/>
<polyline fill="none" stroke="#b3b3b3" stroke-width="1.5" points="4600.07,-5986.89 4600.07,-5980.89"/>
<polyline fill="none" stroke="#b3b3b3" stroke-width="1.5" points="4606.07,-5980.89 4600.07,-5980.89"/>
<text xml:space="preserve" text-anchor="middle" x="4313.82" y="-5899.29" font-family="Verdana" font-size="88.00">Why it exists</text>
</g>
<!-- 12 -->
<g id="node35" class="node">
<title>12</title>
<polygon fill="#f2fadf" stroke="#b3b3b3" stroke-width="1.5" points="5380.44,-7536.02 4715.69,-7536.02 4715.69,-7429.77 5386.44,-7429.77 5386.44,-7530.02 5380.44,-7536.02"/>
<polyline fill="none" stroke="#b3b3b3" stroke-width="1.5" points="5380.44,-7536.02 5380.44,-7530.02"/>
<polyline fill="none" stroke="#b3b3b3" stroke-width="1.5" points="5386.44,-7530.02 5380.44,-7530.02"/>
<text xml:space="preserve" text-anchor="middle" x="5051.07" y="-7456.02" font-family="Verdana" font-size="80.00">Unique Features</text>
</g>
<!-- 1158&#45;&gt;12 -->
<g id="edge34" class="edge">
<title>1158&#45;&gt;12</title>
<path fill="none" stroke="#38546c" stroke-width="1.2" stroke-opacity="0.400000" d="M4341.38,-5987.34C4456.7,-6230.36 4900.19,-7164.94 5020.7,-7418.89"/>
<polygon fill="#38546c" fill-opacity="0.400000" stroke="#38546c" stroke-width="1.2" stroke-opacity="0.400000" points="5017.46,-7420.23 5024.91,-7427.77 5023.78,-7417.23 5017.46,-7420.23"/>
</g>
<!-- 230 -->
<g id="node7" class="node">
<title>230</title>
<polygon fill="#eef2f5" stroke="#b3b3b3" stroke-width="1.5" points="2190.4,-3380.78 1711.65,-3380.78 1711.65,-3265.53 2196.4,-3265.53 2196.4,-3374.78 2190.4,-3380.78"/>
<polyline fill="none" stroke="#b3b3b3" stroke-width="1.5" points="2190.4,-3380.78 2190.4,-3374.78"/>
<polyline fill="none" stroke="#b3b3b3" stroke-width="1.5" points="2196.4,-3374.78 2190.4,-3374.78"/>
<text xml:space="preserve" text-anchor="middle" x="1954.03" y="-3293.18" font-family="Verdana" font-size="88.00">Navigation</text>
</g>
<!-- 247 -->
<g id="node8" class="node">
<title>247</title>
<polygon fill="#fff9de" stroke="#b3b3b3" stroke-width="1.5" points="5697.17,-3100.85 5383.42,-3100.85 5383.42,-2985.6 5703.17,-2985.6 5703.17,-3094.85 5697.17,-3100.85"/>
<polyline fill="none" stroke="#b3b3b3" stroke-width="1.5" points="5697.17,-3100.85 5697.17,-3094.85"/>
<polyline fill="none" stroke="#b3b3b3" stroke-width="1.5" points="5703.17,-3094.85 5697.17,-3094.85"/>
<text xml:space="preserve" text-anchor="middle" x="5543.3" y="-3013.25" font-family="Verdana" font-size="88.00">Search</text>
</g>
<!-- 204 -->
<g id="node9" class="node">
<title>204</title>
<polygon fill="#dcf7f7" stroke="#b3b3b3" stroke-width="1.5" points="3285.21,-3092.82 1468.46,-3092.82 1468.46,-2977.57 3291.21,-2977.57 3291.21,-3086.82 3285.21,-3092.82"/>
<polyline fill="none" stroke="#b3b3b3" stroke-width="1.5" points="3285.21,-3092.82 3285.21,-3086.82"/>
<polyline fill="none" stroke="#b3b3b3" stroke-width="1.5" points="3291.21,-3086.82 3285.21,-3086.82"/>
<text xml:space="preserve" text-anchor="middle" x="2379.84" y="-3005.22" font-family="Verdana" font-size="88.00">Text structure normalization / formatting</text>
</g>
<!-- 254 -->
<g id="node10" class="node">
<title>254</title>
<polygon fill="#dcf7f7" stroke="#b3b3b3" stroke-width="1.5" points="4960.62,-2454.2 4305.62,-2454.2 4305.62,-2338.95 4966.62,-2338.95 4966.62,-2448.2 4960.62,-2454.2"/>
<polyline fill="none" stroke="#b3b3b3" stroke-width="1.5" points="4960.62,-2454.2 4960.62,-2448.2"/>
<polyline fill="none" stroke="#b3b3b3" stroke-width="1.5" points="4966.62,-2448.2 4960.62,-2448.2"/>
<text xml:space="preserve" text-anchor="middle" x="4636.12" y="-2366.6" font-family="Verdana" font-size="88.00">Files renaming</text>
</g>
<!-- 236 -->
<g id="node11" class="node">
<title>236</title>
<polygon fill="#e1f5fe" stroke="#b3b3b3" stroke-width="1.5" points="4535.66,-3017.52 3300.16,-3017.52 3300.16,-2902.27 4541.66,-2902.27 4541.66,-3011.52 4535.66,-3017.52"/>
<polyline fill="none" stroke="#b3b3b3" stroke-width="1.5" points="4535.66,-3017.52 4535.66,-3011.52"/>
<polyline fill="none" stroke="#b3b3b3" stroke-width="1.5" points="4541.66,-3011.52 4535.66,-3011.52"/>
<text xml:space="preserve" text-anchor="middle" x="3920.91" y="-2929.92" font-family="Verdana" font-size="88.00">Header levels normalization</text>
</g>
<!-- 562 -->
<g id="node12" class="node">
<title>562</title>
<polygon fill="#e9f9ef" stroke="#b3b3b3" stroke-width="1.5" points="2276.97,-4420.15 835.97,-4420.15 835.97,-4304.9 2282.97,-4304.9 2282.97,-4414.15 2276.97,-4420.15"/>
<polyline fill="none" stroke="#b3b3b3" stroke-width="1.5" points="2276.97,-4420.15 2276.97,-4414.15"/>
<polyline fill="none" stroke="#b3b3b3" stroke-width="1.5" points="2282.97,-4414.15 2276.97,-4414.15"/>
<text xml:space="preserve" text-anchor="middle" x="1559.47" y="-4332.55" font-family="Verdana" font-size="88.00">How to use with your text editor</text>
</g>
<!-- 257 -->
<g id="node13" class="node">
<title>257</title>
<polygon fill="#ffeee0" stroke="#b3b3b3" stroke-width="1.5" points="5974.42,-4537.32 5392.17,-4537.32 5392.17,-4422.07 5980.42,-4422.07 5980.42,-4531.32 5974.42,-4537.32"/>
<polyline fill="none" stroke="#b3b3b3" stroke-width="1.5" points="5974.42,-4537.32 5974.42,-4531.32"/>
<polyline fill="none" stroke="#b3b3b3" stroke-width="1.5" points="5980.42,-4531.32 5974.42,-4531.32"/>
<text xml:space="preserve" text-anchor="middle" x="5686.3" y="-4449.72" font-family="Verdana" font-size="88.00">Notes search</text>
</g>
<!-- 509 -->
<g id="node14" class="node">
<title>509</title>
<polygon fill="#ffeaea" stroke="#b3b3b3" stroke-width="1.5" points="4621.51,-245.29 3848.01,-245.29 3848.01,-139.04 4627.51,-139.04 4627.51,-239.29 4621.51,-245.29"/>
<polyline fill="none" stroke="#b3b3b3" stroke-width="1.5" points="4621.51,-245.29 4621.51,-239.29"/>
<polyline fill="none" stroke="#b3b3b3" stroke-width="1.5" points="4627.51,-239.29 4621.51,-239.29"/>
<text xml:space="preserve" text-anchor="middle" x="4237.76" y="-165.29" font-family="Verdana" font-size="80.00">Advanced Features</text>
</g>
<!-- 536 -->
<g id="node15" class="node">
<title>536</title>
<polygon fill="#d9fae7" stroke="#b3b3b3" stroke-width="1.5" points="3656.34,-5856.41 3428.09,-5856.41 3428.09,-5741.16 3662.34,-5741.16 3662.34,-5850.41 3656.34,-5856.41"/>
<polyline fill="none" stroke="#b3b3b3" stroke-width="1.5" points="3656.34,-5856.41 3656.34,-5850.41"/>
<polyline fill="none" stroke="#b3b3b3" stroke-width="1.5" points="3662.34,-5850.41 3656.34,-5850.41"/>
<text xml:space="preserve" text-anchor="middle" x="3545.21" y="-5768.81" font-family="Verdana" font-size="88.00">Helix</text>
</g>
<!-- 800 -->
<g id="node16" class="node">
<title>800</title>
<polygon fill="#dcf7f7" stroke="#b3b3b3" stroke-width="1.5" points="4902.72,-3330.16 4559.72,-3330.16 4559.72,-3214.91 4908.72,-3214.91 4908.72,-3324.16 4902.72,-3330.16"/>
<polyline fill="none" stroke="#b3b3b3" stroke-width="1.5" points="4902.72,-3330.16 4902.72,-3324.16"/>
<polyline fill="none" stroke="#b3b3b3" stroke-width="1.5" points="4908.72,-3324.16 4902.72,-3324.16"/>
<text xml:space="preserve" text-anchor="middle" x="4734.22" y="-3242.56" font-family="Verdana" font-size="88.00">Neovim</text>
</g>
<!-- 78 -->
<g id="node17" class="node">
<title>78</title>
<polygon fill="#fbfbda" stroke="#b3b3b3" stroke-width="1.5" points="5513.87,-2630.43 4912.87,-2630.43 4912.87,-2515.18 5519.87,-2515.18 5519.87,-2624.43 5513.87,-2630.43"/>
<polyline fill="none" stroke="#b3b3b3" stroke-width="1.5" points="5513.87,-2630.43 5513.87,-2624.43"/>
<polyline fill="none" stroke="#b3b3b3" stroke-width="1.5" points="5519.87,-2624.43 5513.87,-2624.43"/>
<text xml:space="preserve" text-anchor="middle" x="5216.37" y="-2542.83" font-family="Verdana" font-size="88.00">Configuration</text>
</g>
<!-- 293 -->
<g id="node18" class="node">
<title>293</title>
<polygon fill="#e1f5fe" stroke="#b3b3b3" stroke-width="1.5" points="2195.39,-5042.86 1335.64,-5042.86 1335.64,-4927.61 2201.39,-4927.61 2201.39,-5036.86 2195.39,-5042.86"/>
<polyline fill="none" stroke="#b3b3b3" stroke-width="1.5" points="2195.39,-5042.86 2195.39,-5036.86"/>
<polyline fill="none" stroke="#b3b3b3" stroke-width="1.5" points="2201.39,-5036.86 2195.39,-5036.86"/>
<text xml:space="preserve" text-anchor="middle" x="1768.52" y="-4955.26" font-family="Verdana" font-size="88.00">Graph Visualization</text>
</g>
<!-- 166 -->
<g id="node19" class="node">
<title>166</title>
<polygon fill="#e9f9ef" stroke="#b3b3b3" stroke-width="1.5" points="1520.76,-1412.65 304.76,-1412.65 304.76,-1306.4 1526.76,-1306.4 1526.76,-1406.65 1520.76,-1412.65"/>
<polyline fill="none" stroke="#b3b3b3" stroke-width="1.5" points="1520.76,-1412.65 1520.76,-1406.65"/>
<polyline fill="none" stroke="#b3b3b3" stroke-width="1.5" points="1526.76,-1406.65 1520.76,-1406.65"/>
<text xml:space="preserve" text-anchor="middle" x="915.76" y="-1332.65" font-family="Verdana" font-size="80.00">Document Processing Pipeline</text>
</g>
<!-- 498 -->
<g id="node20" class="node">
<title>498</title>
<polygon fill="#ffeaea" stroke="#b3b3b3" stroke-width="1.5" points="1357.75,-2042.87 0,-2042.87 0,-1936.62 1363.75,-1936.62 1363.75,-2036.87 1357.75,-2042.87"/>
<polyline fill="none" stroke="#b3b3b3" stroke-width="1.5" points="1357.75,-2042.87 1357.75,-2036.87"/>
<polyline fill="none" stroke="#b3b3b3" stroke-width="1.5" points="1363.75,-2036.87 1357.75,-2036.87"/>
<text xml:space="preserve" text-anchor="middle" x="681.88" y="-1962.87" font-family="Verdana" font-size="80.00">Graph Operations and Algorithms</text>
</g>
<!-- 730 -->
<g id="node21" class="node">
<title>730</title>
<polygon fill="#f2fadf" stroke="#b3b3b3" stroke-width="1.5" points="1979.8,-843.7 586.05,-843.7 586.05,-737.45 1985.8,-737.45 1985.8,-837.7 1979.8,-843.7"/>
<polyline fill="none" stroke="#b3b3b3" stroke-width="1.5" points="1979.8,-843.7 1979.8,-837.7"/>
<polyline fill="none" stroke="#b3b3b3" stroke-width="1.5" points="1985.8,-837.7 1979.8,-837.7"/>
<text xml:space="preserve" text-anchor="middle" x="1285.92" y="-763.7" font-family="Verdana" font-size="80.00">Key System and Cross&#45;References</text>
</g>
<!-- 677 -->
<g id="node22" class="node">
<title>677</title>
<polygon fill="#f6e5ee" stroke="#b3b3b3" stroke-width="1.5" points="3795.39,-3999.14 3588.89,-3999.14 3588.89,-3874.14 3801.39,-3874.14 3801.39,-3993.14 3795.39,-3999.14"/>
<polyline fill="none" stroke="#b3b3b3" stroke-width="1.5" points="3795.39,-3999.14 3795.39,-3993.14"/>
<polyline fill="none" stroke="#b3b3b3" stroke-width="1.5" points="3801.39,-3993.14 3795.39,-3993.14"/>
<text xml:space="preserve" text-anchor="middle" x="3695.14" y="-3903.94" font-family="Verdana" font-size="96.00">IWE</text>
</g>
<!-- 677&#45;&gt;549 -->
<g id="edge8" class="edge">
<title>677&#45;&gt;549</title>
<path fill="none" stroke="#38546c" stroke-width="1.2" stroke-opacity="0.400000" d="M3588.35,-3928.56C3287.15,-3905.76 2422.06,-3840.28 1947.98,-3804.39"/>
<polygon fill="#38546c" fill-opacity="0.400000" stroke="#38546c" stroke-width="1.2" stroke-opacity="0.400000" points="1948.56,-3800.93 1938.32,-3803.66 1948.03,-3807.91 1948.56,-3800.93"/>
</g>
<!-- 677&#45;&gt;152 -->
<g id="edge21" class="edge">
<title>677&#45;&gt;152</title>
<path fill="none" stroke="#38546c" stroke-width="1.2" stroke-opacity="0.400000" d="M3801.95,-3940.61C4043.86,-3949.59 4640.73,-3971.75 5003.6,-3985.23"/>
<polygon fill="#38546c" fill-opacity="0.400000" stroke="#38546c" stroke-width="1.2" stroke-opacity="0.400000" points="5003.4,-3988.72 5013.53,-3985.6 5003.66,-3981.73 5003.4,-3988.72"/>
</g>
<!-- 677&#45;&gt;215 -->
<g id="edge23" class="edge">
<title>677&#45;&gt;215</title>
<path fill="none" stroke="#38546c" stroke-width="1.2" stroke-opacity="0.400000" d="M3667.72,-3873.74C3577.59,-3666.98 3296.21,-3021.47 3296.21,-3021.47 3296.21,-3021.47 3296.21,-2898.32 3296.21,-2898.32 3296.21,-2898.32 3538.03,-2643.39 3656.01,-2519.02"/>
<polygon fill="#38546c" fill-opacity="0.400000" stroke="#38546c" stroke-width="1.2" stroke-opacity="0.400000" points="3658.35,-2521.64 3662.7,-2511.98 3653.27,-2516.82 3658.35,-2521.64"/>
</g>
<!-- 677&#45;&gt;366 -->
<g id="edge5" class="edge">
<title>677&#45;&gt;366</title>
<path fill="none" stroke="#38546c" stroke-width="1.2" stroke-opacity="0.400000" d="M3655.45,-3999.89C3510.22,-4231.33 3016.15,-5018.69 3016.15,-5018.69 3016.15,-5018.69 2610.9,-5357.8 2436.39,-5503.82"/>
<polygon fill="#38546c" fill-opacity="0.400000" stroke="#38546c" stroke-width="1.2" stroke-opacity="0.400000" points="2434.31,-5500.99 2428.89,-5510.09 2438.81,-5506.36 2434.31,-5500.99"/>
</g>
<!-- 677&#45;&gt;1158 -->
<g id="edge3" class="edge">
<title>677&#45;&gt;1158</title>
<path fill="none" stroke="#38546c" stroke-width="1.2" stroke-opacity="0.400000" d="M3723.33,-3999.79C3829.49,-4237.64 4199.26,-5066.07 4199.26,-5066.07 4199.26,-5066.07 4277.29,-5653.99 4304.56,-5859.43"/>
<polygon fill="#38546c" fill-opacity="0.400000" stroke="#38546c" stroke-width="1.2" stroke-opacity="0.400000" points="4301.06,-5859.7 4305.85,-5869.15 4308,-5858.78 4301.06,-5859.7"/>
</g>
<!-- 677&#45;&gt;230 -->
<g id="edge25" class="edge">
<title>677&#45;&gt;230</title>
<path fill="none" stroke="#38546c" stroke-width="1.2" stroke-opacity="0.400000" d="M3588.2,-3898.96C3297.39,-3796.49 2490,-3512.01 2130.56,-3385.36"/>
<polygon fill="#38546c" fill-opacity="0.400000" stroke="#38546c" stroke-width="1.2" stroke-opacity="0.400000" points="2131.84,-3382.1 2121.25,-3382.08 2129.51,-3388.7 2131.84,-3382.1"/>
</g>
<!-- 677&#45;&gt;247 -->
<g id="edge9" class="edge">
<title>677&#45;&gt;247</title>
<path fill="none" stroke="#38546c" stroke-width="1.2" stroke-opacity="0.400000" d="M3801.82,-3885.08C4120.32,-3731.11 5063.78,-3275.03 5412.14,-3106.63"/>
<polygon fill="#38546c" fill-opacity="0.400000" stroke="#38546c" stroke-width="1.2" stroke-opacity="0.400000" points="5413.66,-3109.79 5421.14,-3102.28 5410.61,-3103.48 5413.66,-3109.79"/>
</g>
<!-- 677&#45;&gt;204 -->
<g id="edge10" class="edge">
<title>677&#45;&gt;204</title>
<path fill="none" stroke="#38546c" stroke-width="1.2" stroke-opacity="0.400000" d="M3602.91,-3873.44C3362.37,-3708.58 2717.71,-3266.76 2474.48,-3100.06"/>
<polygon fill="#38546c" fill-opacity="0.400000" stroke="#38546c" stroke-width="1.2" stroke-opacity="0.400000" points="2476.68,-3097.32 2466.45,-3094.55 2472.72,-3103.09 2476.68,-3097.32"/>
</g>
<!-- 677&#45;&gt;254 -->
<g id="edge11" class="edge">
<title>677&#45;&gt;254</title>
<path fill="none" stroke="#38546c" stroke-width="1.2" stroke-opacity="0.400000" d="M3753.6,-3873.74C3945.74,-3666.98 4545.61,-3021.47 4545.61,-3021.47 4545.61,-3021.47 4602.45,-2628.99 4626.04,-2466.12"/>
<polygon fill="#38546c" fill-opacity="0.400000" stroke="#38546c" stroke-width="1.2" stroke-opacity="0.400000" points="4629.45,-2466.99 4627.42,-2456.6 4622.53,-2465.99 4629.45,-2466.99"/>
</g>
<!-- 677&#45;&gt;236 -->
<g id="edge2" class="edge">
<title>677&#45;&gt;236</title>
<path fill="none" stroke="#38546c" stroke-width="1.2" stroke-opacity="0.400000" d="M3709.69,-3873.68C3749.98,-3699.38 3862.77,-3211.4 3904.83,-3029.45"/>
<polygon fill="#38546c" fill-opacity="0.400000" stroke="#38546c" stroke-width="1.2" stroke-opacity="0.400000" points="3908.18,-3030.47 3907.03,-3019.94 3901.36,-3028.89 3908.18,-3030.47"/>
</g>
<!-- 677&#45;&gt;562 -->
<g id="edge18" class="edge">
<title>677&#45;&gt;562</title>
<path fill="none" stroke="#38546c" stroke-width="1.2" stroke-opacity="0.400000" d="M3588.43,-3952.87C3253.9,-4003.73 2247.85,-4156.68 2247.85,-4156.68 2247.85,-4156.68 1968.35,-4240.26 1765.55,-4300.9"/>
<polygon fill="#38546c" fill-opacity="0.400000" stroke="#38546c" stroke-width="1.2" stroke-opacity="0.400000" points="1764.75,-4297.49 1756.17,-4303.7 1766.76,-4304.19 1764.75,-4297.49"/>
</g>
<!-- 677&#45;&gt;257 -->
<g id="edge24" class="edge">
<title>677&#45;&gt;257</title>
<path fill="none" stroke="#38546c" stroke-width="1.2" stroke-opacity="0.400000" d="M3801.84,-3965.75C4114.34,-4050.97 5032.44,-4301.37 5461.06,-4418.26"/>
<polygon fill="#38546c" fill-opacity="0.400000" stroke="#38546c" stroke-width="1.2" stroke-opacity="0.400000" points="5460.02,-4421.61 5470.59,-4420.86 5461.87,-4414.86 5460.02,-4421.61"/>
</g>
<!-- 677&#45;&gt;536 -->
<g id="edge1" class="edge">
<title>677&#45;&gt;536</title>
<path fill="none" stroke="#38546c" stroke-width="1.2" stroke-opacity="0.400000" d="M3680.1,-3999.79C3623.44,-4237.64 3426.11,-5066.07 3426.11,-5066.07 3426.11,-5066.07 3426.11,-5189.22 3426.11,-5189.22 3426.11,-5189.22 3500.32,-5569 3531.58,-5729.02"/>
<polygon fill="#38546c" fill-opacity="0.400000" stroke="#38546c" stroke-width="1.2" stroke-opacity="0.400000" points="3528.15,-5729.69 3533.5,-5738.83 3535.02,-5728.35 3528.15,-5729.69"/>
</g>
<!-- 677&#45;&gt;800 -->
<g id="edge6" class="edge">
<title>677&#45;&gt;800</title>
<path fill="none" stroke="#38546c" stroke-width="1.2" stroke-opacity="0.400000" d="M3793.83,-3873.57C3991.36,-3747.32 4433.43,-3464.78 4633.01,-3337.22"/>
<polygon fill="#38546c" fill-opacity="0.400000" stroke="#38546c" stroke-width="1.2" stroke-opacity="0.400000" points="4634.84,-3340.21 4641.38,-3331.87 4631.07,-3334.31 4634.84,-3340.21"/>
</g>
<!-- 677&#45;&gt;78 -->
<g id="edge4" class="edge">
<title>677&#45;&gt;78</title>
<path fill="none" stroke="#38546c" stroke-width="1.2" stroke-opacity="0.400000" d="M3765.46,-3873.6C4018.96,-3646.33 4884.53,-2870.31 5142.95,-2638.63"/>
<polygon fill="#38546c" fill-opacity="0.400000" stroke="#38546c" stroke-width="1.2" stroke-opacity="0.400000" points="5145.06,-2641.44 5150.17,-2632.16 5140.38,-2636.23 5145.06,-2641.44"/>
</g>
<!-- 677&#45;&gt;293 -->
<g id="edge12" class="edge">
<title>677&#45;&gt;293</title>
<path fill="none" stroke="#38546c" stroke-width="1.2" stroke-opacity="0.400000" d="M3588.47,-3994.7C3255.01,-4176.19 2233.83,-4731.99 1885.99,-4921.3"/>
<polygon fill="#38546c" fill-opacity="0.400000" stroke="#38546c" stroke-width="1.2" stroke-opacity="0.400000" points="1884.35,-4918.21 1877.24,-4926.07 1887.7,-4924.36 1884.35,-4918.21"/>
</g>
<!-- 748 -->
<g id="node23" class="node">
<title>748</title>
<polygon fill="#fff9de" stroke="#b3b3b3" stroke-width="1.5" points="5642.47,-5074.48 4912.47,-5074.48 4912.47,-4959.23 5648.47,-4959.23 5648.47,-5068.48 5642.47,-5074.48"/>
<polyline fill="none" stroke="#b3b3b3" stroke-width="1.5" points="5642.47,-5074.48 5642.47,-5068.48"/>
<polyline fill="none" stroke="#b3b3b3" stroke-width="1.5" points="5648.47,-5068.48 5642.47,-5068.48"/>
<text xml:space="preserve" text-anchor="middle" x="5280.47" y="-4986.88" font-family="Verdana" font-size="88.00">Maps of Content</text>
</g>
<!-- 677&#45;&gt;748 -->
<g id="edge22" class="edge">
<title>677&#45;&gt;748</title>
<path fill="none" stroke="#38546c" stroke-width="1.2" stroke-opacity="0.400000" d="M3734.54,-3999.81C3840.61,-4169.85 4124.18,-4624.47 4124.18,-4624.47 4124.18,-4624.47 4771.71,-4844.21 5097.63,-4954.81"/>
<polygon fill="#38546c" fill-opacity="0.400000" stroke="#38546c" stroke-width="1.2" stroke-opacity="0.400000" points="5096.3,-4958.06 5106.89,-4957.96 5098.55,-4951.43 5096.3,-4958.06"/>
</g>
<!-- 212 -->
<g id="node24" class="node">
<title>212</title>
<polygon fill="#f6e5ee" stroke="#b3b3b3" stroke-width="1.5" points="5087.52,-5449.57 4431.77,-5449.57 4431.77,-5334.32 5093.52,-5334.32 5093.52,-5443.57 5087.52,-5449.57"/>
<polyline fill="none" stroke="#b3b3b3" stroke-width="1.5" points="5087.52,-5449.57 5087.52,-5443.57"/>
<polyline fill="none" stroke="#b3b3b3" stroke-width="1.5" points="5093.52,-5443.57 5087.52,-5443.57"/>
<text xml:space="preserve" text-anchor="middle" x="4762.64" y="-5361.97" font-family="Verdana" font-size="88.00">Auto&#45;complete</text>
</g>
<!-- 677&#45;&gt;212 -->
<g id="edge20" class="edge">
<title>677&#45;&gt;212</title>
<path fill="none" stroke="#38546c" stroke-width="1.2" stroke-opacity="0.400000" d="M3734.54,-3999.81C3840.61,-4169.85 4124.18,-4624.47 4124.18,-4624.47 4124.18,-4624.47 4551.04,-5137.58 4706.7,-5324.7"/>
<polygon fill="#38546c" fill-opacity="0.400000" stroke="#38546c" stroke-width="1.2" stroke-opacity="0.400000" points="4703.88,-5326.78 4712.97,-5332.23 4709.26,-5322.31 4703.88,-5326.78"/>
</g>
<!-- 265 -->
<g id="node25" class="node">
<title>265</title>
<polygon fill="#eeebfa" stroke="#b3b3b3" stroke-width="1.5" points="3327.78,-5750.33 2645.78,-5750.33 2645.78,-5635.08 3333.78,-5635.08 3333.78,-5744.33 3327.78,-5750.33"/>
<polyline fill="none" stroke="#b3b3b3" stroke-width="1.5" points="3327.78,-5750.33 3327.78,-5744.33"/>
<polyline fill="none" stroke="#b3b3b3" stroke-width="1.5" points="3333.78,-5744.33 3327.78,-5744.33"/>
<text xml:space="preserve" text-anchor="middle" x="2989.78" y="-5662.73" font-family="Verdana" font-size="88.00">Sub&#45;directories</text>
</g>
<!-- 677&#45;&gt;265 -->
<g id="edge7" class="edge">
<title>677&#45;&gt;265</title>
<path fill="none" stroke="#38546c" stroke-width="1.2" stroke-opacity="0.400000" d="M3669.83,-3999.66C3560.74,-4271.24 3131.17,-5340.7 3017.5,-5623.69"/>
<polygon fill="#38546c" fill-opacity="0.400000" stroke="#38546c" stroke-width="1.2" stroke-opacity="0.400000" points="3014.27,-5622.34 3013.79,-5632.92 3020.76,-5624.95 3014.27,-5622.34"/>
</g>
<!-- 1 -->
<g id="node26" class="node">
<title>1</title>
<polygon fill="#eef2f5" stroke="#b3b3b3" stroke-width="1.5" points="3089.76,-1778.6 2544.26,-1778.6 2544.26,-1663.35 3095.76,-1663.35 3095.76,-1772.6 3089.76,-1778.6"/>
<polyline fill="none" stroke="#b3b3b3" stroke-width="1.5" points="3089.76,-1778.6 3089.76,-1772.6"/>
<polyline fill="none" stroke="#b3b3b3" stroke-width="1.5" points="3095.76,-1772.6 3089.76,-1772.6"/>
<text xml:space="preserve" text-anchor="middle" x="2820.01" y="-1691" font-family="Verdana" font-size="88.00">Architecture</text>
</g>
<!-- 677&#45;&gt;1 -->
<g id="edge15" class="edge">
<title>677&#45;&gt;1</title>
<path fill="none" stroke="#38546c" stroke-width="1.2" stroke-opacity="0.400000" d="M3667.72,-3873.74C3577.59,-3666.98 3296.21,-3021.47 3296.21,-3021.47 3296.21,-3021.47 3295.16,-2973.62 3295.16,-2973.62 3295.16,-2973.62 2945.93,-2052.94 2846.27,-1790.21"/>
<polygon fill="#38546c" fill-opacity="0.400000" stroke="#38546c" stroke-width="1.2" stroke-opacity="0.400000" points="2849.6,-1789.1 2842.78,-1780.99 2843.05,-1791.59 2849.6,-1789.1"/>
</g>
<!-- 1016 -->
<g id="node28" class="node">
<title>1016</title>
<polygon fill="#ffeee0" stroke="#b3b3b3" stroke-width="1.5" points="2634.55,-4275.88 2251.8,-4275.88 2251.8,-4160.63 2640.55,-4160.63 2640.55,-4269.88 2634.55,-4275.88"/>
<polyline fill="none" stroke="#b3b3b3" stroke-width="1.5" points="2634.55,-4275.88 2634.55,-4269.88"/>
<polyline fill="none" stroke="#b3b3b3" stroke-width="1.5" points="2640.55,-4269.88 2634.55,-4269.88"/>
<text xml:space="preserve" text-anchor="middle" x="2446.18" y="-4188.28" font-family="Verdana" font-size="88.00">VS Code</text>
</g>
<!-- 677&#45;&gt;1016 -->
<g id="edge16" class="edge">
<title>677&#45;&gt;1016</title>
<path fill="none" stroke="#38546c" stroke-width="1.2" stroke-opacity="0.400000" d="M3588.39,-3960.72C3381.19,-4007.43 2921.36,-4111.11 2652.6,-4171.71"/>
<polygon fill="#38546c" fill-opacity="0.400000" stroke="#38546c" stroke-width="1.2" stroke-opacity="0.400000" points="2651.89,-4168.29 2642.91,-4173.9 2653.43,-4175.11 2651.89,-4168.29"/>
</g>
<!-- 226 -->
<g id="node30" class="node">
<title>226</title>
<polygon fill="#fae1ee" stroke="#b3b3b3" stroke-width="1.5" points="6014.97,-3661.83 5538.47,-3661.83 5538.47,-3546.58 6020.97,-3546.58 6020.97,-3655.83 6014.97,-3661.83"/>
<polyline fill="none" stroke="#b3b3b3" stroke-width="1.5" points="6014.97,-3661.83 6014.97,-3655.83"/>
<polyline fill="none" stroke="#b3b3b3" stroke-width="1.5" points="6020.97,-3655.83 6014.97,-3655.83"/>
<text xml:space="preserve" text-anchor="middle" x="5779.72" y="-3574.23" font-family="Verdana" font-size="88.00">Inlay hints</text>
</g>
<!-- 677&#45;&gt;226 -->
<g id="edge14" class="edge">
<title>677&#45;&gt;226</title>
<path fill="none" stroke="#38546c" stroke-width="1.2" stroke-opacity="0.400000" d="M3802.1,-3919.59C4120.58,-3868.8 5068.84,-3717.57 5526.74,-3644.55"/>
<polygon fill="#38546c" fill-opacity="0.400000" stroke="#38546c" stroke-width="1.2" stroke-opacity="0.400000" points="5527.01,-3648.05 5536.34,-3643.02 5525.91,-3641.13 5527.01,-3648.05"/>
</g>
<!-- 156 -->
<g id="node31" class="node">
<title>156</title>
<polygon fill="#f2fadf" stroke="#b3b3b3" stroke-width="1.5" points="4189.31,-5185.27 3430.06,-5185.27 3430.06,-5070.02 4195.31,-5070.02 4195.31,-5179.27 4189.31,-5185.27"/>
<polyline fill="none" stroke="#b3b3b3" stroke-width="1.5" points="4189.31,-5185.27 4189.31,-5179.27"/>
<polyline fill="none" stroke="#b3b3b3" stroke-width="1.5" points="4195.31,-5179.27 4189.31,-5179.27"/>
<text xml:space="preserve" text-anchor="middle" x="3812.68" y="-5097.67" font-family="Verdana" font-size="88.00">Design principles</text>
</g>
<!-- 677&#45;&gt;156 -->
<g id="edge17" class="edge">
<title>677&#45;&gt;156</title>
<path fill="none" stroke="#38546c" stroke-width="1.2" stroke-opacity="0.400000" d="M3701.38,-3999.84C3721.52,-4203.97 3784.77,-4844.81 3805.81,-5057.94"/>
<polygon fill="#38546c" fill-opacity="0.400000" stroke="#38546c" stroke-width="1.2" stroke-opacity="0.400000" points="3802.31,-5058.15 3806.77,-5067.75 3809.27,-5057.46 3802.31,-5058.15"/>
</g>
<!-- 183 -->
<g id="node32" class="node">
<title>183</title>
<polygon fill="#eef2f5" stroke="#b3b3b3" stroke-width="1.5" points="5109.38,-4620.52 4128.13,-4620.52 4128.13,-4505.27 5115.38,-4505.27 5115.38,-4614.52 5109.38,-4620.52"/>
<polyline fill="none" stroke="#b3b3b3" stroke-width="1.5" points="5109.38,-4620.52 5109.38,-4614.52"/>
<polyline fill="none" stroke="#b3b3b3" stroke-width="1.5" points="5115.38,-4614.52 5109.38,-4614.52"/>
<text xml:space="preserve" text-anchor="middle" x="4621.75" y="-4532.92" font-family="Verdana" font-size="88.00">Basic journal example</text>
</g>
<!-- 677&#45;&gt;183 -->
<g id="edge13" class="edge">
<title>677&#45;&gt;183</title>
<path fill="none" stroke="#38546c" stroke-width="1.2" stroke-opacity="0.400000" d="M3788.66,-3999.85C3965.54,-4119.39 4347.32,-4377.42 4525.95,-4498.15"/>
<polygon fill="#38546c" fill-opacity="0.400000" stroke="#38546c" stroke-width="1.2" stroke-opacity="0.400000" points="4523.85,-4500.96 4534.09,-4503.66 4527.77,-4495.16 4523.85,-4500.96"/>
</g>
<!-- 287 -->
<g id="node34" class="node">
<title>287</title>
<polygon fill="#eef2f5" stroke="#b3b3b3" stroke-width="1.5" points="3006.2,-5014.74 2210.2,-5014.74 2210.2,-4899.49 3012.2,-4899.49 3012.2,-5008.74 3006.2,-5014.74"/>
<polyline fill="none" stroke="#b3b3b3" stroke-width="1.5" points="3006.2,-5014.74 3006.2,-5008.74"/>
<polyline fill="none" stroke="#b3b3b3" stroke-width="1.5" points="3012.2,-5008.74 3006.2,-5008.74"/>
<text xml:space="preserve" text-anchor="middle" x="2611.2" y="-4927.14" font-family="Verdana" font-size="88.00">Text manipulation</text>
</g>
<!-- 677&#45;&gt;287 -->
<g id="edge19" class="edge">
<title>677&#45;&gt;287</title>
<path fill="none" stroke="#38546c" stroke-width="1.2" stroke-opacity="0.400000" d="M3628.15,-3999.71C3435.09,-4181.47 2878.74,-4705.24 2681.54,-4890.89"/>
<polygon fill="#38546c" fill-opacity="0.400000" stroke="#38546c" stroke-width="1.2" stroke-opacity="0.400000" points="2679.19,-4888.3 2674.31,-4897.7 2683.99,-4893.39 2679.19,-4888.3"/>
</g>
<!-- 1&#45;&gt;710 -->
<g id="edge26" class="edge">
<title>1&#45;&gt;710</title>
<path fill="none" stroke="#38546c" stroke-width="1.2" stroke-opacity="0.400000" d="M2847.75,-1663.08C2970.01,-1407.88 3460.41,-384.28 3588.39,-117.15"/>
<polygon fill="#38546c" fill-opacity="0.400000" stroke="#38546c" stroke-width="1.2" stroke-opacity="0.400000" points="3591.37,-119.02 3592.54,-108.49 3585.06,-116 3591.37,-119.02"/>
</g>
<!-- 1&#45;&gt;509 -->
<g id="edge31" class="edge">
<title>1&#45;&gt;509</title>
<path fill="none" stroke="#38546c" stroke-width="1.2" stroke-opacity="0.400000" d="M2873.86,-1662.91C3097.17,-1422.1 3949.56,-502.93 4180.02,-254.42"/>
<polygon fill="#38546c" fill-opacity="0.400000" stroke="#38546c" stroke-width="1.2" stroke-opacity="0.400000" points="4182.49,-256.91 4186.72,-247.19 4177.36,-252.15 4182.49,-256.91"/>
</g>
<!-- 1&#45;&gt;166 -->
<g id="edge28" class="edge">
<title>1&#45;&gt;166</title>
<path fill="none" stroke="#38546c" stroke-width="1.2" stroke-opacity="0.400000" d="M2543.63,-1668.51C2188.56,-1601.12 1574.77,-1484.61 1210.87,-1415.54"/>
<polygon fill="#38546c" fill-opacity="0.400000" stroke="#38546c" stroke-width="1.2" stroke-opacity="0.400000" points="1211.63,-1412.12 1201.16,-1413.69 1210.33,-1419 1211.63,-1412.12"/>
</g>
<!-- 1&#45;&gt;498 -->
<g id="edge32" class="edge">
<title>1&#45;&gt;498</title>
<path fill="none" stroke="#38546c" stroke-width="1.2" stroke-opacity="0.400000" d="M2543.77,-1755.7C2183.41,-1801 1548.65,-1880.79 1121.73,-1934.46"/>
<polygon fill="#38546c" fill-opacity="0.400000" stroke="#38546c" stroke-width="1.2" stroke-opacity="0.400000" points="1121.4,-1930.97 1111.91,-1935.69 1122.27,-1937.92 1121.4,-1930.97"/>
</g>
<!-- 1&#45;&gt;730 -->
<g id="edge33" class="edge">
<title>1&#45;&gt;730</title>
<path fill="none" stroke="#38546c" stroke-width="1.2" stroke-opacity="0.400000" d="M2724.05,-1662.78C2449.48,-1496.25 1662.66,-1019.06 1384.67,-850.46"/>
<polygon fill="#38546c" fill-opacity="0.400000" stroke="#38546c" stroke-width="1.2" stroke-opacity="0.400000" points="1386.52,-847.49 1376.15,-845.3 1382.89,-853.47 1386.52,-847.49"/>
</g>
<!-- 134 -->
<g id="node27" class="node">
<title>134</title>
<polygon fill="#e1f5fe" stroke="#b3b3b3" stroke-width="1.5" points="5115.86,-602.18 4400.11,-602.18 4400.11,-495.93 5121.86,-495.93 5121.86,-596.18 5115.86,-602.18"/>
<polyline fill="none" stroke="#b3b3b3" stroke-width="1.5" points="5115.86,-602.18 5115.86,-596.18"/>
<polyline fill="none" stroke="#b3b3b3" stroke-width="1.5" points="5121.86,-596.18 5115.86,-596.18"/>
<text xml:space="preserve" text-anchor="middle" x="4760.99" y="-522.18" font-family="Verdana" font-size="80.00">Core Architecture</text>
</g>
<!-- 1&#45;&gt;134 -->
<g id="edge30" class="edge">
<title>1&#45;&gt;134</title>
<path fill="none" stroke="#38546c" stroke-width="1.2" stroke-opacity="0.400000" d="M2916.6,-1662.66C3246.79,-1463.3 4328.64,-810.1 4662.18,-608.71"/>
<polygon fill="#38546c" fill-opacity="0.400000" stroke="#38546c" stroke-width="1.2" stroke-opacity="0.400000" points="4663.52,-611.99 4670.28,-603.83 4659.91,-606 4663.52,-611.99"/>
</g>
<!-- 991 -->
<g id="node29" class="node">
<title>991</title>
<polygon fill="#dcf7f7" stroke="#b3b3b3" stroke-width="1.5" points="2931.38,-133.08 1873.63,-133.08 1873.63,-26.83 2937.38,-26.83 2937.38,-127.08 2931.38,-133.08"/>
<polyline fill="none" stroke="#b3b3b3" stroke-width="1.5" points="2931.38,-133.08 2931.38,-127.08"/>
<polyline fill="none" stroke="#b3b3b3" stroke-width="1.5" points="2937.38,-127.08 2931.38,-127.08"/>
<text xml:space="preserve" text-anchor="middle" x="2405.51" y="-53.08" font-family="Verdana" font-size="80.00">Node Types and Structure</text>
</g>
<!-- 1&#45;&gt;991 -->
<g id="edge29" class="edge">
<title>1&#45;&gt;991</title>
<path fill="none" stroke="#38546c" stroke-width="1.2" stroke-opacity="0.400000" d="M2805.38,-1663.05C2741.71,-1410.98 2488.96,-410.32 2421.91,-144.88"/>
<polygon fill="#38546c" fill-opacity="0.400000" stroke="#38546c" stroke-width="1.2" stroke-opacity="0.400000" points="2425.33,-144.13 2419.49,-135.29 2418.54,-145.84 2425.33,-144.13"/>
</g>
<!-- 109 -->
<g id="node33" class="node">
<title>109</title>
<polygon fill="#d9fae7" stroke="#b3b3b3" stroke-width="1.5" points="2252.47,-389.54 1324.47,-389.54 1324.47,-283.29 2258.47,-283.29 2258.47,-383.54 2252.47,-389.54"/>
<polyline fill="none" stroke="#b3b3b3" stroke-width="1.5" points="2252.47,-389.54 2252.47,-383.54"/>
<polyline fill="none" stroke="#b3b3b3" stroke-width="1.5" points="2258.47,-383.54 2252.47,-383.54"/>
<text xml:space="preserve" text-anchor="middle" x="1791.47" y="-309.54" font-family="Verdana" font-size="80.00">Data Flow Architecture</text>
</g>
<!-- 1&#45;&gt;109 -->
<g id="edge27" class="edge">
<title>1&#45;&gt;109</title>
<path fill="none" stroke="#38546c" stroke-width="1.2" stroke-opacity="0.400000" d="M2776.8,-1662.81C2610.3,-1438.67 2011.01,-631.96 1838.33,-399.51"/>
<polygon fill="#38546c" fill-opacity="0.400000" stroke="#38546c" stroke-width="1.2" stroke-opacity="0.400000" points="1841.26,-397.58 1832.48,-391.64 1835.64,-401.75 1841.26,-397.58"/>
</g>
</g>
</svg>
